<svg width="32" height="25" viewBox="0 0 32 25" fill="none" xmlns="http://www.w3.org/2000/svg">
<path d="M19.5195 12.0304C19.1191 11.5653 18.5686 11.2553 17.968 11.2553H10.2603C10.01 11.2553 9.75976 11.462 9.75976 11.772C9.75976 12.0821 10.01 12.2888 10.2603 12.2888H17.968C18.2683 12.2888 18.5686 12.4438 18.7688 12.6505C18.969 12.9088 19.0691 13.2188 18.969 13.5289L18.5185 16.1125H13.013C12.7628 16.1125 12.5125 16.3191 12.5125 16.6292C12.5125 16.9392 12.7628 17.1459 13.013 17.1459H18.3684L17.9179 19.6261C17.8679 19.9878 17.5175 20.2462 17.1672 20.2462H7.55756C7.20721 20.2462 6.90691 19.9878 6.80681 19.6261L4.85486 8.41337C4.80481 8.15502 4.60461 8 4.35435 8H0.500501C0.25025 8 0 8.20669 0 8.51672C0 8.82675 0.25025 9.03343 0.500501 9.03343H3.95395L5.85586 19.8845C5.95596 20.6079 6.45646 21.1246 7.10711 21.3313C6.85686 21.693 6.65666 22.1581 6.65666 22.6748C6.65666 23.9666 7.65766 25 8.90891 25C10.1602 25 11.1612 23.9666 11.1612 22.6748C11.1612 22.2097 11.011 21.7447 10.7608 21.383H13.8138C13.5636 21.7447 13.4134 22.2097 13.4134 22.6748C13.4134 23.9666 14.4144 25 15.6657 25C16.9169 25 17.9179 23.9666 17.9179 22.6748C17.9179 22.1581 17.7678 21.693 17.5175 21.3313C18.1682 21.1763 18.7187 20.6079 18.8689 19.8845L19.97 13.7872C20.0701 13.1672 19.9199 12.5471 19.5195 12.0304ZM10.1602 22.6231C10.1602 23.3465 9.60961 23.9149 8.90891 23.9149C8.20821 23.9149 7.65766 23.3465 7.65766 22.6231C7.65766 21.8997 8.20821 21.3313 8.90891 21.3313C9.60961 21.3313 10.1602 21.8997 10.1602 22.6231ZM15.7157 23.9149C15.015 23.9149 14.4645 23.3465 14.4645 22.6231C14.4645 21.8997 15.015 21.3313 15.7157 21.3313C16.4164 21.3313 16.967 21.8997 16.967 22.6231C16.967 23.3465 16.4164 23.9149 15.7157 23.9149Z" fill="#212832"/>
<path d="M23 17C27.4183 17 31 13.4183 31 9C31 4.58172 27.4183 1 23 1C18.5817 1 15 4.58172 15 9C15 13.4183 18.5817 17 23 17Z" fill="#212832" stroke="white" stroke-width="2"/>
<path d="M20.9034 11H21.4494V6.065H21.0434L19.8464 6.478L19.9794 6.926L20.9034 6.639V11ZM22.4952 11H25.9182V10.496H23.3212L24.6302 9.334C25.4842 8.578 25.8692 8.144 25.8692 7.43C25.8692 6.618 25.2322 6.03 24.3502 6.03C23.4892 6.03 23.0272 6.415 22.5862 7.073L22.9922 7.367C23.3842 6.821 23.7482 6.527 24.3082 6.527C24.8402 6.527 25.2952 6.891 25.2952 7.465C25.2952 7.955 25.0292 8.34 24.2732 9.005L22.4952 10.573V11Z" fill="white"/>
</svg>
