<svg width="32" height="32" viewBox="0 0 32 32" fill="none" xmlns="http://www.w3.org/2000/svg">
<circle cx="16" cy="16" r="16" fill="#4D44B9"/>
<path d="M4.08 20H5.532V14.024L10.164 20H11.4V11.6H9.948V17.408L5.448 11.6H4.08V20ZM16.2965 20.144C17.4605 20.144 18.2885 19.676 18.8885 18.956L18.0365 18.2C17.5325 18.692 17.0285 18.956 16.3205 18.956C15.3845 18.956 14.6525 18.38 14.4965 17.348H19.1525C19.1645 17.276 19.1765 17.036 19.1765 16.94C19.1765 15.116 18.1565 13.532 16.1405 13.532C14.3285 13.532 13.0445 15.02 13.0445 16.832C13.0445 18.812 14.4605 20.144 16.2965 20.144ZM14.4845 16.388C14.6165 15.404 15.2405 14.72 16.1285 14.72C17.0885 14.72 17.6405 15.452 17.7365 16.388H14.4845ZM21.854 20.048H23.15L24.578 15.716L25.994 20.048H27.29L29.366 13.664H27.914L26.618 18.008L25.202 13.64H23.966L22.562 18.008L21.29 13.664H19.802L21.854 20.048Z" fill="white"/>
</svg>
