<svg width="13" height="13" viewBox="0 0 13 13" fill="none" xmlns="http://www.w3.org/2000/svg">
<path d="M9.20918 8.125H8.125V9.20918H9.20918V8.125ZM7.04082 3.79082H5.95664V4.875H7.04082V3.79082ZM9.20918 10.2908H8.125V11.375H9.20918V10.2908ZM9.20918 3.79082H8.125V4.875H9.20918V3.79082ZM3.79082 0H2.70664V1.625H3.79082V0ZM11.375 3.79082H10.2908V4.875H11.375V3.79082ZM7.04082 5.95918H5.95664V7.04336H7.04082V5.95918ZM11.375 5.95918H10.2908V7.04336H11.375V5.95918ZM11.375 8.125H10.2908V9.20918H11.375V8.125ZM9.20918 5.95918H8.125V7.04336H9.20918V5.95918ZM2.70918 5.95918H1.625V7.04336H2.70918V5.95918ZM2.70918 8.125H1.625V9.20918H2.70918V8.125ZM10.8342 0V2.16582H8.66836V0H4.33418V2.16582H2.16582V0H0V13H13V0H10.8342ZM11.9158 11.9158H1.08418V3.25H11.9184V11.9158H11.9158ZM2.70918 10.2908H1.625V11.375H2.70918V10.2908ZM7.04082 8.125H5.95664V9.20918H7.04082V8.125ZM4.875 10.2908H3.79082V11.375H4.875V10.2908ZM7.04082 10.2908H5.95664V11.375H7.04082V10.2908ZM4.875 3.79082H3.79082V4.875H4.875V3.79082ZM4.875 5.95918H3.79082V7.04336H4.875V5.95918ZM4.875 8.125H3.79082V9.20918H4.875V8.125ZM10.2908 0H9.20664V1.625H10.2908V0Z" fill="#464646"/>
</svg>
