<svg width="29" height="29" viewBox="0 0 29 29" fill="none" xmlns="http://www.w3.org/2000/svg">
<path d="M14.5 0C6.49153 0 0 6.49153 0 14.5C0 22.5085 6.49153 29 14.5 29C22.5085 29 29 22.5085 29 14.5C29 6.49153 22.5085 0 14.5 0ZM14.5 26.7344C7.74294 26.7344 2.26562 21.2571 2.26562 14.5C2.26562 7.74294 7.74294 2.26562 14.5 2.26562C21.2571 2.26562 26.7344 7.74294 26.7344 14.5C26.7344 21.2571 21.2571 26.7344 14.5 26.7344Z" fill="#B8B8B8"/>
<path d="M14.5 12.6875C12.9986 12.6875 11.7812 13.9053 11.7812 15.4062C11.7812 16.9081 12.9986 18.125 14.5 18.125C16.0019 18.125 17.2188 16.9081 17.2188 15.4062C17.2188 13.9053 16.0019 12.6875 14.5 12.6875Z" fill="#B8B8B8"/>
<path d="M20.8438 10.875H16.77C16.5638 10.875 16.3559 10.051 16.3125 9.96433C16.2222 9.78291 15.9072 9.0625 15.4062 9.0625H13.5938C13.0933 9.0625 12.7782 9.78291 12.6875 9.96433C12.6441 10.051 12.4361 10.875 12.23 10.875H8.15625C7.65577 10.875 7.25 11.2847 7.25 11.7848V19.0357C7.25 19.5366 7.65577 19.9375 8.15625 19.9375H20.8438C21.3447 19.9375 21.75 19.5366 21.75 19.0357V11.7848C21.75 11.2847 21.3447 10.875 20.8438 10.875ZM14.5 19.0312C12.4985 19.0312 10.875 17.409 10.875 15.4062C10.875 13.4043 12.4985 11.7812 14.5 11.7812C16.5028 11.7812 18.125 13.4043 18.125 15.4062C18.125 17.409 16.5028 19.0312 14.5 19.0312Z" fill="#B8B8B8"/>
</svg>
