<svg width="14" height="15" viewBox="0 0 14 15" fill="none" xmlns="http://www.w3.org/2000/svg">
<path d="M13.018 9.24489L11.8694 8.1355L6.70062 3.14365C5.74803 2.23051 4.21035 2.23326 3.26132 3.14985C2.3123 4.06644 2.30945 5.55156 3.2549 6.47159L8.42342 11.4649C8.63481 11.6692 8.97771 11.6692 9.18922 11.4649C9.40062 11.2606 9.40062 10.9296 9.18922 10.7253L4.02071 5.73196C3.4921 5.22142 3.4921 4.39382 4.02071 3.88328C4.54932 3.37274 5.4062 3.37274 5.93481 3.88328L11.1049 8.87513L12.2535 9.98441C13.2052 10.9039 13.2048 12.3943 12.2529 13.3133C11.3009 14.2323 9.7579 14.232 8.80626 13.3126L7.84927 12.3879L2.48922 7.2111L2.10625 6.84135C0.767727 5.50815 0.784729 3.38422 2.1443 2.07101C3.50399 0.757907 5.70308 0.741486 7.08346 2.03426L12.8264 7.58098C12.9632 7.71303 13.1626 7.76459 13.3494 7.71625C13.5363 7.6679 13.6823 7.52701 13.7323 7.34649C13.7824 7.16598 13.7289 6.97352 13.5922 6.84135L7.84927 1.29474C6.05073 -0.434391 3.14243 -0.431176 1.34806 1.30198C-0.446435 3.03502 -0.449764 5.84392 1.34057 7.58098L7.08346 13.1276L8.04188 14.0522C9.42404 15.3344 11.6145 15.3131 12.9694 14.004C14.3244 12.695 14.346 10.5795 13.018 9.24489Z" fill="#333333"/>
</svg>
