<svg width="41" height="53" viewBox="0 0 41 53" fill="none" xmlns="http://www.w3.org/2000/svg">
<path d="M40.8705 51.1332L33.6646 36.3531C33.5208 36.0582 33.2716 35.8323 32.9728 35.709L29.3879 34.1616L35.5996 24.0669C35.6144 24.0426 35.6284 24.0181 35.6418 23.9932C36.8767 21.6559 37.5029 19.1302 37.5029 16.4868C37.5029 12.0399 35.7045 7.87083 32.4389 4.74787C29.1739 1.62553 24.8483 -0.0608452 20.2594 0.00167821C15.8025 0.0616138 11.6062 1.79746 8.44304 4.88969C5.28027 7.9817 3.52391 12.0646 3.49744 16.3868C3.48121 19.0279 4.12485 21.658 5.35831 23.993C5.37155 24.0179 5.38553 24.0425 5.40037 24.0667L11.6119 34.1613L8.0063 35.7172C7.71133 35.8445 7.47326 36.0701 7.33534 36.353L0.129483 51.1332C-0.11168 51.6275 -0.00994067 52.2153 0.384418 52.6063C0.778669 52.9972 1.38206 53.1092 1.89737 52.8869L10.9244 48.9899L19.9516 52.8869C20.3009 53.0375 20.6995 53.0375 21.0488 52.8869L30.0758 48.9899L39.103 52.8869C39.2793 52.9629 39.4661 53 39.6512 53C40.0068 53 40.3566 52.8635 40.616 52.6064C41.01 52.2153 41.1116 51.6277 40.8705 51.1332ZM6.19496 16.4024C6.24065 8.90485 12.5668 2.72072 20.2969 2.61689C24.1578 2.56659 27.7979 3.98319 30.5447 6.61011C33.2924 9.23764 34.8055 12.7452 34.8055 16.4868C34.8055 18.6977 34.2857 20.8092 33.2604 22.7637L21.6583 41.6189C21.3043 42.1944 20.7304 42.2565 20.5001 42.2565C20.2699 42.2565 19.696 42.1944 19.342 41.6189L7.73973 22.7637C6.70099 20.7833 6.18119 18.6434 6.19496 16.4024ZM30.6241 46.3638C30.275 46.2132 29.8762 46.2132 29.527 46.3638L20.4999 50.2608L11.4728 46.3638C11.1236 46.2132 10.7249 46.2132 10.3757 46.3638L4.12207 49.0635L9.56003 37.9098L13.0038 36.4237L17.0252 42.9589C17.7623 44.1568 19.0612 44.872 20.4998 44.872C21.9383 44.872 23.2373 44.1568 23.9745 42.959L27.9957 36.4238L31.4398 37.9104L36.8774 49.0636L30.6241 46.3638Z" fill="#333333"/>
<path d="M26.6585 16.4869C26.6585 13.1959 23.8972 10.5184 20.5031 10.5184C17.1089 10.5184 14.3477 13.1959 14.3477 16.4869C14.3477 19.778 17.1089 22.4555 20.5031 22.4555C23.8972 22.4556 26.6585 19.7779 26.6585 16.4869ZM17.0451 16.4869C17.0451 14.638 18.5964 13.1339 20.5032 13.1339C22.41 13.1339 23.9613 14.638 23.9613 16.4869C23.9613 18.3358 22.41 19.84 20.5032 19.84C18.5965 19.84 17.0451 18.3359 17.0451 16.4869Z" fill="#333333"/>
</svg>
