<svg width="469" height="436" viewBox="0 0 469 436" fill="none" xmlns="http://www.w3.org/2000/svg">
<g filter="url(#filter0_d)">
<rect x="20" y="20" width="429" height="396" fill="white"/>
</g>
<rect x="76" y="339" width="317" height="44" stroke="#333333" stroke-width="2"/>
<path d="M109.547 366H114.209C116.421 366 117.877 365.104 117.877 363.312C117.877 361.968 117.177 361.31 116.043 360.876C116.743 360.484 117.331 359.868 117.331 358.762C117.331 358.062 117.107 357.516 116.659 357.068C116.099 356.508 115.217 356.2 114.097 356.2H109.547V366ZM111.647 360.162V358.09H113.775C114.685 358.09 115.189 358.454 115.189 359.098C115.189 359.854 114.587 360.162 113.635 360.162H111.647ZM111.647 364.11V361.954H114.139C115.245 361.954 115.735 362.36 115.735 363.018C115.735 363.774 115.161 364.11 114.209 364.11H111.647ZM118.811 366H121.009L121.905 363.802H126.049L126.945 366H129.199L124.999 356.13H123.011L118.811 366ZM122.675 361.898L123.977 358.72L125.279 361.898H122.675ZM130.711 366H132.867V363.004L134.001 361.828L137.039 366H139.629L135.457 360.358L139.447 356.2H136.843L132.867 360.484V356.2H130.711V366ZM140.098 366H142.296L143.192 363.802H147.336L148.232 366H150.486L146.286 356.13H144.298L140.098 366ZM143.962 361.898L145.264 358.72L146.566 361.898H143.962ZM151.998 366H154.154V362.066H158.13V366H160.286V356.2H158.13V360.078H154.154V356.2H151.998V366ZM167.227 366.168C169.117 366.168 170.237 365.58 171.245 364.502L169.873 363.032C169.103 363.732 168.417 364.18 167.297 364.18C165.617 364.18 164.455 362.78 164.455 361.1C164.455 359.392 165.645 358.02 167.297 358.02C168.417 358.02 169.061 358.426 169.817 359.112L171.105 357.628C170.195 356.732 169.159 356.032 167.311 356.032C164.301 356.032 162.201 358.314 162.201 361.1C162.201 363.942 164.343 366.168 167.227 366.168ZM181.413 356.2H179.411L175.099 362.626V356.2H172.971V366H175.001L179.285 359.574V366H181.413V356.2ZM192.214 356.2H190.212L185.9 362.626V356.2H183.772V366H185.802L190.086 359.574V366H192.214V356.2ZM198.77 366H203.432C205.644 366 207.1 365.104 207.1 363.312C207.1 361.968 206.4 361.31 205.266 360.876C205.966 360.484 206.554 359.868 206.554 358.762C206.554 358.062 206.33 357.516 205.882 357.068C205.322 356.508 204.44 356.2 203.32 356.2H198.77V366ZM200.87 360.162V358.09H202.998C203.908 358.09 204.412 358.454 204.412 359.098C204.412 359.854 203.81 360.162 202.858 360.162H200.87ZM200.87 364.11V361.954H203.362C204.468 361.954 204.958 362.36 204.958 363.018C204.958 363.774 204.384 364.11 203.432 364.11H200.87ZM213.071 366H215.185V359.644L217.915 363.788H217.971L220.729 359.602V366H222.871V356.2H220.547L217.971 360.344L215.395 356.2H213.071V366ZM233.667 356.2H231.665L227.353 362.626V356.2H225.225V366H227.255L231.539 359.574V366H233.667V356.2ZM237.328 356.2V358.23C237.328 363.508 236.67 364.25 235.508 364.25C235.368 364.25 235.27 364.236 235.172 364.222L235.032 366C235.298 366.07 235.816 366.126 236.166 366.126C238.406 366.126 239.344 364.656 239.344 358.888V358.146H242.172V366H244.328V356.2H237.328ZM245.836 366H248.034L248.93 363.802H253.074L253.97 366H256.224L252.024 356.13H250.036L245.836 366ZM249.7 361.898L251.002 358.72L252.304 361.898H249.7ZM257.737 366H259.893V362.066H263.869V366H266.025V356.2H263.869V360.078H259.893V356.2H257.737V366ZM268.373 366H270.529V363.004L271.663 361.828L274.701 366H277.291L273.119 360.358L277.109 356.2H274.505L270.529 360.484V356.2H268.373V366ZM283.36 366.168C286.384 366.168 288.582 363.886 288.582 361.1C288.582 358.286 286.412 356.032 283.388 356.032C280.364 356.032 278.166 358.314 278.166 361.1C278.166 363.914 280.336 366.168 283.36 366.168ZM283.388 364.18C281.652 364.18 280.42 362.78 280.42 361.1C280.42 359.392 281.624 358.02 283.36 358.02C285.096 358.02 286.328 359.42 286.328 361.1C286.328 362.808 285.124 364.18 283.388 364.18ZM295.086 366.168C296.976 366.168 298.096 365.58 299.104 364.502L297.732 363.032C296.962 363.732 296.276 364.18 295.156 364.18C293.476 364.18 292.314 362.78 292.314 361.1C292.314 359.392 293.504 358.02 295.156 358.02C296.276 358.02 296.92 358.426 297.676 359.112L298.964 357.628C298.054 356.732 297.018 356.032 295.17 356.032C292.16 356.032 290.06 358.314 290.06 361.1C290.06 363.942 292.202 366.168 295.086 366.168ZM300.83 366H302.944V359.644L305.674 363.788H305.73L308.488 359.602V366H310.63V356.2H308.306L305.73 360.344L303.154 356.2H300.83V366ZM312.985 366H320.447V364.082H315.127V362.024H319.747V360.106H315.127V358.118H320.377V356.2H312.985V366ZM324.646 366H326.802V358.188H329.784V356.2H321.664V358.188H324.646V366ZM339.884 356.2H337.882L333.57 362.626V356.2H331.442V366H333.472L337.756 359.574V366H339.884V356.2ZM342.242 366H344.398V363.004L345.532 361.828L348.57 366H351.16L346.988 360.358L350.978 356.2H348.374L344.398 360.484V356.2H342.242V366ZM357.061 366.168C358.951 366.168 360.071 365.58 361.079 364.502L359.707 363.032C358.937 363.732 358.251 364.18 357.131 364.18C355.451 364.18 354.289 362.78 354.289 361.1C354.289 359.392 355.479 358.02 357.131 358.02C358.251 358.02 358.895 358.426 359.651 359.112L360.939 357.628C360.029 356.732 358.993 356.032 357.145 356.032C354.135 356.032 352.035 358.314 352.035 361.1C352.035 363.942 354.177 366.168 357.061 366.168Z" fill="#333333"/>
<path d="M347.5 288L351.397 283.5H343.603L347.5 288Z" fill="#333333"/>
<line x1="133" y1="297.5" x2="335" y2="297.5" stroke="#333333" stroke-opacity="0.8"/>
<path d="M136.332 283.146H141.694V281.2H134.176V291H138.712C140.98 291 142.366 289.894 142.366 287.892C142.366 286.058 141.134 284.854 138.922 284.854H136.332V283.146ZM138.698 286.646C139.72 286.646 140.21 287.052 140.21 287.808C140.21 288.662 139.72 289.054 138.712 289.054H136.332V286.646H138.698ZM143.303 291H145.501L146.397 288.802H150.541L151.437 291H153.691L149.491 281.13H147.503L143.303 291ZM147.167 286.898L148.469 283.72L149.771 286.898H147.167ZM155.203 291H157.359V287.066H161.335V291H163.491V281.2H161.335V285.078H157.359V281.2H155.203V291ZM165.84 291H167.996V288.004L169.13 286.828L172.168 291H174.758L170.586 285.358L174.576 281.2H171.972L167.996 285.484V281.2H165.84V291ZM180.827 291.168C183.851 291.168 186.049 288.886 186.049 286.1C186.049 283.286 183.879 281.032 180.855 281.032C177.831 281.032 175.633 283.314 175.633 286.1C175.633 288.914 177.803 291.168 180.827 291.168ZM180.855 289.18C179.119 289.18 177.887 287.78 177.887 286.1C177.887 284.392 179.091 283.02 180.827 283.02C182.563 283.02 183.795 284.42 183.795 286.1C183.795 287.808 182.591 289.18 180.855 289.18ZM187.961 291H192.623C194.835 291 196.291 290.104 196.291 288.312C196.291 286.968 195.591 286.31 194.457 285.876C195.157 285.484 195.745 284.868 195.745 283.762C195.745 283.062 195.521 282.516 195.073 282.068C194.513 281.508 193.631 281.2 192.511 281.2H187.961V291ZM190.061 285.162V283.09H192.189C193.099 283.09 193.603 283.454 193.603 284.098C193.603 284.854 193.001 285.162 192.049 285.162H190.061ZM190.061 289.11V286.954H192.553C193.659 286.954 194.149 287.36 194.149 288.018C194.149 288.774 193.575 289.11 192.623 289.11H190.061ZM202.657 291.168C204.547 291.168 205.667 290.58 206.675 289.502L205.303 288.032C204.533 288.732 203.847 289.18 202.727 289.18C201.047 289.18 199.885 287.78 199.885 286.1C199.885 284.392 201.075 283.02 202.727 283.02C203.847 283.02 204.491 283.426 205.247 284.112L206.535 282.628C205.625 281.732 204.589 281.032 202.741 281.032C199.731 281.032 197.631 283.314 197.631 286.1C197.631 288.942 199.773 291.168 202.657 291.168ZM208.401 291H210.557V288.004L211.691 286.828L214.729 291H217.319L213.147 285.358L217.137 281.2H214.533L210.557 285.484V281.2H208.401V291ZM227.069 281.2H225.067L220.755 287.626V281.2H218.627V291H220.657L224.941 284.574V291H227.069V281.2ZM229.428 291H236.89V289.082H231.57V287.024H236.19V285.106H231.57V283.118H236.82V281.2H229.428V291ZM243.004 291H245.16V288.06H246.798C248.996 288.06 250.76 286.884 250.76 284.616C250.76 282.586 249.346 281.2 247.008 281.2H243.004V291ZM245.16 286.142V283.146H246.826C247.904 283.146 248.576 283.664 248.576 284.63C248.576 285.498 247.946 286.142 246.868 286.142H245.16ZM252.356 291H259.818V289.082H254.498V287.024H259.118V285.106H254.498V283.118H259.748V281.2H252.356V291ZM261.735 291H263.891V288.004L265.025 286.828L268.063 291H270.653L266.481 285.358L270.471 281.2H267.867L263.891 285.484V281.2H261.735V291ZM271.961 291H276.623C278.835 291 280.291 290.104 280.291 288.312C280.291 286.968 279.591 286.31 278.457 285.876C279.157 285.484 279.745 284.868 279.745 283.762C279.745 283.062 279.521 282.516 279.073 282.068C278.513 281.508 277.631 281.2 276.511 281.2H271.961V291ZM274.061 285.162V283.09H276.189C277.099 283.09 277.603 283.454 277.603 284.098C277.603 284.854 277.001 285.162 276.049 285.162H274.061ZM274.061 289.11V286.954H276.553C277.659 286.954 278.149 287.36 278.149 288.018C278.149 288.774 277.575 289.11 276.623 289.11H274.061ZM290.507 281.2H288.505L284.193 287.626V281.2H282.065V291H284.095L288.379 284.574V291H290.507V281.2ZM296.351 281.032C294.489 281.032 293.313 281.69 292.403 282.642L293.537 284.014C294.195 283.342 294.979 282.936 296.183 282.936C297.121 282.936 297.765 283.342 297.765 284.028C297.765 284.77 297.149 285.162 296.015 285.162H294.909V286.954H296.043C297.163 286.954 297.989 287.29 297.989 288.102C297.989 288.858 297.247 289.278 296.337 289.278C295.063 289.278 294.013 288.816 293.215 288.032L292.067 289.53C293.117 290.594 294.363 291.168 296.421 291.168C298.703 291.168 300.145 289.922 300.145 288.228C300.145 286.982 299.361 286.254 298.311 285.918C299.179 285.54 299.893 284.882 299.893 283.664C299.893 282.138 298.451 281.032 296.351 281.032ZM310.468 281.2H308.466L304.154 287.626V281.2H302.026V291H304.056L308.34 284.574V291H310.468V281.2ZM315.108 291H317.264V283.188H320.246V281.2H312.126V283.188H315.108V291ZM321.905 291H326.007C328.303 291 329.731 289.726 329.731 287.71C329.731 285.792 328.415 284.532 326.147 284.532H324.061V281.2H321.905V291ZM325.965 286.38C327.043 286.38 327.589 286.856 327.589 287.682C327.589 288.592 327.043 289.054 325.979 289.054H324.061V286.38H325.965ZM330.823 291H332.979V281.2H330.823V291Z" fill="#333333"/>
<path d="M101.143 289.499C100.655 289.499 100.259 289.895 100.259 290.383V303.887C100.259 303.978 100.185 304.052 100.095 304.052H75.1136C75.0224 304.052 74.9482 303.978 74.9482 303.887V278.274H80.3402C81.4062 278.274 82.2732 277.407 82.2732 276.341V270.948H100.095C100.185 270.948 100.259 271.022 100.259 271.113V273.904C100.259 274.392 100.655 274.788 101.143 274.788C101.631 274.788 102.027 274.392 102.027 273.904V271.113C102.027 270.046 101.16 269.179 100.095 269.179H81.3888C81.1543 269.179 80.9294 269.272 80.7636 269.438L73.4387 276.765C73.2729 276.93 73.1797 277.155 73.1797 277.39V303.887C73.1797 304.954 74.0472 305.821 75.1135 305.821H100.095C101.16 305.821 102.027 304.954 102.027 303.887V290.383C102.027 289.895 101.632 289.499 101.143 289.499ZM80.5048 276.341C80.5048 276.432 80.4309 276.506 80.3402 276.506H76.1991L80.5048 272.199V276.341Z" fill="#5C0F34"/>
<path d="M74.9467 278.274V278.096H74.7686V278.274H74.9467ZM82.2716 270.948V270.769H82.0935V270.948H82.2716ZM80.7621 269.438L80.6363 269.311L80.6363 269.311L80.7621 269.438ZM73.4372 276.765L73.3114 276.638L73.4372 276.765ZM102.026 290.383H101.848H102.026ZM76.1976 276.506L76.0718 276.379L75.7665 276.684H76.1976V276.506ZM80.5033 272.199H80.6814V271.768L80.3775 272.072L80.5033 272.199ZM101.142 289.32C100.556 289.32 100.079 289.796 100.079 290.383H100.436C100.436 289.994 100.751 289.678 101.142 289.678V289.32ZM100.079 290.383V303.887H100.436V290.383H100.079ZM100.079 303.887C100.079 303.88 100.085 303.874 100.093 303.874V304.231C100.283 304.231 100.436 304.076 100.436 303.887H100.079ZM100.093 303.874H75.1121V304.231H100.093V303.874ZM75.1121 303.874C75.1188 303.874 75.1249 303.879 75.1249 303.887H74.7686C74.7686 304.077 74.923 304.231 75.1121 304.231V303.874ZM75.1249 303.887V278.274H74.7686V303.887H75.1249ZM74.9467 278.453H80.3387V278.096H74.9467V278.453ZM80.3387 278.453C81.5026 278.453 82.4498 277.506 82.4498 276.341H82.0935C82.0935 277.308 81.3067 278.096 80.3387 278.096V278.453ZM82.4498 276.341V270.948H82.0935V276.341H82.4498ZM82.2716 271.126H100.093V270.769H82.2716V271.126ZM100.093 271.126C100.085 271.126 100.079 271.12 100.079 271.113H100.436C100.436 270.924 100.283 270.769 100.093 270.769V271.126ZM100.079 271.113V273.904H100.436V271.113H100.079ZM100.079 273.904C100.079 274.491 100.555 274.967 101.142 274.967V274.609C100.751 274.609 100.436 274.293 100.436 273.904H100.079ZM101.142 274.967C101.728 274.967 102.204 274.491 102.204 273.904H101.848C101.848 274.293 101.532 274.609 101.142 274.609V274.967ZM102.204 273.904V271.113H101.848V273.904H102.204ZM102.204 271.113C102.204 269.947 101.257 269 100.093 269V269.357C101.061 269.357 101.848 270.146 101.848 271.113H102.204ZM100.093 269H81.3873V269.357H100.093V269ZM81.3873 269C81.1057 269 80.8355 269.112 80.6363 269.311L80.8878 269.564C81.0203 269.432 81.1999 269.357 81.3873 269.357V269ZM80.6363 269.311L73.3114 276.638L73.563 276.891L80.8878 269.564L80.6363 269.311ZM73.3114 276.638C73.1121 276.837 73 277.108 73 277.39H73.3563C73.3563 277.203 73.4307 277.023 73.563 276.891L73.3114 276.638ZM73 277.39V303.887H73.3563V277.39H73ZM73 303.887C73 305.053 73.9478 306 75.1119 306V305.643C74.1436 305.643 73.3563 304.854 73.3563 303.887H73ZM75.1119 306H100.093V305.643H75.1119V306ZM100.093 306C101.257 306 102.204 305.053 102.204 303.887H101.848C101.848 304.854 101.061 305.643 100.093 305.643V306ZM102.204 303.887V290.383H101.848V303.887H102.204ZM102.204 290.383C102.204 289.796 101.728 289.32 101.142 289.32V289.678C101.532 289.678 101.848 289.994 101.848 290.383H102.204ZM80.3251 276.341C80.3251 276.333 80.3315 276.327 80.3387 276.327V276.684C80.5274 276.684 80.6814 276.531 80.6814 276.341H80.3251ZM80.3387 276.327H76.1976V276.684H80.3387V276.327ZM76.3234 276.632L80.6291 272.325L80.3775 272.072L76.0718 276.379L76.3234 276.632ZM80.3251 272.199V276.341H80.6814V272.199H80.3251Z" fill="#5C0F34"/>
<path d="M107.946 276.364L106.906 275.323C105.739 274.156 103.841 274.157 102.674 275.323L94.4157 283.584H80.0912C79.6029 283.584 79.207 283.98 79.207 284.468C79.207 284.957 79.6029 285.353 80.0912 285.353H92.6473L87.3255 290.676H80.0912C79.6029 290.676 79.207 291.072 79.207 291.56C79.207 292.049 79.6029 292.445 80.0912 292.445H85.557L85.5428 292.459C85.4349 292.567 85.3569 292.701 85.3161 292.848L83.9503 297.768H80.0912C79.6029 297.768 79.207 298.164 79.207 298.652C79.207 299.141 79.6029 299.537 80.0912 299.537H84.6226C84.6227 299.537 84.8164 299.515 84.8449 299.507C84.8496 299.506 90.4256 297.958 90.4256 297.958C90.5725 297.918 90.7065 297.84 90.8143 297.732L107.946 280.596C109.112 279.429 109.112 277.531 107.946 276.364ZM90.1891 295.856L87.4187 293.085L101.56 278.939L104.331 281.711L90.1891 295.856ZM86.6146 294.782L88.492 296.66L85.8929 297.382L86.6146 294.782ZM106.695 279.345L105.581 280.46L102.811 277.688L103.925 276.574C104.402 276.097 105.178 276.097 105.655 276.574L106.695 277.615C107.172 278.092 107.172 278.868 106.695 279.345Z" fill="#5C0F34"/>
<path d="M107.944 276.364L108.07 276.237V276.237L107.944 276.364ZM106.904 275.323L106.778 275.45V275.45L106.904 275.323ZM102.673 275.323L102.547 275.197V275.197L102.673 275.323ZM94.4142 283.584V283.763H94.4878L94.54 283.71L94.4142 283.584ZM92.6458 285.353L92.7716 285.479L93.0768 285.174H92.6458V285.353ZM87.324 290.676V290.855H87.3977L87.4498 290.802L87.324 290.676ZM85.5555 292.445L85.6813 292.571L85.9866 292.266H85.5555V292.445ZM85.5413 292.459L85.6671 292.586L85.5413 292.459ZM85.3145 292.848L85.1429 292.8L85.1429 292.8L85.3145 292.848ZM83.9488 297.768V297.947H84.0842L84.1205 297.816L83.9488 297.768ZM84.8434 299.507L84.8883 299.68H84.8884L84.8434 299.507ZM90.4241 297.958L90.4716 298.131L90.4241 297.958ZM90.8128 297.732L90.687 297.605L90.8128 297.732ZM107.944 280.596L108.07 280.723V280.723L107.944 280.596ZM90.1876 295.856L90.0618 295.982L90.1876 296.108L90.3135 295.982L90.1876 295.856ZM87.4172 293.085L87.2914 292.958L87.1648 293.085L87.2914 293.211L87.4172 293.085ZM101.559 278.939L101.685 278.813L101.559 278.687L101.433 278.813L101.559 278.939ZM104.329 281.711L104.455 281.837L104.582 281.711L104.455 281.584L104.329 281.711ZM86.6131 294.782L86.7389 294.655L86.5232 294.439L86.4415 294.734L86.6131 294.782ZM88.4905 296.66L88.5381 296.832L88.8331 296.75L88.6163 296.533L88.4905 296.66ZM85.8914 297.382L85.7197 297.334L85.6352 297.638L85.9389 297.554L85.8914 297.382ZM106.694 279.345L106.568 279.219V279.219L106.694 279.345ZM105.58 280.46L105.454 280.586L105.58 280.712L105.705 280.586L105.58 280.46ZM102.809 277.688L102.683 277.562L102.557 277.688L102.683 277.815L102.809 277.688ZM105.653 276.574L105.528 276.701V276.701L105.653 276.574ZM106.694 277.615L106.568 277.741V277.741L106.694 277.615ZM108.07 276.237L107.03 275.197L106.778 275.45L107.819 276.49L108.07 276.237ZM107.03 275.197C105.794 273.96 103.783 273.96 102.547 275.197L102.799 275.45C103.896 274.353 105.681 274.353 106.778 275.45L107.03 275.197ZM102.547 275.197L94.2884 283.457L94.54 283.71L102.799 275.45L102.547 275.197ZM94.4142 283.405H80.0897V283.763H94.4142V283.405ZM80.0897 283.405C79.5035 283.405 79.0273 283.881 79.0273 284.468H79.3837C79.3837 284.079 79.6993 283.763 80.0897 283.763V283.405ZM79.0273 284.468C79.0273 285.056 79.5035 285.532 80.0897 285.532V285.174C79.6993 285.174 79.3837 284.858 79.3837 284.468H79.0273ZM80.0897 285.532H92.6458V285.174H80.0897V285.532ZM92.5199 285.226L87.1982 290.549L87.4498 290.802L92.7716 285.479L92.5199 285.226ZM87.324 290.497H80.0897V290.855H87.324V290.497ZM80.0897 290.497C79.5035 290.497 79.0273 290.973 79.0273 291.56H79.3837C79.3837 291.171 79.6993 290.855 80.0897 290.855V290.497ZM79.0273 291.56C79.0273 292.148 79.5035 292.624 80.0897 292.624V292.266C79.6993 292.266 79.3837 291.95 79.3837 291.56H79.0273ZM80.0897 292.624H85.5555V292.266H80.0897V292.624ZM85.4297 292.318L85.4155 292.332L85.6671 292.586L85.6813 292.571L85.4297 292.318ZM85.4155 292.332C85.2924 292.458 85.1913 292.631 85.1429 292.8L85.4862 292.896C85.5195 292.77 85.5744 292.676 85.6671 292.586L85.4155 292.332ZM85.1429 292.8L83.7772 297.72L84.1205 297.816L85.4862 292.896L85.1429 292.8ZM83.9488 297.589H80.0897V297.947H83.9488V297.589ZM80.0897 297.589C79.5035 297.589 79.0273 298.065 79.0273 298.652H79.3837C79.3837 298.263 79.6993 297.947 80.0897 297.947V297.589ZM79.0273 298.652C79.0273 299.24 79.5035 299.715 80.0897 299.715V299.358C79.6993 299.358 79.3837 299.042 79.3837 298.652H79.0273ZM80.0897 299.715H84.6211V299.358H80.0897V299.715ZM84.6211 299.715C84.6295 299.715 84.6386 299.715 84.6393 299.715C84.6396 299.714 84.64 299.714 84.6402 299.714C84.6403 299.714 84.6406 299.714 84.6406 299.714C84.6407 299.714 84.6409 299.714 84.641 299.714C84.6411 299.714 84.6413 299.714 84.6415 299.714C84.6419 299.714 84.6426 299.714 84.6433 299.714C84.6448 299.714 84.6469 299.714 84.6497 299.713C84.6551 299.713 84.663 299.712 84.6724 299.711C84.6912 299.709 84.7169 299.706 84.7433 299.702C84.7869 299.697 84.8593 299.688 84.8883 299.68L84.7985 299.334C84.8037 299.333 84.7982 299.334 84.7721 299.338C84.7509 299.341 84.7255 299.344 84.6999 299.347C84.6743 299.351 84.6498 299.354 84.6313 299.356C84.6221 299.357 84.6146 299.358 84.6093 299.358C84.6067 299.359 84.6047 299.359 84.6033 299.359C84.6026 299.359 84.6021 299.359 84.6018 299.359C84.6016 299.359 84.6015 299.359 84.6015 299.359C84.6015 299.359 84.6017 299.359 84.6016 299.359C84.6016 299.359 84.6022 299.359 84.602 299.359C84.6022 299.359 84.6026 299.359 84.6028 299.359C84.6036 299.359 84.6127 299.358 84.6211 299.358V299.715ZM84.8884 299.68C84.8919 299.679 86.2884 299.292 87.683 298.905C88.3803 298.711 89.0774 298.518 89.6003 298.373C89.8617 298.3 90.0795 298.24 90.232 298.197C90.3082 298.176 90.3682 298.159 90.409 298.148C90.4294 298.143 90.4451 298.138 90.4557 298.135C90.4609 298.134 90.4649 298.133 90.4676 298.132C90.4689 298.132 90.4699 298.131 90.4706 298.131C90.4709 298.131 90.4712 298.131 90.4713 298.131C90.4714 298.131 90.4715 298.131 90.4715 298.131C90.4716 298.131 90.4716 298.131 90.4241 297.958C90.3766 297.786 90.3766 297.786 90.3766 297.786C90.3765 297.786 90.3765 297.786 90.3764 297.786C90.3762 297.786 90.3759 297.786 90.3756 297.787C90.3749 297.787 90.3739 297.787 90.3725 297.787C90.3699 297.788 90.3659 297.789 90.3606 297.791C90.3501 297.794 90.3344 297.798 90.314 297.804C90.2731 297.815 90.2133 297.832 90.137 297.853C89.9845 297.895 89.7667 297.956 89.5053 298.028C88.9825 298.173 88.2853 298.367 87.588 298.56C86.1934 298.947 84.7974 299.335 84.7984 299.334L84.8884 299.68ZM90.4716 298.131C90.6402 298.082 90.8136 297.981 90.9386 297.858L90.687 297.605C90.5964 297.698 90.502 297.753 90.3766 297.786L90.4716 298.131ZM90.9386 297.858L108.07 280.723L107.819 280.469L90.687 297.605L90.9386 297.858ZM108.07 280.723C109.306 279.486 109.306 277.474 108.07 276.237L107.819 276.49C108.915 277.587 108.915 279.373 107.819 280.469L108.07 280.723ZM90.3135 295.729L87.543 292.958L87.2914 293.211L90.0618 295.982L90.3135 295.729ZM87.543 293.211L101.685 279.066L101.433 278.813L87.2914 292.958L87.543 293.211ZM101.433 279.066L104.203 281.837L104.455 281.584L101.685 278.813L101.433 279.066ZM104.203 281.584L90.0618 295.729L90.3135 295.982L104.455 281.837L104.203 281.584ZM86.4873 294.908L88.3647 296.786L88.6163 296.533L86.7389 294.655L86.4873 294.908ZM88.443 296.488L85.8438 297.209L85.9389 297.554L88.5381 296.832L88.443 296.488ZM86.063 297.43L86.7847 294.83L86.4415 294.734L85.7197 297.334L86.063 297.43ZM106.568 279.219L105.454 280.333L105.705 280.586L106.82 279.472L106.568 279.219ZM105.705 280.333L102.935 277.562L102.683 277.815L105.454 280.586L105.705 280.333ZM102.935 277.815L104.049 276.701L103.797 276.447L102.683 277.562L102.935 277.815ZM104.049 276.701C104.457 276.293 105.12 276.293 105.528 276.701L105.779 276.447C105.233 275.901 104.344 275.901 103.797 276.447L104.049 276.701ZM105.528 276.701L106.568 277.741L106.82 277.488L105.779 276.447L105.528 276.701ZM106.568 277.741C106.975 278.149 106.975 278.811 106.568 279.219L106.82 279.472C107.367 278.925 107.367 278.035 106.82 277.488L106.568 277.741Z" fill="#5C0F34"/>
<line x1="133" y1="234.5" x2="341" y2="234.5" stroke="#333333" stroke-opacity="0.8"/>
<path d="M134.274 228H136.43V218.2H134.274V228ZM138.879 228H141.007V221.77L145.753 228H147.587V218.2H145.459V224.234L140.867 218.2H138.879V228ZM149.94 228H152.096V224.206H156.772V222.246H152.096V220.16H157.402V218.2H149.94V228ZM163.887 228.168C166.911 228.168 169.109 225.886 169.109 223.1C169.109 220.286 166.939 218.032 163.915 218.032C160.891 218.032 158.693 220.314 158.693 223.1C158.693 225.914 160.863 228.168 163.887 228.168ZM163.915 226.18C162.179 226.18 160.947 224.78 160.947 223.1C160.947 221.392 162.151 220.02 163.887 220.02C165.623 220.02 166.855 221.42 166.855 223.1C166.855 224.808 165.651 226.18 163.915 226.18ZM176.832 230.268C178.288 230.268 179.464 229.876 180.542 229.218L180.262 228.77C179.212 229.386 178.218 229.708 176.832 229.708C173.528 229.708 171.176 227.244 171.176 224.164C171.176 221.098 173.556 218.592 176.72 218.592C179.87 218.592 182.236 220.986 182.236 223.576C182.236 225.438 181.452 226.432 180.458 226.432C179.814 226.432 179.436 226.054 179.436 225.55C179.436 225.438 179.45 225.256 179.478 225.116L180.136 221.35L178.484 221.084L178.33 221.826C177.938 221.294 177.364 220.874 176.398 220.874C174.76 220.874 173.262 222.414 173.262 224.388C173.262 226.054 174.396 227.09 175.824 227.09C176.734 227.09 177.42 226.684 177.896 226.25C178.246 226.656 178.904 227.09 180.038 227.09C181.578 227.09 182.824 225.914 182.824 223.576C182.824 220.706 180.15 218.032 176.72 218.032C173.29 218.032 170.588 220.818 170.588 224.164C170.588 227.51 173.248 230.268 176.832 230.268ZM176.314 225.648C175.544 225.648 174.998 225.158 174.998 224.29C174.998 223.17 175.768 222.316 176.678 222.316C177.434 222.316 177.98 222.834 177.98 223.632C177.98 224.78 177.196 225.648 176.314 225.648ZM184.748 228H186.862V221.644L189.592 225.788H189.648L192.406 221.602V228H194.548V218.2H192.224L189.648 222.344L187.072 218.2H184.748V228ZM197.001 228H199.157V218.2H197.001V228ZM201.606 228H208.648V226.04H203.762V218.2H201.606V228ZM209.434 228H211.632L212.528 225.802H216.672L217.568 228H219.822L215.622 218.13H213.634L209.434 228ZM213.298 223.898L214.6 220.72L215.902 223.898H213.298ZM221.334 228H223.462V221.77L228.208 228H230.042V218.2H227.914V224.234L223.322 218.2H221.334V228ZM236.987 228.168C238.877 228.168 239.997 227.58 241.005 226.502L239.633 225.032C238.863 225.732 238.177 226.18 237.057 226.18C235.377 226.18 234.215 224.78 234.215 223.1C234.215 221.392 235.405 220.02 237.057 220.02C238.177 220.02 238.821 220.426 239.577 221.112L240.865 219.628C239.955 218.732 238.919 218.032 237.071 218.032C234.061 218.032 231.961 220.314 231.961 223.1C231.961 225.942 234.103 228.168 236.987 228.168ZM247.217 228.168C250.241 228.168 252.439 225.886 252.439 223.1C252.439 220.286 250.269 218.032 247.245 218.032C244.221 218.032 242.023 220.314 242.023 223.1C242.023 225.914 244.193 228.168 247.217 228.168ZM247.245 226.18C245.509 226.18 244.277 224.78 244.277 223.1C244.277 221.392 245.481 220.02 247.217 220.02C248.953 220.02 250.185 221.42 250.185 223.1C250.185 224.808 248.981 226.18 247.245 226.18ZM257.769 228.14C259.883 228.14 261.367 227.048 261.367 225.102C261.367 223.366 260.247 222.652 258.259 222.134C256.565 221.7 256.145 221.49 256.145 220.846C256.145 220.342 256.579 219.964 257.405 219.964C258.231 219.964 259.085 220.328 259.953 220.93L261.073 219.306C260.079 218.508 258.861 218.06 257.433 218.06C255.431 218.06 254.003 219.236 254.003 221.014C254.003 222.988 255.277 223.534 257.251 224.038C258.889 224.458 259.225 224.738 259.225 225.284C259.225 225.886 258.693 226.236 257.811 226.236C256.691 226.236 255.767 225.774 254.885 225.046L253.611 226.572C254.787 227.622 256.285 228.14 257.769 228.14ZM263.239 228H265.353V221.644L268.083 225.788H268.139L270.897 221.602V228H273.039V218.2H270.715L268.139 222.344L265.562 218.2H263.239V228ZM275.393 228H282.855V226.082H277.535V224.024H282.155V222.106H277.535V220.118H282.785V218.2H275.393V228ZM287.054 228H289.21V220.188H292.192V218.2H284.072V220.188H287.054V228ZM293.948 228H296.104V218.2H293.948V228ZM303.145 228.168C305.035 228.168 306.155 227.58 307.163 226.502L305.791 225.032C305.021 225.732 304.335 226.18 303.215 226.18C301.535 226.18 300.373 224.78 300.373 223.1C300.373 221.392 301.563 220.02 303.215 220.02C304.335 220.02 304.979 220.426 305.735 221.112L307.023 219.628C306.113 218.732 305.077 218.032 303.229 218.032C300.219 218.032 298.119 220.314 298.119 223.1C298.119 225.942 300.261 228.168 303.145 228.168ZM312.375 228.14C314.489 228.14 315.973 227.048 315.973 225.102C315.973 223.366 314.853 222.652 312.865 222.134C311.171 221.7 310.751 221.49 310.751 220.846C310.751 220.342 311.185 219.964 312.011 219.964C312.837 219.964 313.691 220.328 314.559 220.93L315.679 219.306C314.685 218.508 313.467 218.06 312.039 218.06C310.037 218.06 308.609 219.236 308.609 221.014C308.609 222.988 309.883 223.534 311.857 224.038C313.495 224.458 313.831 224.738 313.831 225.284C313.831 225.886 313.299 226.236 312.417 226.236C311.297 226.236 310.373 225.774 309.491 225.046L308.217 226.572C309.393 227.622 310.891 228.14 312.375 228.14ZM317.536 228H319.804V225.76H317.536V228ZM321.85 228H326.512C328.724 228 330.18 227.104 330.18 225.312C330.18 223.968 329.48 223.31 328.346 222.876C329.046 222.484 329.634 221.868 329.634 220.762C329.634 220.062 329.41 219.516 328.962 219.068C328.402 218.508 327.52 218.2 326.4 218.2H321.85V228ZM323.95 222.162V220.09H326.078C326.988 220.09 327.492 220.454 327.492 221.098C327.492 221.854 326.89 222.162 325.938 222.162H323.95ZM323.95 226.11V223.954H326.442C327.548 223.954 328.038 224.36 328.038 225.018C328.038 225.774 327.464 226.11 326.512 226.11H323.95ZM334.288 228H336.444V224.094L340.21 218.2H337.76L335.38 222.134L333.042 218.2H330.522L334.288 224.136V228Z" fill="#333333"/>
<path d="M108.778 213.359C108.776 212.17 107.844 211.205 106.698 211.205C106.697 211.205 106.696 211.205 106.695 211.205L70.2764 211.257C69.7208 211.257 69.1987 211.482 68.8063 211.89C68.4141 212.299 68.1985 212.841 68.1992 213.417L68.2274 234.641C68.2281 235.217 68.4452 235.759 68.8385 236.166C69.2312 236.572 69.7527 236.795 70.3073 236.795C70.3082 236.795 70.3093 236.795 70.3101 236.795L106.729 236.743C107.876 236.742 108.807 235.773 108.806 234.583L108.778 213.359ZM95.2318 227L104.667 234.589L72.3109 234.635L81.804 227C82.2578 226.635 82.3405 225.957 81.9885 225.486C81.6365 225.016 80.9832 224.93 80.5293 225.295L70.3057 233.518L70.2803 214.396L87.9144 227.035C88.0925 227.162 88.299 227.226 88.5058 227.226C88.7133 227.226 88.9211 227.162 89.0994 227.033L106.699 214.344L106.726 233.515L96.5064 225.295C96.0527 224.93 95.3993 225.016 95.0472 225.487C94.6952 225.957 94.7778 226.635 95.2318 227ZM72.5644 213.411L104.413 213.365L88.5041 224.835L72.5644 213.411Z" fill="#333333"/>
<path d="M108.775 213.359L108.972 213.359V213.359L108.775 213.359ZM106.693 211.205V211L106.692 211L106.693 211.205ZM70.2738 211.257L70.274 211.461H70.274L70.2738 211.257ZM68.8037 211.89L68.6648 211.746L68.6648 211.746L68.8037 211.89ZM68.1966 213.417L68 213.417V213.417L68.1966 213.417ZM68.2248 234.641L68.4214 234.641L68.2248 234.641ZM68.8359 236.166L68.6974 236.311L68.8359 236.166ZM70.3075 236.795V237H70.3077L70.3075 236.795ZM106.726 236.743L106.727 236.948L106.726 236.743ZM108.803 234.583L109 234.583L108.803 234.583ZM95.2292 227L95.3494 226.838L95.2292 227ZM104.665 234.589L104.665 234.794L105.24 234.793L104.785 234.427L104.665 234.589ZM72.3083 234.635L72.1881 234.473L71.7311 234.841L72.3086 234.84L72.3083 234.635ZM81.8014 227L81.9217 227.162L81.8014 227ZM81.9859 225.487L82.1411 225.361L81.9859 225.487ZM80.5267 225.295L80.4065 225.133L80.5267 225.295ZM70.3031 233.518L70.1065 233.518L70.107 233.935L70.4233 233.68L70.3031 233.518ZM70.2777 214.396L70.3892 214.227L70.0806 214.006L70.0811 214.396L70.2777 214.396ZM87.9119 227.035L88.0234 226.866H88.0233L87.9119 227.035ZM89.0968 227.033L89.2087 227.202L89.2088 227.201L89.0968 227.033ZM106.697 214.344L106.893 214.344L106.893 213.954L106.585 214.176L106.697 214.344ZM106.723 233.515L106.603 233.677L106.921 233.932L106.92 233.515L106.723 233.515ZM96.5038 225.295L96.3835 225.457L96.5038 225.295ZM95.0446 225.487L95.1998 225.612L95.0446 225.487ZM72.5618 213.411L72.5615 213.206L71.9306 213.207L72.4503 213.579L72.5618 213.411ZM104.411 213.365L104.522 213.533L105.041 213.16L104.41 213.16L104.411 213.365ZM88.5015 224.835L88.39 225.004L88.5019 225.084L88.6135 225.003L88.5015 224.835ZM108.972 213.359C108.97 212.056 107.949 211 106.695 211V211.409C107.733 211.409 108.577 212.284 108.579 213.359L108.972 213.359ZM106.695 211C106.694 211 106.693 211 106.693 211V211.409C106.693 211.409 106.694 211.409 106.695 211.409V211ZM106.692 211L70.2735 211.052L70.274 211.461L106.693 211.409L106.692 211ZM70.2735 211.052C69.666 211.053 69.094 211.299 68.6648 211.746L68.9427 212.035C69.2982 211.666 69.7703 211.462 70.274 211.461L70.2735 211.052ZM68.6648 211.746C68.2356 212.192 67.9992 212.786 68 213.417L68.3932 213.416C68.3926 212.895 68.5873 212.405 68.9427 212.035L68.6648 211.746ZM68 213.417L68.0282 234.641L68.4214 234.641L68.3932 213.416L68 213.417ZM68.0282 234.641C68.0289 235.272 68.267 235.866 68.6974 236.311L68.9745 236.02C68.6181 235.652 68.422 235.162 68.4214 234.641L68.0282 234.641ZM68.6974 236.311C69.127 236.755 69.6983 237 70.3047 237V236.591C69.8019 236.591 69.3302 236.388 68.9745 236.02L68.6974 236.311ZM70.3047 237C70.3056 237 70.3067 237 70.3075 237V236.591C70.3067 236.591 70.3056 236.591 70.3047 236.591V237ZM70.3077 237L106.727 236.948L106.726 236.539L70.3072 236.591L70.3077 237ZM106.727 236.948C107.981 236.946 109.001 235.886 109 234.583L108.607 234.584C108.608 235.659 107.765 236.537 106.726 236.539L106.727 236.948ZM109 234.583L108.972 213.359L108.579 213.359L108.607 234.584L109 234.583ZM95.1089 227.162L104.545 234.751L104.785 234.427L95.3494 226.838L95.1089 227.162ZM104.664 234.384L72.308 234.431L72.3086 234.84L104.665 234.794L104.664 234.384ZM72.4285 234.797L81.9217 227.162L81.6813 226.838L72.1881 234.473L72.4285 234.797ZM81.9217 227.162C82.4615 226.728 82.56 225.921 82.1411 225.361L81.8307 225.612C82.1157 225.993 82.0491 226.542 81.6812 226.838L81.9217 227.162ZM82.1411 225.361C81.7224 224.801 80.946 224.699 80.4065 225.133L80.6469 225.457C81.0152 225.161 81.5453 225.231 81.8308 225.612L82.1411 225.361ZM80.4065 225.133L70.1829 233.356L70.4233 233.68L80.6469 225.457L80.4065 225.133ZM70.4997 233.518L70.4743 214.396L70.0811 214.396L70.1065 233.518L70.4997 233.518ZM70.1662 214.564L87.8004 227.204L88.0233 226.866L70.3892 214.227L70.1662 214.564ZM87.8004 227.204C88.0052 227.347 88.2683 227.429 88.5032 227.431V227.021C88.3247 227.024 88.1745 226.978 88.0234 226.866L87.8004 227.204ZM88.5032 227.431C88.739 227.429 89.0035 227.346 89.2087 227.202L88.9849 226.865C88.8333 226.977 88.6823 227.024 88.5032 227.021V227.431ZM89.2088 227.201L106.809 214.512L106.585 214.176L88.9848 226.865L89.2088 227.201ZM106.5 214.344L106.527 233.515L106.92 233.515L106.893 214.344L106.5 214.344ZM106.844 233.353L96.6239 225.133L96.3835 225.457L106.603 233.677L106.844 233.353ZM96.624 225.133C96.0849 224.699 95.3081 224.801 94.8895 225.361L95.1998 225.612C95.4852 225.231 96.0155 225.161 96.3835 225.457L96.624 225.133ZM94.8896 225.361C94.4705 225.921 94.569 226.728 95.1089 227.162L95.3494 226.838C94.9814 226.542 94.9148 225.993 95.1998 225.612L94.8896 225.361ZM72.5621 213.615L104.411 213.57L104.41 213.16L72.5615 213.206L72.5621 213.615ZM104.299 213.197L88.3896 224.667L88.6135 225.003L104.522 213.533L104.299 213.197ZM88.613 224.666L72.6733 213.242L72.4503 213.579L88.39 225.004L88.613 224.666Z" fill="#333333"/>
<path d="M136.486 149.558H138.474V147.038H141.008V145.106H138.474V142.586H136.486V145.106H133.952V147.038H136.486V149.558ZM146.309 151.168C148.493 151.168 149.837 149.81 149.837 147.962C149.837 146.114 148.535 145.414 147.205 145.19L149.683 142.824V141.2H143.061V143.048H146.911L144.573 145.4L144.909 146.772H145.805C147.009 146.772 147.723 147.22 147.723 148.018C147.723 148.774 147.149 149.236 146.337 149.236C145.343 149.236 144.643 148.816 143.971 148.06L142.487 149.474C143.327 150.468 144.545 151.168 146.309 151.168ZM151.553 151H153.989L158.385 142.824V141.2H151.329V143.062H155.935L151.553 151ZM162.959 151.168C165.213 151.168 166.683 149.852 166.683 147.78C166.683 145.54 165.157 144.616 163.253 144.616C162.707 144.616 162.357 144.686 161.965 144.784L162.077 143.09H166.249V141.2H160.229L159.949 146.03L161.195 146.856C161.657 146.66 162.217 146.492 162.833 146.492C163.855 146.492 164.569 146.982 164.569 147.822C164.569 148.718 163.939 149.208 162.931 149.208C162.063 149.208 161.335 148.816 160.593 148.144L159.291 149.698C160.243 150.608 161.391 151.168 162.959 151.168ZM176.409 152.974L177.347 151.56C175.457 150.244 174.645 148.956 174.645 146.982C174.645 145.008 175.457 143.72 177.347 142.404L176.409 140.99C173.833 142.39 172.531 144.294 172.531 146.982C172.531 149.67 173.833 151.574 176.409 152.974ZM180.431 151H182.559V141.13H181.089L178.275 141.97L178.723 143.734L180.431 143.314V151ZM185.022 151H187.458L191.854 142.824V141.2H184.798V143.062H189.404L185.022 151ZM194.04 152.974C196.616 151.574 197.918 149.67 197.918 146.982C197.918 144.294 196.616 142.39 194.04 140.99L193.102 142.404C194.992 143.72 195.804 145.008 195.804 146.982C195.804 148.956 194.992 150.244 193.102 151.56L194.04 152.974ZM207.299 151.168C209.483 151.168 210.827 149.81 210.827 147.962C210.827 146.114 209.525 145.414 208.195 145.19L210.673 142.824V141.2H204.051V143.048H207.901L205.563 145.4L205.899 146.772H206.795C207.999 146.772 208.713 147.22 208.713 148.018C208.713 148.774 208.139 149.236 207.327 149.236C206.333 149.236 205.633 148.816 204.961 148.06L203.477 149.474C204.317 150.468 205.535 151.168 207.299 151.168ZM212.543 151H214.979L219.375 142.824V141.2H212.319V143.062H216.925L212.543 151ZM221.211 151H223.647L228.043 142.824V141.2H220.987V143.062H225.593L221.211 151ZM228.979 147.682H233.291V145.638H228.979V147.682ZM238.404 151.14C240.574 151.14 242.184 150.076 242.184 148.256C242.184 147.066 241.596 146.436 240.602 145.918C241.358 145.456 241.848 144.826 241.848 143.776C241.848 142.236 240.476 141.06 238.404 141.06C236.332 141.06 234.96 142.25 234.96 143.748C234.96 144.826 235.45 145.456 236.206 145.918C235.17 146.394 234.624 147.094 234.624 148.284C234.624 150.02 236.234 151.14 238.404 151.14ZM238.404 145.204C237.55 145.204 237.004 144.686 237.004 144C237.004 143.37 237.522 142.838 238.404 142.838C239.286 142.838 239.804 143.384 239.804 143.986C239.804 144.7 239.258 145.204 238.404 145.204ZM238.404 149.362C237.34 149.362 236.71 148.816 236.71 148.144C236.71 147.36 237.424 146.912 238.404 146.912C239.384 146.912 240.098 147.36 240.098 148.116C240.098 148.83 239.468 149.362 238.404 149.362ZM247.223 151.14C249.393 151.14 251.003 150.076 251.003 148.256C251.003 147.066 250.415 146.436 249.421 145.918C250.177 145.456 250.667 144.826 250.667 143.776C250.667 142.236 249.295 141.06 247.223 141.06C245.151 141.06 243.779 142.25 243.779 143.748C243.779 144.826 244.269 145.456 245.025 145.918C243.989 146.394 243.443 147.094 243.443 148.284C243.443 150.02 245.053 151.14 247.223 151.14ZM247.223 145.204C246.369 145.204 245.823 144.686 245.823 144C245.823 143.37 246.341 142.838 247.223 142.838C248.105 142.838 248.623 143.384 248.623 143.986C248.623 144.7 248.077 145.204 247.223 145.204ZM247.223 149.362C246.159 149.362 245.529 148.816 245.529 148.144C245.529 147.36 246.243 146.912 247.223 146.912C248.203 146.912 248.917 147.36 248.917 148.116C248.917 148.83 248.287 149.362 247.223 149.362ZM252.331 147.682H256.643V145.638H252.331V147.682ZM261.574 151.168C264.36 151.168 265.858 148.998 265.858 145.82C265.858 143.86 265.396 142.796 264.696 142.096C263.954 141.354 263.184 141.032 261.868 141.032C259.656 141.032 258.13 142.488 258.13 144.462C258.13 146.478 259.502 147.654 261.63 147.654C262.484 147.654 263.142 147.388 263.618 146.982C263.478 148.298 262.834 149.208 261.63 149.208C260.804 149.208 260.202 148.942 259.488 148.368L258.354 150.006C259.18 150.692 260.146 151.168 261.574 151.168ZM261.98 145.862C260.916 145.862 260.272 145.26 260.272 144.392C260.272 143.496 260.874 142.88 261.938 142.88C263.016 142.88 263.66 143.51 263.66 144.378C263.66 145.246 263.044 145.862 261.98 145.862ZM267.655 151H270.091L274.487 142.824V141.2H267.431V143.062H272.037L267.655 151ZM136.486 170.558H138.474V168.038H141.008V166.106H138.474V163.586H136.486V166.106H133.952V168.038H136.486V170.558ZM146.309 172.168C148.493 172.168 149.837 170.81 149.837 168.962C149.837 167.114 148.535 166.414 147.205 166.19L149.683 163.824V162.2H143.061V164.048H146.911L144.573 166.4L144.909 167.772H145.805C147.009 167.772 147.723 168.22 147.723 169.018C147.723 169.774 147.149 170.236 146.337 170.236C145.343 170.236 144.643 169.816 143.971 169.06L142.487 170.474C143.327 171.468 144.545 172.168 146.309 172.168ZM151.553 172H153.989L158.385 163.824V162.2H151.329V164.062H155.935L151.553 172ZM162.959 172.168C165.213 172.168 166.683 170.852 166.683 168.78C166.683 166.54 165.157 165.616 163.253 165.616C162.707 165.616 162.357 165.686 161.965 165.784L162.077 164.09H166.249V162.2H160.229L159.949 167.03L161.195 167.856C161.657 167.66 162.217 167.492 162.833 167.492C163.855 167.492 164.569 167.982 164.569 168.822C164.569 169.718 163.939 170.208 162.931 170.208C162.063 170.208 161.335 169.816 160.593 169.144L159.291 170.698C160.243 171.608 161.391 172.168 162.959 172.168ZM176.409 173.974L177.347 172.56C175.457 171.244 174.645 169.956 174.645 167.982C174.645 166.008 175.457 164.72 177.347 163.404L176.409 161.99C173.833 163.39 172.531 165.294 172.531 167.982C172.531 170.67 173.833 172.574 176.409 173.974ZM178.625 172H185.877V170.138H181.607L183.203 168.906C184.939 167.562 185.779 166.75 185.779 165.112C185.779 163.25 184.435 162.06 182.405 162.06C180.655 162.06 179.717 162.774 178.751 164.09L180.263 165.308C180.991 164.412 181.509 163.992 182.265 163.992C183.035 163.992 183.581 164.44 183.581 165.266C183.581 166.078 183.105 166.61 181.887 167.618L178.625 170.292V172ZM190.89 172.168C193.676 172.168 195.174 169.998 195.174 166.82C195.174 164.86 194.712 163.796 194.012 163.096C193.27 162.354 192.5 162.032 191.184 162.032C188.972 162.032 187.446 163.488 187.446 165.462C187.446 167.478 188.818 168.654 190.946 168.654C191.8 168.654 192.458 168.388 192.934 167.982C192.794 169.298 192.15 170.208 190.946 170.208C190.12 170.208 189.518 169.942 188.804 169.368L187.67 171.006C188.496 171.692 189.462 172.168 190.89 172.168ZM191.296 166.862C190.232 166.862 189.588 166.26 189.588 165.392C189.588 164.496 190.19 163.88 191.254 163.88C192.332 163.88 192.976 164.51 192.976 165.378C192.976 166.246 192.36 166.862 191.296 166.862ZM197.458 173.974C200.034 172.574 201.336 170.67 201.336 167.982C201.336 165.294 200.034 163.39 197.458 161.99L196.52 163.404C198.41 164.72 199.222 166.008 199.222 167.982C199.222 169.956 198.41 171.244 196.52 172.56L197.458 173.974ZM210.717 172.168C212.901 172.168 214.245 170.81 214.245 168.962C214.245 167.114 212.943 166.414 211.613 166.19L214.091 163.824V162.2H207.469V164.048H211.319L208.981 166.4L209.317 167.772H210.213C211.417 167.772 212.131 168.22 212.131 169.018C212.131 169.774 211.557 170.236 210.745 170.236C209.751 170.236 209.051 169.816 208.379 169.06L206.895 170.474C207.735 171.468 208.953 172.168 210.717 172.168ZM220.631 172H222.689V169.886H224.005V168.136H222.689V162.13H220.869L215.493 168.36L215.843 169.886H220.631V172ZM218.027 168.136L220.631 165.084V168.136H218.027ZM225.463 172H227.899L232.295 163.824V162.2H225.239V164.062H229.845L225.463 172ZM233.231 168.682H237.543V166.638H233.231V168.682ZM243.342 172.168C245.96 172.168 247.71 169.942 247.71 167.1C247.71 164.23 245.96 162.032 243.37 162.032C240.766 162.032 239.002 164.258 239.002 167.1C239.002 169.97 240.724 172.168 243.342 172.168ZM243.37 170.222C242.068 170.222 241.214 168.892 241.214 167.1C241.214 165.28 242.054 163.978 243.342 163.978C244.63 163.978 245.498 165.322 245.498 167.1C245.498 168.906 244.672 170.222 243.37 170.222ZM253.569 172.168C256.187 172.168 257.937 169.942 257.937 167.1C257.937 164.23 256.187 162.032 253.597 162.032C250.993 162.032 249.229 164.258 249.229 167.1C249.229 169.97 250.951 172.168 253.569 172.168ZM253.597 170.222C252.295 170.222 251.441 168.892 251.441 167.1C251.441 165.28 252.281 163.978 253.569 163.978C254.857 163.978 255.725 165.322 255.725 167.1C255.725 168.906 254.899 170.222 253.597 170.222ZM259.399 168.682H263.711V166.638H259.399V168.682ZM268.642 172.168C271.428 172.168 272.926 169.998 272.926 166.82C272.926 164.86 272.464 163.796 271.764 163.096C271.022 162.354 270.252 162.032 268.936 162.032C266.724 162.032 265.198 163.488 265.198 165.462C265.198 167.478 266.57 168.654 268.698 168.654C269.552 168.654 270.21 168.388 270.686 167.982C270.546 169.298 269.902 170.208 268.698 170.208C267.872 170.208 267.27 169.942 266.556 169.368L265.422 171.006C266.248 171.692 267.214 172.168 268.642 172.168ZM269.048 166.862C267.984 166.862 267.34 166.26 267.34 165.392C267.34 164.496 267.942 163.88 269.006 163.88C270.084 163.88 270.728 164.51 270.728 165.378C270.728 166.246 270.112 166.862 269.048 166.862ZM278.78 172.168C281.398 172.168 283.148 169.942 283.148 167.1C283.148 164.23 281.398 162.032 278.808 162.032C276.204 162.032 274.44 164.258 274.44 167.1C274.44 169.97 276.162 172.168 278.78 172.168ZM278.808 170.222C277.506 170.222 276.652 168.892 276.652 167.1C276.652 165.28 277.492 163.978 278.78 163.978C280.068 163.978 280.936 165.322 280.936 167.1C280.936 168.906 280.11 170.222 278.808 170.222Z" fill="#333333"/>
<path d="M99.4157 161.043C98.4565 160.084 96.8961 160.084 95.9368 161.043L93.8474 163.132C93.1927 163.787 92.9858 164.721 93.2248 165.554L92.4364 166.342C92.4362 166.342 92.436 166.342 92.4358 166.343C91.8759 166.903 88.3892 166.043 84.1744 161.829C79.9604 157.616 79.1 154.13 79.6598 153.57C79.6598 153.57 79.66 153.57 79.66 153.57L80.4491 152.781C80.6719 152.845 80.9017 152.877 81.1317 152.877C81.7616 152.877 82.3915 152.638 82.8712 152.158L84.9608 150.069C85.9199 149.11 85.9199 147.55 84.9608 146.591L76.9253 138.557C76.4607 138.093 75.8429 137.837 75.1859 137.837C74.5287 137.837 73.9112 138.093 73.4466 138.557L71.3569 140.646C70.7022 141.301 70.4953 142.236 70.7343 143.068C70.7343 143.068 70.066 143.743 70.0328 143.785C67.8099 146.256 67.3929 150.145 68.8665 154.795C70.3096 159.348 73.4205 164.171 77.6262 168.376C81.8318 172.581 86.656 175.691 91.2099 177.134C93.0394 177.713 94.7507 178 96.3048 178C98.8528 178 100.977 177.228 102.5 175.705L102.939 175.267C103.158 175.33 103.387 175.364 103.622 175.364C104.279 175.364 104.897 175.108 105.361 174.644L107.451 172.555C108.41 171.596 108.41 170.036 107.451 169.077L99.4157 161.043ZM75.1859 140.296L83.2213 148.33L81.133 150.42C81.133 150.42 81.1326 150.42 81.1318 150.419L81.1018 150.389L77.1141 146.402L73.0964 142.385L75.1859 140.296ZM100.761 173.966C100.761 173.967 100.761 173.967 100.761 173.967C98.9909 175.736 95.863 176.028 91.9532 174.789C87.7681 173.463 83.2978 170.568 79.3659 166.637C75.4337 162.706 72.5379 158.236 71.2118 154.052C69.9727 150.143 70.265 147.016 72.0348 145.246L72.0349 145.246L72.2568 145.024L78.4926 151.259L77.9207 151.83C77.9203 151.831 77.92 151.831 77.9195 151.832C75.5499 154.204 78.3971 159.531 82.4351 163.568C85.4573 166.59 89.2024 168.945 91.8903 168.945C92.794 168.945 93.5783 168.678 94.1752 168.082C94.1755 168.081 94.1756 168.081 94.1759 168.081L94.7471 167.51L100.983 173.744L100.761 173.966ZM103.622 172.905L95.5867 164.871L97.6762 162.782L105.712 170.816C105.712 170.816 103.623 172.906 103.622 172.905Z" fill="#333333"/>
<path d="M100.3 155.62C100.3 156.299 100.851 156.85 101.53 156.85C102.209 156.85 102.76 156.299 102.76 155.62C102.76 152.313 101.471 149.203 99.1323 146.864C96.7928 144.525 93.6825 143.237 90.3745 143.237C89.6952 143.237 89.1445 143.788 89.1445 144.467C89.1445 145.146 89.6953 145.697 90.3745 145.697C93.0256 145.697 95.5181 146.729 97.393 148.603C99.2675 150.478 100.3 152.97 100.3 155.62Z" fill="#333333"/>
<path d="M103.544 142.454C100.026 138.937 95.3491 137 90.3745 137C89.6952 137 89.1445 137.551 89.1445 138.23C89.1445 138.909 89.6953 139.459 90.3745 139.459C94.6921 139.459 98.7514 141.14 101.805 144.193C104.858 147.245 106.539 151.304 106.539 155.62C106.539 156.3 107.09 156.85 107.769 156.85C108.448 156.85 108.999 156.3 108.999 155.621C108.999 150.647 107.062 145.971 103.544 142.454Z" fill="#333333"/>
<path d="M90.3743 149.475C89.695 149.475 89.1444 150.026 89.1445 150.705C89.1447 151.384 89.6954 151.935 90.3746 151.935C90.3748 151.935 90.3749 151.935 90.375 151.935C91.3877 151.935 92.2647 152.298 92.9812 153.014C93.6876 153.72 94.0609 154.622 94.0609 155.62C94.0607 156.299 94.6115 156.85 95.2906 156.85H95.2908C95.9701 156.85 96.5206 156.3 96.5207 155.621C96.5209 153.956 95.8984 152.453 94.7204 151.275C93.5426 150.098 92.0401 149.475 90.3749 149.475C90.3748 149.475 90.3744 149.475 90.3743 149.475Z" fill="#333333"/>
<path d="M136.332 64.146H141.022V62.2H134.176V72H136.332V64.146ZM142.235 72H144.503V69.76H142.235V72ZM150.746 72H152.86V65.644L155.59 69.788H155.646L158.404 65.602V72H160.546V62.2H158.222L155.646 66.344L153.07 62.2H150.746V72ZM171.343 62.2H169.341L165.029 68.626V62.2H162.901V72H164.931L169.215 65.574V72H171.343V62.2ZM173.701 72H175.857V68.066H179.833V72H181.989V62.2H179.833V66.078H175.857V62.2H173.701V72ZM188.93 72.168C190.82 72.168 191.94 71.58 192.948 70.502L191.576 69.032C190.806 69.732 190.12 70.18 189 70.18C187.32 70.18 186.158 68.78 186.158 67.1C186.158 65.392 187.348 64.02 189 64.02C190.12 64.02 190.764 64.426 191.52 65.112L192.808 63.628C191.898 62.732 190.862 62.032 189.014 62.032C186.004 62.032 183.904 64.314 183.904 67.1C183.904 69.942 186.046 72.168 188.93 72.168ZM194.674 72H196.83V69.004L197.964 67.828L201.002 72H203.592L199.42 66.358L203.41 62.2H200.806L196.83 66.484V62.2H194.674V72ZM204.271 74.268C205.937 74.24 206.861 73.498 206.861 71.65V69.76H204.593V72H205.461V72.154C205.461 72.868 204.999 73.288 204.089 73.386L204.271 74.268ZM217.248 67.38L214.588 62.2H212.18L216.1 69.536C215.708 70.138 215.26 70.32 214.868 70.32C214.49 70.32 214.098 70.236 213.706 69.998L212.866 71.58C213.482 71.93 214.14 72.154 214.98 72.154C216.352 72.154 217.332 71.482 218.186 69.774L221.952 62.2H219.614L217.248 67.38ZM224.687 62.2V64.23C224.687 69.508 224.029 70.25 222.867 70.25C222.727 70.25 222.629 70.236 222.531 70.222L222.391 72C222.657 72.07 223.175 72.126 223.525 72.126C225.765 72.126 226.703 70.656 226.703 64.888V64.146H229.531V72H231.687V62.2H224.687ZM233.727 72H235.995V69.76H233.727V72ZM248.665 64.636C250.247 64.636 251.297 65.574 251.297 67.016C251.297 68.486 250.247 69.41 248.665 69.41V64.636ZM248.665 72.392V71.328C251.689 71.328 253.523 69.452 253.523 66.988C253.523 64.524 251.661 62.718 248.665 62.718V61.822H246.509V62.718C243.499 62.718 241.651 64.524 241.651 66.974C241.651 69.452 243.485 71.328 246.509 71.328V72.392H248.665ZM246.509 69.41C244.927 69.41 243.863 68.486 243.863 67.016C243.863 65.574 244.927 64.636 246.509 64.636V69.41ZM263.723 62.2H261.721L257.409 68.626V62.2H255.281V72H257.311L261.595 65.574V72H263.723V62.2ZM267.384 62.2V64.23C267.384 69.508 266.726 70.25 265.564 70.25C265.424 70.25 265.326 70.236 265.228 70.222L265.088 72C265.354 72.07 265.872 72.126 266.222 72.126C268.462 72.126 269.4 70.656 269.4 64.888V64.146H272.228V72H274.384V62.2H267.384ZM285.175 62.2H283.173L278.861 68.626V62.2H276.733V72H278.763L283.047 65.574V72H285.175V62.2ZM287.533 72H289.647V65.644L292.377 69.788H292.433L295.191 65.602V72H297.333V62.2H295.009L292.433 66.344L289.857 62.2H287.533V72ZM304.448 72.168C307.472 72.168 309.67 69.886 309.67 67.1C309.67 64.286 307.5 62.032 304.476 62.032C301.452 62.032 299.254 64.314 299.254 67.1C299.254 69.914 301.424 72.168 304.448 72.168ZM304.476 70.18C302.74 70.18 301.508 68.78 301.508 67.1C301.508 65.392 302.712 64.02 304.448 64.02C306.184 64.02 307.416 65.42 307.416 67.1C307.416 68.808 306.212 70.18 304.476 70.18ZM311.582 72H313.738V68.066H317.714V72H319.87V62.2H317.714V66.078H313.738V62.2H311.582V72ZM326.979 72.168C330.003 72.168 332.201 69.886 332.201 67.1C332.201 64.286 330.031 62.032 327.007 62.032C323.983 62.032 321.785 64.314 321.785 67.1C321.785 69.914 323.955 72.168 326.979 72.168ZM327.007 70.18C325.271 70.18 324.039 68.78 324.039 67.1C324.039 65.392 325.243 64.02 326.979 64.02C328.715 64.02 329.947 65.42 329.947 67.1C329.947 68.808 328.743 70.18 327.007 70.18ZM334.114 72H338.776C340.988 72 342.444 71.104 342.444 69.312C342.444 67.968 341.744 67.31 340.61 66.876C341.31 66.484 341.898 65.868 341.898 64.762C341.898 64.062 341.674 63.516 341.226 63.068C340.666 62.508 339.784 62.2 338.664 62.2H334.114V72ZM336.214 66.162V64.09H338.342C339.252 64.09 339.756 64.454 339.756 65.098C339.756 65.854 339.154 66.162 338.202 66.162H336.214ZM336.214 70.11V67.954H338.706C339.812 67.954 340.302 68.36 340.302 69.018C340.302 69.774 339.728 70.11 338.776 70.11H336.214ZM343.377 72H345.575L346.471 69.802H350.615L351.511 72H353.765L349.565 62.13H347.577L343.377 72ZM347.241 67.898L348.543 64.72L349.845 67.898H347.241ZM362.569 72.168C364.823 72.168 366.293 70.852 366.293 68.78C366.293 66.54 364.767 65.616 362.863 65.616C362.317 65.616 361.967 65.686 361.575 65.784L361.687 64.09H365.859V62.2H359.839L359.559 67.03L360.805 67.856C361.267 67.66 361.827 67.492 362.443 67.492C363.465 67.492 364.179 67.982 364.179 68.822C364.179 69.718 363.549 70.208 362.541 70.208C361.673 70.208 360.945 69.816 360.203 69.144L358.901 70.698C359.853 71.608 361.001 72.168 362.569 72.168ZM371.387 72.168C373.641 72.168 375.111 70.852 375.111 68.78C375.111 66.54 373.585 65.616 371.681 65.616C371.135 65.616 370.785 65.686 370.393 65.784L370.505 64.09H374.677V62.2H368.657L368.377 67.03L369.623 67.856C370.085 67.66 370.645 67.492 371.261 67.492C372.283 67.492 372.997 67.982 372.997 68.822C372.997 69.718 372.367 70.208 371.359 70.208C370.491 70.208 369.763 69.816 369.021 69.144L367.719 70.698C368.671 71.608 369.819 72.168 371.387 72.168ZM375.544 73.792H377.35L383.552 60.828H381.746L375.544 73.792ZM387.713 72.168C389.897 72.168 391.241 70.81 391.241 68.962C391.241 67.114 389.939 66.414 388.609 66.19L391.087 63.824V62.2H384.465V64.048H388.315L385.977 66.4L386.313 67.772H387.209C388.413 67.772 389.127 68.22 389.127 69.018C389.127 69.774 388.553 70.236 387.741 70.236C386.747 70.236 386.047 69.816 385.375 69.06L383.891 70.474C384.731 71.468 385.949 72.168 387.713 72.168ZM392.601 74.268C394.267 74.24 395.191 73.498 395.191 71.65V69.76H392.923V72H393.791V72.154C393.791 72.868 393.329 73.288 392.419 73.386L392.601 74.268ZM138.936 93.168C141.96 93.168 144.158 90.886 144.158 88.1C144.158 85.286 141.988 83.032 138.964 83.032C135.94 83.032 133.742 85.314 133.742 88.1C133.742 90.914 135.912 93.168 138.936 93.168ZM138.964 91.18C137.228 91.18 135.996 89.78 135.996 88.1C135.996 86.392 137.2 85.02 138.936 85.02C140.672 85.02 141.904 86.42 141.904 88.1C141.904 89.808 140.7 91.18 138.964 91.18ZM152.497 85.636C154.079 85.636 155.129 86.574 155.129 88.016C155.129 89.486 154.079 90.41 152.497 90.41V85.636ZM152.497 93.392V92.328C155.521 92.328 157.355 90.452 157.355 87.988C157.355 85.524 155.493 83.718 152.497 83.718V82.822H150.341V83.718C147.331 83.718 145.483 85.524 145.483 87.974C145.483 90.452 147.317 92.328 150.341 92.328V93.392H152.497ZM150.341 90.41C148.759 90.41 147.695 89.486 147.695 88.016C147.695 86.574 148.759 85.636 150.341 85.636V90.41ZM167.556 83.2H165.554L161.242 89.626V83.2H159.114V93H161.144L165.428 86.574V93H167.556V83.2ZM174.506 93.168C176.396 93.168 177.516 92.58 178.524 91.502L177.152 90.032C176.382 90.732 175.696 91.18 174.576 91.18C172.896 91.18 171.734 89.78 171.734 88.1C171.734 86.392 172.924 85.02 174.576 85.02C175.696 85.02 176.34 85.426 177.096 86.112L178.384 84.628C177.474 83.732 176.438 83.032 174.59 83.032C171.58 83.032 169.48 85.314 169.48 88.1C169.48 90.942 171.622 93.168 174.506 93.168ZM187.625 93.168C189.809 93.168 191.153 91.81 191.153 89.962C191.153 88.114 189.851 87.414 188.521 87.19L190.999 84.824V83.2H184.377V85.048H188.227L185.889 87.4L186.225 88.772H187.121C188.325 88.772 189.039 89.22 189.039 90.018C189.039 90.774 188.465 91.236 187.653 91.236C186.659 91.236 185.959 90.816 185.287 90.06L183.803 91.474C184.643 92.468 185.861 93.168 187.625 93.168ZM197.063 93.168C199.681 93.168 201.431 90.942 201.431 88.1C201.431 85.23 199.681 83.032 197.091 83.032C194.487 83.032 192.723 85.258 192.723 88.1C192.723 90.97 194.445 93.168 197.063 93.168ZM197.091 91.222C195.789 91.222 194.935 89.892 194.935 88.1C194.935 86.28 195.775 84.978 197.063 84.978C198.351 84.978 199.219 86.322 199.219 88.1C199.219 89.906 198.393 91.222 197.091 91.222ZM206.421 93.168C209.207 93.168 210.705 90.998 210.705 87.82C210.705 85.86 210.243 84.796 209.543 84.096C208.801 83.354 208.031 83.032 206.715 83.032C204.503 83.032 202.977 84.488 202.977 86.462C202.977 88.478 204.349 89.654 206.477 89.654C207.331 89.654 207.989 89.388 208.465 88.982C208.325 90.298 207.681 91.208 206.477 91.208C205.651 91.208 205.049 90.942 204.335 90.368L203.201 92.006C204.027 92.692 204.993 93.168 206.421 93.168ZM206.827 87.862C205.763 87.862 205.119 87.26 205.119 86.392C205.119 85.496 205.721 84.88 206.785 84.88C207.863 84.88 208.507 85.51 208.507 86.378C208.507 87.246 207.891 87.862 206.827 87.862ZM211.799 93H213.997L214.893 90.802H219.037L219.933 93H222.187L217.987 83.13H215.999L211.799 93ZM215.663 88.898L216.965 85.72L218.267 88.898H215.663ZM222.131 94.792H223.937L230.139 81.828H228.333L222.131 94.792ZM232.439 93H234.567V83.13H233.097L230.283 83.97L230.731 85.734L232.439 85.314V93ZM241.426 93H243.484V90.886H244.8V89.136H243.484V83.13H241.664L236.288 89.36L236.638 90.886H241.426V93ZM238.822 89.136L241.426 86.084V89.136H238.822Z" fill="#333333"/>
<path d="M108.871 103.133L101.665 88.3531C101.521 88.0582 101.272 87.8323 100.973 87.709L97.3879 86.1616L103.6 76.0669C103.614 76.0426 103.628 76.0181 103.642 75.9932C104.877 73.6559 105.503 71.1302 105.503 68.4868C105.503 64.0399 103.704 59.8708 100.439 56.7479C97.1739 53.6255 92.8483 51.9392 88.2594 52.0017C83.8025 52.0616 79.6062 53.7975 76.443 56.8897C73.2803 59.9817 71.5239 64.0646 71.4974 68.3868C71.4812 71.0279 72.1248 73.658 73.3583 75.993C73.3715 76.0179 73.3855 76.0425 73.4004 76.0667L79.6119 86.1613L76.0063 87.7172C75.7113 87.8445 75.4733 88.0701 75.3353 88.353L68.1295 103.133C67.8883 103.628 67.9901 104.215 68.3844 104.606C68.7787 104.997 69.3821 105.109 69.8974 104.887L78.9244 100.99L87.9516 104.887C88.3009 105.038 88.6995 105.038 89.0488 104.887L98.0758 100.99L107.103 104.887C107.279 104.963 107.466 105 107.651 105C108.007 105 108.357 104.864 108.616 104.606C109.01 104.215 109.112 103.628 108.871 103.133ZM74.195 68.4024C74.2407 60.9048 80.5668 54.7207 88.2969 54.6169C92.1578 54.5666 95.7979 55.9832 98.5447 58.6101C101.292 61.2376 102.805 64.7452 102.805 68.4868C102.805 70.6977 102.286 72.8092 101.26 74.7637L89.6583 93.6189C89.3043 94.1944 88.7304 94.2565 88.5001 94.2565C88.2699 94.2565 87.696 94.1944 87.342 93.6189L75.7397 74.7637C74.701 72.7833 74.1812 70.6434 74.195 68.4024ZM98.6241 98.3638C98.275 98.2132 97.8762 98.2132 97.527 98.3638L88.4999 102.261L79.4728 98.3638C79.1236 98.2132 78.7249 98.2132 78.3757 98.3638L72.1221 101.064L77.56 89.9098L81.0038 88.4237L85.0252 94.9589C85.7623 96.1568 87.0612 96.872 88.4998 96.872C89.9383 96.872 91.2373 96.1568 91.9745 94.959L95.9957 88.4238L99.4398 89.9104L104.877 101.064L98.6241 98.3638Z" fill="#333333"/>
<path d="M94.6585 68.4869C94.6585 65.1959 91.8972 62.5184 88.5031 62.5184C85.1089 62.5184 82.3477 65.1959 82.3477 68.4869C82.3477 71.778 85.1089 74.4555 88.5031 74.4555C91.8972 74.4556 94.6585 71.7779 94.6585 68.4869ZM85.0451 68.4869C85.0451 66.638 86.5964 65.1339 88.5032 65.1339C90.41 65.1339 91.9613 66.638 91.9613 68.4869C91.9613 70.3358 90.41 71.84 88.5032 71.84C86.5965 71.84 85.0451 70.3359 85.0451 68.4869Z" fill="#333333"/>
<defs>
<filter id="filter0_d" x="0" y="0" width="469" height="436" filterUnits="userSpaceOnUse" color-interpolation-filters="sRGB">
<feFlood flood-opacity="0" result="BackgroundImageFix"/>
<feColorMatrix in="SourceAlpha" type="matrix" values="0 0 0 0 0 0 0 0 0 0 0 0 0 0 0 0 0 0 127 0" result="hardAlpha"/>
<feOffset/>
<feGaussianBlur stdDeviation="10"/>
<feColorMatrix type="matrix" values="0 0 0 0 0 0 0 0 0 0 0 0 0 0 0 0 0 0 0.3 0"/>
<feBlend mode="normal" in2="BackgroundImageFix" result="effect1_dropShadow"/>
<feBlend mode="normal" in="SourceGraphic" in2="effect1_dropShadow" result="shape"/>
</filter>
</defs>
</svg>
