<svg width="108" height="101" viewBox="0 0 108 101" fill="none" xmlns="http://www.w3.org/2000/svg">
<path d="M109.754 24.4366L32.7257 0.919515C25.6359 -1.24504 18.1797 2.5945 16.073 9.49471L0.81424 59.4735C-1.29242 66.3737 2.74778 73.7232 9.8376 75.8877L86.8659 99.4048C93.9557 101.569 101.412 97.7298 103.519 90.8296L118.777 40.8508C120.884 33.9506 116.844 26.6012 109.754 24.4366ZM78.4433 51.3266L112.537 36.9581C112.547 37.6012 112.556 38.2443 112.358 38.8911L97.0996 88.8699C96.9673 89.3031 96.6807 89.6358 96.4683 90.0177L78.4433 51.3266ZM107.847 30.684C108.273 30.8141 108.601 31.0876 108.978 31.2894L59.1439 52.2976L29.5422 7.0374C29.9676 7.08062 30.3921 7.03673 30.8184 7.16687L107.847 30.684ZM7.11469 62.731C7.15164 62.2954 7.101 61.8665 7.23326 61.4333L22.492 11.4545C22.6895 10.8077 23.0595 10.2803 23.4264 9.7521L43.6735 40.7046L7.11469 62.731ZM11.7449 69.6404C11.0962 69.4423 10.5628 69.0793 10.0244 68.7216L47.308 46.2627L55.0784 58.1392C55.5223 58.8286 56.192 59.3064 56.9348 59.5332C57.6776 59.76 58.5 59.7377 59.2531 59.414L72.3321 53.9029L90.7135 93.3565C90.0704 93.3533 89.4252 93.3565 88.7732 93.1575L11.7449 69.6404Z" fill="white" fill-opacity="0.37"/>
</svg>
