<svg width="14" height="14" viewBox="0 0 14 14" fill="none" xmlns="http://www.w3.org/2000/svg">
<path d="M13.5859 5.72586H6.99544V8.43466H10.7604C10.598 9.31023 10.1055 10.0508 9.36313 10.547C8.73563 10.9665 7.93485 11.2146 6.99362 11.2146C5.17133 11.2146 3.62997 9.98332 3.07909 8.32886C2.94046 7.90932 2.8602 7.46059 2.8602 6.99909C2.8602 6.53759 2.94046 6.08886 3.07909 5.66932C3.63179 4.01668 5.17316 2.78541 6.99544 2.78541C8.02241 2.78541 8.94358 3.13928 9.66958 3.83244L11.6761 1.8241C10.4631 0.69316 8.88156 0 6.99544 0C4.26111 0 1.89524 1.56873 0.744235 3.85616C0.269967 4.80104 0 5.86997 0 7.00091C0 8.13186 0.269967 9.19896 0.744235 10.1438C1.89524 12.4313 4.26111 14 6.99544 14C8.88521 14 10.4685 13.3725 11.625 12.3036C12.9475 11.0851 13.7118 9.29016 13.7118 7.15779C13.7118 6.66163 13.668 6.18554 13.5859 5.72586Z" fill="#6F6F6F"/>
</svg>
