<svg width="32" height="32" viewBox="0 0 32 32" fill="none" xmlns="http://www.w3.org/2000/svg">
<circle cx="16" cy="16" r="16" fill="#38BE4E"/>
<path d="M8.02 20.12C9.784 20.12 11.02 19.184 11.02 17.612C11.02 16.196 10.096 15.56 8.32 15.128C6.712 14.744 6.328 14.456 6.328 13.808C6.328 13.232 6.832 12.788 7.696 12.788C8.464 12.788 9.22 13.088 9.976 13.652L10.768 12.536C9.916 11.852 8.944 11.48 7.72 11.48C6.052 11.48 4.852 12.476 4.852 13.916C4.852 15.488 5.86 16.016 7.648 16.436C9.208 16.808 9.544 17.132 9.544 17.732C9.544 18.392 8.968 18.812 8.056 18.812C7.012 18.812 6.208 18.416 5.404 17.72L4.516 18.776C5.524 19.676 6.736 20.12 8.02 20.12ZM17.9038 20V16.244C17.9038 14.552 16.9918 13.568 15.1198 13.568C14.0878 13.568 13.4038 13.784 12.7078 14.096L13.1038 15.26C13.6798 15.02 14.2078 14.864 14.9158 14.864C15.9238 14.864 16.4758 15.344 16.4758 16.22V16.34C15.9838 16.184 15.4918 16.076 14.7238 16.076C13.2478 16.076 12.1558 16.748 12.1558 18.152C12.1558 19.448 13.2118 20.132 14.4118 20.132C15.3718 20.132 16.0318 19.736 16.4638 19.22V20H17.9038ZM16.4998 17.708C16.4998 18.5 15.7798 19.04 14.8198 19.04C14.1358 19.04 13.5958 18.704 13.5958 18.104C13.5958 17.468 14.1358 17.096 15.0478 17.096C15.6118 17.096 16.1278 17.204 16.4998 17.348V17.708ZM19.7148 20H21.1668V11.24H19.7148V20ZM25.9683 20.144C27.1323 20.144 27.9603 19.676 28.5603 18.956L27.7083 18.2C27.2043 18.692 26.7003 18.956 25.9923 18.956C25.0563 18.956 24.3243 18.38 24.1683 17.348H28.8243C28.8363 17.276 28.8483 17.036 28.8483 16.94C28.8483 15.116 27.8283 13.532 25.8123 13.532C24.0003 13.532 22.7163 15.02 22.7163 16.832C22.7163 18.812 24.1323 20.144 25.9683 20.144ZM24.1563 16.388C24.2883 15.404 24.9123 14.72 25.8003 14.72C26.7603 14.72 27.3123 15.452 27.4083 16.388H24.1563Z" fill="white"/>
</svg>
