<svg width="80" height="26" viewBox="0 0 80 26" fill="none" xmlns="http://www.w3.org/2000/svg">
<g clip-path="url(#clip0)">
<path d="M38.8731 23.2888C38.6521 23.0222 38.3869 22.8888 38.0333 22.8888C37.8123 22.8888 37.6355 22.9333 37.4587 23.0444C37.2819 23.1333 37.1493 23.2666 37.0609 23.4444C36.9725 23.6222 36.9062 23.8 36.9062 24.0222C36.9062 24.2222 36.9504 24.4222 37.0609 24.5777C37.1714 24.7555 37.304 24.8888 37.4808 24.9777C37.6576 25.0666 37.8565 25.1111 38.0775 25.1111C38.2543 25.1111 38.409 25.0666 38.5195 25C38.6521 24.9333 38.7626 24.8222 38.8731 24.6666V25.0444H39.1604V22.1777H38.8731V23.2888ZM38.6521 24.6C38.4974 24.7777 38.2985 24.8444 38.0775 24.8444C37.8344 24.8444 37.6355 24.7555 37.4808 24.6C37.3261 24.4444 37.2377 24.2444 37.2377 24C37.2377 23.7555 37.3261 23.5555 37.4808 23.4C37.6355 23.2444 37.8344 23.1555 38.0554 23.1555C38.2985 23.1555 38.4974 23.2444 38.6742 23.4C38.851 23.5555 38.9173 23.7555 38.9173 24C38.8952 24.2222 38.8068 24.4444 38.6521 24.6Z" fill="white" stroke="white" stroke-width="0.25" stroke-miterlimit="10"/>
<path d="M39.9787 22.9331H39.6914V25.0664H39.9787V22.9331Z" fill="white" stroke="white" stroke-width="0.25" stroke-miterlimit="10"/>
<path d="M42.3208 23.3109C42.2103 23.1553 42.0998 23.0442 41.9672 22.9776C41.8346 22.9109 41.6799 22.8665 41.5032 22.8665C41.3043 22.8665 41.1054 22.9109 40.9507 23.022C40.796 23.1109 40.6634 23.2442 40.575 23.422C40.4866 23.5998 40.4424 23.7776 40.4424 23.9998C40.4424 24.1553 40.4645 24.2887 40.5308 24.4442C40.5971 24.5776 40.6634 24.6887 40.7518 24.7998C40.8402 24.8887 40.9728 24.9776 41.1054 25.022C41.238 25.0887 41.3927 25.1109 41.5474 25.1109C41.7463 25.1109 41.9009 25.0665 42.0335 24.9998C42.1661 24.9109 42.2766 24.7998 42.365 24.6442V24.7776C42.365 24.9776 42.3429 25.1331 42.2766 25.2442C42.2103 25.3776 42.144 25.4665 42.0114 25.5331C41.9009 25.5998 41.7463 25.6442 41.5916 25.6442C41.3706 25.6442 41.1717 25.5776 41.0391 25.4442C40.9949 25.3998 40.9728 25.3776 40.9286 25.3331C40.9065 25.2887 40.8623 25.222 40.8181 25.1553H40.5308C40.6192 25.3998 40.7297 25.5998 40.9286 25.7331C41.1054 25.8665 41.3264 25.9331 41.5916 25.9331C41.7684 25.9331 41.9451 25.9109 42.0998 25.8442C42.2545 25.7776 42.365 25.6887 42.4534 25.5553C42.5197 25.4665 42.586 25.3553 42.6081 25.222C42.6302 25.0887 42.6523 24.9331 42.6523 24.7109V22.9776H42.365V23.3109H42.3208ZM42.0998 24.5998C41.9451 24.7553 41.7462 24.8442 41.5253 24.8442C41.2822 24.8442 41.1054 24.7553 40.9507 24.5998C40.796 24.4442 40.7297 24.222 40.7297 23.9776C40.7297 23.7331 40.796 23.5331 40.9507 23.3776C41.1054 23.222 41.2822 23.1331 41.5032 23.1331C41.7462 23.1331 41.9451 23.222 42.0998 23.3776C42.2545 23.5331 42.3429 23.7331 42.3429 23.9776C42.3208 24.222 42.2545 24.4442 42.0998 24.5998Z" fill="white" stroke="white" stroke-width="0.25" stroke-miterlimit="10"/>
<path d="M43.425 22.9331H43.1377V25.0664H43.425V22.9331Z" fill="white" stroke="white" stroke-width="0.25" stroke-miterlimit="10"/>
<path d="M44.5082 22.2H44.2209V22.9333H43.7568V23.2H44.2209V25.0666H44.5082V23.2H44.9723V22.9333H44.5082V22.2Z" fill="white" stroke="white" stroke-width="0.25" stroke-miterlimit="10"/>
<path d="M47.0274 23.3109C46.9169 23.1553 46.8064 23.0442 46.6738 22.9776C46.5412 22.9109 46.3865 22.8665 46.1876 22.8665C45.9887 22.8665 45.7898 22.9109 45.613 23.022C45.4362 23.1109 45.3036 23.2442 45.2152 23.422C45.1268 23.5998 45.0605 23.7776 45.0605 23.9998C45.0605 24.1998 45.1047 24.3998 45.2152 24.5776C45.3036 24.7553 45.4583 24.8887 45.613 24.9776C45.7898 25.0665 45.9887 25.1109 46.1876 25.1109C46.3644 25.1109 46.5191 25.0887 46.6517 25.022C46.7843 24.9553 46.8948 24.8442 47.0053 24.6887V25.0665H47.2926V22.9331H47.0053V23.3109H47.0274ZM46.8064 24.5998C46.6517 24.7553 46.4528 24.8442 46.2318 24.8442C45.9887 24.8442 45.7898 24.7553 45.6351 24.5998C45.4804 24.4442 45.392 24.222 45.392 23.9998C45.392 23.7553 45.4804 23.5776 45.6351 23.3998C45.7898 23.2442 45.9887 23.1553 46.2097 23.1553C46.4528 23.1553 46.6517 23.2442 46.8064 23.3998C46.9611 23.5553 47.0495 23.7553 47.0495 23.9998C47.0274 24.2442 46.9611 24.4442 46.8064 24.5998Z" fill="white" stroke="white" stroke-width="0.25" stroke-miterlimit="10"/>
<path d="M48.133 22.2H47.8457V25.0666H48.133V22.2Z" fill="white" stroke="white" stroke-width="0.25" stroke-miterlimit="10"/>
<path d="M51.1378 24.7556C51.0273 24.8222 50.8947 24.8445 50.74 24.8445C50.4969 24.8445 50.298 24.7556 50.1433 24.6C49.9886 24.4445 49.9002 24.2445 49.9002 24C49.9002 23.7556 49.9886 23.5556 50.1433 23.4C50.298 23.2445 50.4969 23.1556 50.74 23.1556C50.8947 23.1556 51.0273 23.2 51.1599 23.2667C51.2925 23.3334 51.3809 23.4445 51.4693 23.5778H51.8008C51.7124 23.3556 51.5798 23.2 51.3809 23.0667C51.182 22.9334 50.9831 22.8889 50.74 22.8889C50.5411 22.8889 50.3422 22.9334 50.1654 23.0445C49.9886 23.1334 49.856 23.2667 49.7455 23.4445C49.635 23.6222 49.5908 23.8 49.5908 24C49.5908 24.2 49.635 24.4 49.7455 24.5778C49.856 24.7556 49.9886 24.8889 50.1654 24.9778C50.3422 25.0667 50.5411 25.1334 50.74 25.1334C51.0052 25.1334 51.2262 25.0667 51.4251 24.9111C51.4914 24.8667 51.5577 24.8 51.6019 24.7334C51.6461 24.6667 51.7124 24.5778 51.7787 24.4667H51.4472C51.3588 24.5778 51.2483 24.6889 51.1378 24.7556Z" fill="white" stroke="white" stroke-width="0.25" stroke-miterlimit="10"/>
<path d="M53.7903 23.0445C53.6356 22.9556 53.4367 22.8889 53.2378 22.8889C52.9063 22.8889 52.6411 23 52.4422 23.2C52.2212 23.4 52.1328 23.6667 52.1328 24C52.1328 24.2 52.177 24.4 52.2875 24.5778C52.3759 24.7556 52.5306 24.8889 52.6853 24.9778C52.8621 25.0667 53.061 25.1111 53.2599 25.1111C53.5693 25.1111 53.8345 25 54.0334 24.8C54.2323 24.6 54.3428 24.3334 54.3428 24C54.3428 23.7778 54.2986 23.6 54.2102 23.4222C54.0776 23.2667 53.945 23.1334 53.7903 23.0445ZM53.7903 24.6222C53.6356 24.7778 53.4588 24.8667 53.2157 24.8667C52.9726 24.8667 52.7737 24.7778 52.619 24.6222C52.4643 24.4667 52.3759 24.2667 52.3759 24.0223C52.3759 23.7778 52.4422 23.5778 52.5969 23.4C52.7516 23.2445 52.9505 23.1556 53.1715 23.1556C53.4146 23.1556 53.6135 23.2445 53.7682 23.4C53.9229 23.5556 53.9892 23.7778 53.9892 24.0223C54.0113 24.2667 53.945 24.4667 53.7903 24.6222Z" fill="white" stroke="white" stroke-width="0.25" stroke-miterlimit="10"/>
<path d="M57.4149 22.9778C57.3044 22.9334 57.1718 22.8889 57.0171 22.8889C56.8624 22.8889 56.7077 22.9111 56.5972 22.9778C56.4867 23.0445 56.3762 23.1556 56.2878 23.2889C56.1994 23.1556 56.111 23.0445 56.0005 22.9778C55.89 22.9111 55.7574 22.8889 55.6027 22.8889C55.4701 22.8889 55.3596 22.9111 55.2712 22.9556C55.1828 23 55.0944 23.0667 55.006 23.1778V22.9334H54.7188V25.0667H55.006V23.8223C55.006 23.6 55.0502 23.4445 55.1607 23.3334C55.2712 23.2222 55.4038 23.1556 55.5806 23.1556C55.7574 23.1556 55.89 23.2222 56.0005 23.3334C56.0889 23.4445 56.1331 23.6 56.1331 23.8223V25.0667H56.4204V23.8445C56.4204 23.6667 56.4425 23.5111 56.5088 23.4222C56.553 23.3334 56.6193 23.2889 56.7077 23.2222C56.7961 23.1778 56.8845 23.1556 56.995 23.1556C57.0834 23.1556 57.1718 23.1778 57.2381 23.2C57.3044 23.2445 57.3707 23.2889 57.4149 23.3334C57.5033 23.4445 57.5475 23.6 57.5475 23.8223V25.0445H57.8348V23.7778C57.8348 23.5334 57.7906 23.3334 57.6801 23.1778C57.6138 23.1111 57.5254 23.0222 57.4149 22.9778Z" fill="white" stroke="white" stroke-width="0.25" stroke-miterlimit="10"/>
<path d="M60.0884 23.0445C59.9116 22.9556 59.7348 22.8889 59.5138 22.8889C59.337 22.8889 59.1602 22.9334 59.0276 23C58.895 23.0667 58.7624 23.1778 58.674 23.3111V22.9556H58.3867V25.8223H58.674V24.7111C58.7624 24.8445 58.8729 24.9556 59.0276 25.0223C59.1602 25.0889 59.3149 25.1334 59.4917 25.1334C59.6906 25.1334 59.8895 25.0889 60.0663 24.9778C60.2431 24.8889 60.3757 24.7556 60.4641 24.5778C60.5525 24.4 60.6188 24.2223 60.6188 24.0223C60.6188 23.8223 60.5746 23.6222 60.4641 23.4445C60.3757 23.2667 60.2431 23.1334 60.0884 23.0445ZM60.0884 24.6222C59.9337 24.7778 59.7348 24.8667 59.4917 24.8667C59.2486 24.8667 59.0497 24.7778 58.895 24.6222C58.7403 24.4667 58.6519 24.2667 58.6519 24.0223C58.6519 23.7778 58.7403 23.5778 58.895 23.4222C59.0497 23.2667 59.2486 23.1778 59.4917 23.1778C59.7348 23.1778 59.9337 23.2667 60.0884 23.4222C60.2431 23.5778 60.3315 23.8 60.3315 24.0445C60.3315 24.2445 60.2652 24.4445 60.0884 24.6222Z" fill="white" stroke="white" stroke-width="0.25" stroke-miterlimit="10"/>
<path d="M62.8946 23.3109C62.7841 23.1553 62.6736 23.0442 62.541 22.9776C62.4084 22.9109 62.2537 22.8665 62.0548 22.8665C61.8559 22.8665 61.657 22.9109 61.4802 23.022C61.3034 23.1331 61.1708 23.2442 61.0824 23.422C60.994 23.5998 60.9277 23.7776 60.9277 23.9998C60.9277 24.1998 60.9719 24.3998 61.0824 24.5776C61.1708 24.7553 61.3255 24.8887 61.4802 24.9776C61.657 25.0665 61.8559 25.1109 62.0548 25.1109C62.2316 25.1109 62.3863 25.0887 62.5189 25.022C62.6515 24.9553 62.762 24.8442 62.8725 24.6887V25.0665H63.1598V22.9331H62.8725V23.3109H62.8946ZM62.6515 24.5998C62.4968 24.7553 62.2979 24.8442 62.0769 24.8442C61.8338 24.8442 61.6349 24.7553 61.4802 24.5998C61.3255 24.4442 61.2371 24.222 61.2371 23.9998C61.2371 23.7553 61.3255 23.5776 61.4802 23.3998C61.6349 23.2442 61.8338 23.1553 62.0548 23.1553C62.2979 23.1553 62.4968 23.2442 62.6515 23.3998C62.8062 23.5553 62.8946 23.7553 62.8946 23.9998C62.8946 24.2442 62.8062 24.4442 62.6515 24.5998Z" fill="white" stroke="white" stroke-width="0.25" stroke-miterlimit="10"/>
<path d="M65.3481 23.2222C65.2597 23.1111 65.1713 23.0222 65.0387 22.9778C64.9062 22.9111 64.7736 22.8889 64.6189 22.8889C64.3316 22.8889 64.1106 23 63.9338 23.2222V22.9556H63.6465V25.0889H63.9338V23.9111C63.9338 23.8 63.9338 23.7111 63.9559 23.6222C63.978 23.5556 64.0001 23.4889 64.0443 23.4222C64.1106 23.3334 64.1769 23.2667 64.2653 23.2222C64.3537 23.1778 64.4642 23.1556 64.5747 23.1556C64.7957 23.1556 64.9504 23.2223 65.083 23.3778C65.1271 23.4445 65.1713 23.5111 65.1934 23.6C65.2155 23.6889 65.2376 23.8 65.2376 23.9556V25.0667H65.5249V23.9556C65.5249 23.7778 65.5028 23.6445 65.4807 23.5334C65.4586 23.4 65.4144 23.3111 65.3481 23.2222Z" fill="white" stroke="white" stroke-width="0.25" stroke-miterlimit="10"/>
<path d="M67.4478 22.9331L66.7406 24.6442L66.0555 22.9331H65.7461L66.5638 24.9998L66.2323 25.822H66.5417L67.7571 22.9331H67.4478Z" fill="white" stroke="white" stroke-width="0.25" stroke-miterlimit="10"/>
<path d="M39.8454 22.6C39.7349 22.6 39.6465 22.5111 39.6465 22.4C39.6465 22.2888 39.7349 22.2 39.8454 22.2C39.9559 22.2 40.0443 22.2888 40.0443 22.4C40.0443 22.5111 39.9559 22.6 39.8454 22.6Z" fill="white"/>
<path d="M43.2927 22.6C43.1821 22.6 43.0938 22.5111 43.0938 22.4C43.0938 22.2888 43.1821 22.2 43.2927 22.2C43.4032 22.2 43.4916 22.2888 43.4916 22.4C43.4695 22.5111 43.3811 22.6 43.2927 22.6Z" fill="white"/>
<path d="M24.597 14.5777C24.5086 13.3333 24.5749 12.2444 24.6853 11.4222C24.7516 10.9333 24.8842 11.0666 24.8842 10.8222C24.8842 10.6222 24.6191 10.7111 24.597 10.5111C24.4644 9.53329 24.7074 8.62218 24.5749 7.79995C24.5086 7.4444 24.6411 7.08884 24.5749 6.73329C24.3981 5.6444 24.5749 4.57773 24.597 3.68884C24.6191 3.33329 24.7075 2.51107 24.8842 2.13329C25.1052 1.6444 25.4809 0.77773 26.1218 0.599952C26.2323 0.57773 26.4754 0.488841 26.6301 0.488841C26.9395 0.488841 27.2268 0.266619 27.5804 0.266619C28.5528 0.266619 28.6191 0.199951 28.9726 0.199951C29.0831 0.199951 29.3704 0.288842 29.6356 0.288842C29.945 0.288842 29.945 0.799954 30.0334 0.799954C30.1218 0.799954 30.1439 0.422173 30.387 0.422173C30.8069 0.422173 31.271 0.599953 31.6909 0.77773C32.0887 0.911064 32.376 1.28884 32.5748 1.66662C32.6632 1.79995 32.9505 2.28884 32.9505 2.62218C32.9505 3.02218 33.1494 3.0444 33.1494 3.48884C33.1494 3.66662 33.061 3.79995 33.061 4.33329C33.061 4.62217 33.1494 4.88884 33.1494 5.17773C33.1494 5.79995 33.061 6.48884 33.061 7.13329C33.061 7.26662 32.8842 7.42217 32.7074 7.55551C32.3539 7.82218 32.0224 7.75551 31.6688 7.75551C31.4036 7.75551 31.3815 7.57773 31.0058 7.57773C30.6964 7.57773 30.3428 7.22217 30.2323 6.88884C30.0997 6.42217 30.2986 5.8444 30.166 5.11106C30.0997 4.79995 30.1881 4.42218 30.0997 3.95551C29.9892 3.37773 29.4809 3.15551 29.0168 3.15551C28.5969 3.15551 27.8235 3.2444 27.713 3.99995C27.6909 4.19995 27.6246 5.11106 27.6246 5.35551C27.6246 6.66662 27.8235 8.02217 27.6246 9.31106C27.6025 9.57773 27.7351 10.1777 27.7351 10.4666C27.7351 12.0444 27.5362 12.0666 27.5362 12.4222C27.5362 12.6444 27.6467 13.2666 27.5583 13.7111C27.4257 14.4888 27.6467 15.4666 27.6246 16.1555C27.6025 16.8444 27.6909 17.2222 28.1771 17.5333C28.4423 17.7111 28.7516 17.7333 29.0831 17.7333C29.5472 17.7333 30.1881 17.3333 30.1881 16.4888C30.166 15.9111 30.0113 14.9111 30.1881 13.8666C30.2102 13.6 30.166 13.3555 30.1881 13.1111C30.2544 12.7111 30.1218 12.4888 30.0997 12.3555C29.9892 11.9333 29.2599 12.1555 29.0168 12.0444C28.3539 11.7555 28.5086 10.8 28.5086 10.0888C28.5086 9.62217 28.6411 9.39995 28.7958 9.39995C29.1494 9.39995 29.5472 9.0444 29.8566 9.0444C30.2102 9.0444 30.829 9.11106 31.3373 9.06662C31.8014 9.0444 32.3981 9.08884 32.4864 9.17773C32.6853 9.37773 33.1052 9.46662 33.1052 10.8666C33.1052 11.3555 33.2157 13.2 33.1052 14.6C33.0168 15.7111 33.282 16.7777 33.1052 17.7333C32.9726 18.4888 32.5085 19.3333 31.8456 19.8666C31.6688 19.9777 31.2931 20.2444 30.6743 20.2444C30.166 20.2444 29.3704 20.5555 28.7074 20.5555C27.3152 20.5555 26.9174 20.3555 25.7903 19.9333C25.6798 19.8666 25.4809 19.7333 25.4146 19.5555C25.282 19.1333 24.8179 18.8666 24.7074 18.4C24.6412 18.1777 24.5749 17.2 24.5749 16.7111C24.597 16.0222 24.6633 15.2888 24.597 14.5777ZM25.3041 10.8888C25.4146 10.8888 25.5914 10.7555 25.5914 10.6666C25.5914 10.6 25.5251 10.5777 25.4146 10.5777C25.3041 10.5777 25.061 10.5777 25.061 10.6888C25.0831 10.8 25.1936 10.8888 25.3041 10.8888ZM31.5362 19.0222C31.713 19.0222 31.8235 18.7333 31.8235 18.6666C31.8235 18.5333 31.6025 18.6888 31.4699 18.5777C31.3594 18.4666 31.3373 18.6666 31.3373 18.7111C31.3373 18.8888 31.4036 19.0222 31.5362 19.0222Z" fill="white"/>
<path d="M34.9837 19.711C34.8953 19.511 34.9174 18.6444 34.9174 18.1777C34.9174 17.7777 34.9174 16.9777 34.8953 15.911C34.8732 14.911 34.829 13.8444 34.829 13.6222C34.829 13.0666 34.9395 12.0444 34.8953 11.4888C34.8732 11.111 35.1826 11.2222 35.2047 10.8888C35.2047 10.6666 34.9395 10.4888 34.8953 10.2666C34.7185 9.55548 34.829 8.48882 34.8953 7.39993C34.9174 6.97771 34.8069 6.55549 34.8069 6.13326C34.8069 5.44437 34.8732 4.84437 34.8953 4.24437C34.9616 3.24437 34.7848 2.26659 34.8953 1.26659C34.9174 0.911039 35.1163 0.488817 35.6025 0.488817C36.0665 0.488817 36.5085 0.199928 37.2599 0.377706C37.6356 0.466595 38.6522 0.377706 38.9174 0.377706C39.2047 0.377706 39.6688 0.288818 39.956 0.288818C40.0886 0.288818 40.3538 0.42215 40.619 0.42215C40.7516 0.42215 41.3925 0.533263 41.8787 0.688819C42.7185 0.955486 43.3152 2.24437 43.3152 3.0666C43.3152 3.53326 43.4257 4.02215 43.3373 4.44437C43.2268 4.99993 43.4036 5.53326 43.4036 6.08882C43.4036 6.7777 43.3152 7.48882 43.3152 8.17771C43.3152 8.53326 43.1826 9.04437 43.0058 9.37771C42.829 9.73326 42.6522 9.93326 42.6522 10.2666C42.6522 10.6444 42.7185 10.6222 42.8511 10.8888C43.1163 11.3777 43.3152 11.9333 43.3152 12.4888C43.3373 13.0666 43.4478 13.5999 43.3815 14.1777C43.3594 14.3555 43.4699 14.6666 43.3815 14.8444C43.271 15.0666 43.3815 15.2666 43.3815 16.7777C43.3815 17.0888 43.4699 17.5333 43.4699 17.9777C43.4699 18.3333 43.4699 18.7777 43.492 19.1333C43.492 19.311 43.6909 19.4444 43.6909 19.6444C43.6909 19.9999 43.3373 20.3333 43.1384 20.3333C42.5417 20.3333 41.8787 20.4444 41.3041 20.3333C40.9505 20.2666 40.7958 19.911 40.6853 19.711C40.5527 19.4888 40.8621 19.4444 40.8621 19.3333C40.8621 18.9777 40.4864 18.8444 40.4864 18.4888C40.4864 17.6888 40.5969 17.3333 40.4864 16.5333C40.4643 16.2666 40.4201 15.9777 40.4864 15.6444C40.5085 15.4444 40.4864 15.2222 40.4864 15.0222C40.4864 14.6666 40.3759 14.1333 40.3759 13.711C40.3759 12.6666 40.0665 12.4444 39.9118 12.2666C39.6909 11.9777 39.5141 11.911 39.1605 11.911C38.8069 11.911 38.4975 11.7999 38.3649 11.8888C38.1439 12.0222 37.9892 12.4888 37.9892 12.9333C37.9892 13.711 38.0997 14.3333 37.9892 14.9777C37.9671 15.1555 37.9892 15.9777 37.9892 16.1555C37.9892 16.6444 37.9892 17.111 38.0113 17.5999C38.0776 18.7777 38.0113 18.8666 37.9892 19.5333C37.9671 19.911 37.6798 20.1555 37.3704 20.311C37.1936 20.3777 36.8842 20.5777 36.6632 20.5777C36.3096 20.5777 35.9118 20.3777 35.6246 20.3777C35.2268 20.3555 35.1163 20.0444 34.9837 19.711ZM35.8235 15.0888C35.9119 15.0888 35.8014 14.8221 35.8014 14.7333C35.8014 14.6444 35.8235 14.4444 35.7793 14.4444C35.6467 14.4444 35.6467 14.7999 35.6467 14.911C35.6246 15.0444 35.713 15.0888 35.8235 15.0888ZM39.0058 3.19993C38.6964 3.13326 38.4533 3.31104 38.2986 3.28882C38.0997 3.2666 37.9892 3.39993 37.9892 3.64437C37.9892 4.24437 37.8787 4.88882 37.9671 5.48882C38.0555 6.19993 37.9892 7.13326 37.9892 7.53326C37.9892 8.04437 38.2986 8.02215 38.4091 8.37771C38.5859 8.86659 38.7848 8.93326 39.1605 8.93326C39.3594 8.93326 39.5583 8.99993 39.7793 8.84437C40.2654 8.55548 40.5306 7.86659 40.5306 7.31104C40.5306 7.1777 40.4643 7.02215 40.4643 6.84437C40.4643 6.48882 40.398 6.08882 40.4643 5.79993C40.5306 5.53326 40.3759 4.59993 40.3759 3.99993C40.3759 3.79993 40.2875 3.68882 40.1107 3.51104C39.713 3.08882 40.0444 2.6666 39.7571 2.6666C39.6025 2.64437 39.6025 3.31104 39.0058 3.19993ZM41.4588 19.4666C41.5693 19.4666 41.6577 19.4666 41.7461 19.3333C41.8124 19.1999 41.6135 19.2222 41.4588 19.111C41.3262 18.9999 41.2378 19.1999 41.2378 19.3333C41.2378 19.4666 41.282 19.4666 41.4588 19.4666Z" fill="white"/>
<path d="M45.2375 14.6221C45.2375 14.311 45.3038 13.8666 45.2375 13.5555C45.127 12.9332 45.3259 10.911 45.3259 7.48879C45.3259 6.7999 45.2375 6.08879 45.2375 5.11101C45.2375 4.71101 45.3259 4.33324 45.3259 3.7999C45.3259 3.5999 45.5911 3.51101 45.5911 3.31101C45.5911 3.02212 45.2375 2.91101 45.2375 2.46657C45.2375 1.97768 45.3259 1.48879 45.3259 0.933235C45.3259 0.755457 45.5027 0.377679 45.6353 0.377679C45.7679 0.377679 46.2983 0.288792 46.4309 0.288792C47.0055 0.288792 47.5801 0.199903 48.0662 0.688792C48.4198 1.04435 48.2872 1.55546 48.2872 1.9999C48.2872 2.86657 48.4198 3.68879 48.2872 4.55546C48.2209 4.91101 48.2872 5.24435 48.2872 5.5999C48.2872 7.75546 48.2651 8.11101 48.2209 9.24435C48.1988 9.82212 48.022 9.95545 48.022 10.1999C48.022 10.511 48.2872 10.9555 48.2872 11.1999C48.2872 12.1777 48.1988 13.3332 48.1988 14.511C48.1988 14.7777 48.3093 14.911 48.3093 15.4888C48.3093 16.0888 48.2872 16.9777 48.2872 17.9332C48.2872 18.4888 48.1988 19.0221 48.2872 19.5332C48.3535 19.8888 47.779 20.2888 47.4254 20.2888C47.1602 20.2888 46.8508 20.3555 46.674 20.3555C46.0994 20.3555 45.8342 20.3777 45.4143 19.8888C45.2375 19.711 45.2375 19.6666 45.2817 18.6443C45.2817 18.2221 45.2596 17.6443 45.3038 16.7999C45.3259 16.511 45.3922 16.1999 45.3038 15.911C45.1712 15.5332 45.2375 15.0888 45.2375 14.6221ZM46.0331 6.84435C46.1215 6.84435 46.1657 6.66657 46.1657 6.62212C46.1657 6.53324 46.0552 6.35546 45.9668 6.35546C45.8784 6.35546 45.9005 6.53324 45.9005 6.62212C45.9226 6.66657 45.9447 6.84435 46.0331 6.84435Z" fill="white"/>
<path d="M49.6355 19.8C49.4145 19.4222 49.4587 19.2889 49.4587 18.6C49.4587 18 49.6576 17.5555 49.7681 17.0222C49.8344 16.8 49.9449 16.6 49.967 16.3555C50.0333 15.8444 50.188 15.3777 50.3648 14.8889C50.5858 14.2 50.8731 13.0222 51.1382 12.3777C51.2708 11.9777 51.5581 12.1555 51.6465 11.6889C51.6465 11.6222 51.3813 11.2222 51.4255 11.1333C51.5139 10.7111 51.7128 10.1777 51.7349 9.88885C51.757 9.57774 51.9338 9.48885 52.0443 8.9333C52.1327 8.51108 52.2211 7.66663 52.5526 6.79997C52.641 6.5333 52.9062 6.28885 52.9062 6.08885C52.9062 5.95552 52.9283 5.68885 52.9283 5.5333C52.9283 5.22219 53.1051 5.06663 53.3482 4.17774C53.3703 4.06663 53.4145 3.82219 53.4145 3.75552C53.4145 3.39996 53.2377 3.1333 52.9283 3.1333C52.641 3.1333 52.3537 3.04441 52.1327 3.04441C52.0001 3.04441 51.6244 3.1333 51.1604 3.1333C50.851 3.1333 51.0941 2.99997 50.9394 2.95552C50.851 2.95552 50.8289 3.06663 50.63 3.1333C50.5195 3.15552 50.2543 3.19997 50.1438 3.1333C49.9228 3.02219 49.6797 2.66663 49.6797 2.44441C49.6797 2.24441 49.7018 2.02219 49.7018 1.7333C49.7018 1.22219 49.6355 1.02219 49.9891 0.644408C50.0996 0.533297 50.2764 0.444409 50.4753 0.444409C50.851 0.444409 51.757 0.355522 52.0443 0.355522C52.2432 0.355522 52.4642 0.488853 52.6631 0.488853C52.9725 0.488853 53.3261 0.311077 53.6576 0.355522C54.2101 0.377744 54.2322 0.377742 54.8068 0.377742C55.2709 0.377742 55.1604 0.688855 55.3593 0.688855C55.5803 0.688855 55.3814 0.488854 55.5803 0.399966C55.8012 0.288854 56.0664 0.422186 56.1548 0.422186C56.42 0.488852 56.7073 0.688852 56.7073 0.977741C56.7073 1.3333 56.8399 1.46663 56.8399 2.1333C56.8399 2.26663 56.8399 2.44441 56.8178 2.59996C56.5526 4.1333 56.1106 5.51108 55.6686 6.91108C55.5361 7.39997 55.4919 7.91108 55.2709 8.35552C54.8731 9.06663 54.9836 9.84441 54.6742 10.5333C54.5858 10.7111 54.4974 10.8889 54.4532 11.1111C54.2543 11.9111 54.188 12.2222 53.9007 13.0666C53.4808 14.3111 53.2377 15.4889 52.9946 16.2889C52.8841 16.6666 52.7957 17.6 53.3703 17.6C53.8786 17.6 54.2764 17.6 54.8068 17.6C55.1825 17.6 55.7128 17.7777 56.0885 17.7777C56.4863 17.7777 56.6852 17.9777 56.8399 18.2444C56.9725 18.5111 56.9283 18.6666 56.9283 18.9111C56.9283 19.2889 56.7515 19.2666 56.7294 19.4222C56.641 20.2 56.5305 20.3777 55.757 20.4222C54.8952 20.4889 54.3206 20.4 53.5471 20.4C52.8399 20.4 52.1769 20.4222 51.4697 20.4222C51.2708 20.4222 50.9173 20.4222 50.7626 20.3333C50.5416 20.2222 50.1438 20.4444 49.9007 20.2C49.7681 20.0889 49.7018 19.8889 49.6355 19.8ZM51.7128 17.7555C51.8454 17.7555 52.0001 17.6666 52.0001 17.5333C52.0001 17.4 51.9117 17.1111 51.7791 17.1111C51.6465 17.1111 51.6465 17.2889 51.5802 17.4C51.4918 17.5555 51.5802 17.7555 51.7128 17.7555Z" fill="white"/>
<path d="M57.7019 19.8C57.4809 19.4222 57.5251 19.2889 57.5251 18.6C57.5251 18 57.724 17.5555 57.8345 17.0222C57.9008 16.8 58.0113 16.6 58.0334 16.3555C58.0997 15.8444 58.2544 15.3777 58.4312 14.8889C58.6522 14.2 58.9395 13.0222 59.2047 12.3777C59.3373 11.9777 59.6245 12.1555 59.7129 11.6889C59.7129 11.6222 59.4478 11.2222 59.492 11.1333C59.5803 10.7111 59.7792 10.1777 59.8013 9.88885C59.8234 9.57774 60.0002 9.48885 60.1107 8.9333C60.1991 8.51108 60.2875 7.66663 60.619 6.79997C60.7074 6.5333 60.9726 6.28885 60.9726 6.08885C60.9726 5.95552 60.9947 5.68885 60.9947 5.5333C60.9947 5.22219 61.1715 5.06663 61.4146 4.17774C61.4367 4.06663 61.4809 3.82219 61.4809 3.75552C61.4809 3.39996 61.3041 3.1333 60.9947 3.1333C60.7074 3.1333 60.4201 3.04441 60.1991 3.04441C60.0665 3.04441 59.6908 3.1333 59.2268 3.1333C58.9174 3.1333 59.1605 2.99997 59.0058 2.95552C58.9174 2.95552 58.8953 3.06663 58.6964 3.1333C58.5859 3.15552 58.3207 3.19997 58.2102 3.1333C57.9892 3.02219 57.7461 2.66663 57.7461 2.44441C57.7461 2.24441 57.7682 2.02219 57.7682 1.7333C57.7682 1.22219 57.7019 1.02219 58.0555 0.644408C58.166 0.533297 58.3428 0.444409 58.5417 0.444409C58.9174 0.444409 59.8234 0.355522 60.1107 0.355522C60.3096 0.355522 60.5306 0.488853 60.7295 0.488853C61.0389 0.488853 61.3925 0.311077 61.724 0.355522C62.2765 0.377744 62.2986 0.377742 62.8732 0.377742C63.3373 0.377742 63.2268 0.688855 63.4257 0.688855C63.6467 0.688855 63.4478 0.488854 63.6467 0.399966C63.8676 0.288854 64.1328 0.422186 64.2212 0.422186C64.4864 0.488852 64.7737 0.688852 64.7737 0.977741C64.7737 1.3333 64.9063 1.46663 64.9063 2.1333C64.9063 2.26663 64.9063 2.44441 64.8842 2.59996C64.619 4.1333 64.177 5.51108 63.735 6.91108C63.6025 7.39997 63.5583 7.91108 63.3373 8.35552C62.9395 9.06663 63.05 9.84441 62.7406 10.5333C62.6522 10.7111 62.5638 10.8889 62.5196 11.1111C62.3207 11.9111 62.2544 12.2222 61.9671 13.0666C61.5472 14.3111 61.3041 15.4889 61.061 16.2889C60.9505 16.6666 60.8621 17.6 61.4367 17.6C61.945 17.6 62.3428 17.6 62.8732 17.6C63.2489 17.6 63.7792 17.7777 64.1549 17.7777C64.5527 17.7777 64.7516 17.9777 64.9063 18.2444C65.0389 18.5111 64.9947 18.6666 64.9947 18.9111C64.9947 19.2889 64.8179 19.2666 64.7958 19.4222C64.7074 20.2 64.5969 20.3777 63.8234 20.4222C62.9616 20.4889 62.387 20.4 61.6135 20.4C60.9063 20.4 60.2433 20.4222 59.5361 20.4222C59.3373 20.4222 58.9837 20.4222 58.829 20.3333C58.608 20.2222 58.2102 20.4444 57.9671 20.2C57.8345 20.0889 57.7461 19.8889 57.7019 19.8ZM59.7792 17.7555C59.9118 17.7555 60.0665 17.6666 60.0665 17.5333C60.0665 17.4 59.9781 17.1111 59.8455 17.1111C59.7129 17.1111 59.7129 17.2889 59.6466 17.4C59.5582 17.5555 59.6466 17.7555 59.7792 17.7555Z" fill="white"/>
<path d="M66.2986 16.0445C66.3207 15.7779 66.166 15.6668 66.166 15.3779C66.166 15.2001 66.2323 15.0223 66.2323 14.8668C66.2323 14.6001 66.2986 13.1779 66.2323 12.889C66.166 12.6223 66.2986 12.2223 66.2323 11.9779C66.1439 11.5112 66.2544 10.689 66.2544 9.26676C66.2544 8.97787 66.2765 8.66676 66.2544 8.37787C66.2323 8.17787 66.2544 7.95565 66.2544 7.75565C66.2544 6.55565 66.387 6.22231 66.2765 5.97787C66.166 5.68898 66.2986 5.42232 66.2765 5.13343C66.1439 3.77787 66.2986 2.13342 66.2986 1.77787C66.2986 1.5112 66.2765 1.3112 66.3207 1.06676C66.3428 0.955648 66.4312 0.866758 66.5196 0.777869C66.608 0.68898 66.6522 0.555648 66.6964 0.511203C66.8953 0.288981 67.3152 0.400092 67.5362 0.400092C68.0887 0.400092 68.84 0.333424 69.0168 0.711202C69.1494 1.00009 69.3041 1.1112 69.3041 1.5112C69.3041 2.06676 69.3704 2.88898 69.3704 3.15565C69.3925 3.93342 69.282 4.44453 69.3041 5.20009C69.3262 5.9112 69.282 6.66676 69.282 7.46676C69.282 7.68898 69.061 7.88898 69.061 8.17787C69.061 8.37787 69.282 8.40009 69.282 9.46676C69.282 10.3556 69.3704 12.2001 69.3704 13.9556C69.3704 14.1556 69.282 15.0223 69.282 15.2223C69.282 15.3334 69.1936 15.5779 69.1936 15.6445C69.1936 15.9556 69.3704 16.0001 69.3925 16.3112C69.3925 16.489 69.3041 16.8001 69.4588 17.289C69.5472 17.5779 69.9671 17.5112 70.0555 17.5112C70.5417 17.5112 70.9395 17.5779 71.4257 17.5779C71.7351 17.5779 71.9782 17.7556 72.0445 17.7556C72.3318 17.7556 72.5307 18.0223 72.5307 18.2223C72.5307 18.5779 72.6191 18.8445 72.6191 19.2001C72.6191 19.4223 72.6191 19.7112 72.5307 19.8223C72.3539 20.1112 71.9119 20.4001 71.492 20.4001C70.7848 20.4001 70.4975 20.4001 69.7682 20.4001C69.5914 20.4001 69.2599 20.3334 69.0831 20.4001C68.7296 20.5112 68.3318 20.3779 67.9782 20.4001C67.5804 20.4223 67.2268 20.4223 66.829 20.3112C66.3207 20.1779 66.2765 19.9556 66.2765 19.1334C66.2986 18.089 66.1218 17.2223 66.2986 16.0445ZM67.8456 9.13343C67.9119 9.13343 67.9782 9.00009 67.9782 8.93342C67.9782 8.75565 67.7572 8.62231 67.6025 8.62231C67.5362 8.62231 67.6246 8.84454 67.6246 8.93342C67.6467 9.08898 67.6467 9.13343 67.8456 9.13343Z" fill="white"/>
<path d="M74.0776 18.711C74.0776 17.4444 73.8788 16.0666 74.0776 14.8221C74.0997 14.6444 73.9892 13.8666 73.9892 13.711C73.9892 13.1555 73.9229 12.9555 73.9229 12.7333C73.9229 12.3555 73.702 11.7555 73.5694 11.3777C73.481 11.1777 73.3484 10.711 73.1937 10.1777C73.0169 9.55548 72.9948 8.99992 72.9948 8.86658C72.9948 8.51103 72.7959 8.24436 72.7075 7.88881C72.597 7.39992 72.5307 6.84436 72.3539 6.35548C72.3318 6.26659 72.0887 5.7777 72.0666 5.5777C72.0445 5.39992 72.0003 5.1777 72.0003 5.08881C71.9782 4.86658 71.8014 4.5777 71.713 4.04436L71.5804 2.95547C71.4699 2.39992 71.1826 1.9777 71.1826 1.28881C71.1826 0.91103 71.271 0.422139 71.7793 0.422139C72.1329 0.422139 72.2876 0.333252 72.6854 0.333252C72.9064 0.333252 73.1053 0.399919 73.3042 0.399919C73.7683 0.399919 73.9892 0.688808 74.1439 1.06659C74.2765 1.48881 74.3207 2.02214 74.3649 2.42214C74.5638 3.62214 74.5859 3.7777 74.7627 4.22214C74.9616 4.73325 75.0279 4.9777 75.1384 5.7777C75.2268 6.3777 75.5141 6.48881 75.5141 6.68881C75.5141 7.08881 75.8014 7.55547 76.0224 6.62214C76.155 6.04436 76.1329 5.42214 76.4423 4.7777C76.5528 4.51103 76.4644 4.28881 76.5528 4.02214C76.7296 3.39992 76.818 2.62214 77.0611 1.9777C77.1937 1.62214 77.1716 1.26658 77.26 0.933251C77.3484 0.666585 77.481 0.577697 77.7682 0.51103C77.9671 0.444364 78.3207 0.377696 78.5196 0.377696C78.7848 0.377696 79.0942 0.488809 79.4036 0.466587C79.8235 0.39992 79.9119 0.777696 79.9119 1.15547C79.8898 1.55547 79.7351 1.93325 79.6467 2.31103C79.5583 2.62214 79.5141 2.99992 79.4257 3.22214C79.1605 3.88881 79.2489 4.51103 78.9174 5.3777C78.8511 5.55547 78.8511 5.73325 78.8069 5.88881C78.7185 6.11103 78.6964 6.68881 78.5859 6.88881C78.3649 7.35547 78.387 7.55547 78.2986 7.97769C78.2765 8.1777 77.9229 9.24436 77.7461 10.3333C77.7461 10.4221 77.5694 10.711 77.4589 10.6444C77.3484 10.5777 76.9506 10.2666 76.9506 10.6666C76.9506 10.7555 76.9506 10.8888 77.1274 10.8888C77.2379 10.8888 77.4147 10.8666 77.481 10.9555C77.5694 11.0666 77.3705 11.4666 77.3705 11.7555C77.3705 12.0444 77.1495 12.3333 77.1495 12.6666C77.1495 13.0444 77.039 13.2444 77.039 13.5555C77.039 14.1777 77.1274 14.8221 77.039 15.4444C77.0169 15.7333 76.9727 16.0666 77.039 16.5999C77.1053 17.0888 77.039 17.6666 77.039 18.1555C77.039 18.8666 77.0611 19.4444 76.9506 19.711C76.8622 19.911 76.6633 20.2666 76.3981 20.2666C76.1329 20.2888 75.8014 20.3999 75.5362 20.3999C74.9395 20.3999 75.0279 20.1333 74.4975 20.0444C74.2765 20.0221 74.0776 20.0444 74.0776 19.6221C74.1218 19.5777 74.0776 19.1999 74.0776 18.711ZM75.2268 7.93325C75.1384 7.99992 75.0058 7.86659 75.0058 8.06659C75.0058 8.19992 75.0721 8.28881 75.1826 8.28881C75.3815 8.28881 75.4699 8.08881 75.4699 7.88881C75.4478 7.62214 75.3373 7.88881 75.2268 7.93325ZM77.5915 4.99992C77.7241 4.99992 77.8124 4.91103 77.7682 4.82214C77.6798 4.71103 77.6357 4.68881 77.5031 4.68881C77.3926 4.68881 77.3705 4.7777 77.4147 4.82214C77.5031 4.88881 77.481 4.99992 77.5915 4.99992Z" fill="white"/>
<path d="M8.66274 15.2667C8.59645 15.6667 9.12683 16.0223 10.2981 16.0223C11.4694 16.0223 11.9777 15.6667 11.9114 15.2667C11.8672 15.089 8.68484 15.1112 8.66274 15.2667Z" fill="white"/>
<path d="M3.38113 2.26674C3.75682 2.88896 4.28721 3.17785 3.84522 3.17785C3.80102 3.17785 3.75682 3.20007 3.75682 3.24452C3.75682 3.33341 3.84522 3.42229 3.84522 3.51118C3.84522 3.55563 3.82312 3.60007 3.77892 3.60007C3.73472 3.60007 3.66842 3.5334 3.62423 3.5334H3.60213C3.58003 3.5334 3.58003 3.55563 3.58003 3.55563C3.58003 3.57785 3.58003 3.57785 3.58003 3.60007C3.60213 3.68896 3.71262 3.75563 3.71262 3.84452C3.71262 3.86674 3.71262 3.88896 3.69052 3.91118C3.53583 4.20007 3.49163 4.51118 3.35903 4.80007C3.80102 4.40007 4.5303 3.77785 4.5303 3.26674C4.5524 2.68896 2.60765 1.00007 3.38113 2.26674Z" fill="white"/>
<path d="M15.5137 3.24428C15.5137 3.77761 16.2209 4.37761 16.6849 4.77761C16.5523 4.48872 16.5081 4.17761 16.3534 3.88872C16.3314 3.8665 16.3313 3.84428 16.3313 3.82205C16.3313 3.73316 16.4418 3.6665 16.4639 3.57761C16.4639 3.57761 16.4639 3.55539 16.4639 3.53316C16.4639 3.51094 16.4639 3.51094 16.4418 3.51094H16.4197C16.3535 3.51094 16.3093 3.57761 16.2651 3.57761C16.2209 3.57761 16.1988 3.53316 16.1988 3.48872C16.1988 3.39983 16.2872 3.31094 16.2872 3.22205C16.2872 3.17761 16.2651 3.15539 16.1988 3.15539C15.7347 3.15539 16.2651 2.88872 16.6628 2.24428C17.4805 0.977611 15.5137 2.6665 15.5137 3.24428Z" fill="white"/>
<path d="M13.0166 11.9777C12.1768 11.0888 12.4641 9.68877 11.6243 8.77766C11.4917 8.91099 11.3371 9.04433 11.1824 9.13322C10.9835 8.55544 10.5857 7.51099 9.98899 7.48877C9.4144 7.57766 9.12711 8.68877 8.95031 9.13322C8.79562 9.02211 8.68512 8.84433 8.50832 8.8221C7.73484 9.66655 7.93374 10.911 7.27076 11.8221C7.04976 12.1332 6.87296 12.4221 6.74037 12.7777C6.54147 13.2443 6.38678 13.7777 6.58567 14.2888C6.78457 14.7332 7.31495 14.911 7.75694 14.9332C8.26523 14.9777 8.92821 14.6443 9.2818 14.3332C8.81772 13.911 8.06633 13.4221 7.86744 12.7999C7.77904 12.5332 7.88954 12.2221 8.17683 12.1554C8.99451 11.9332 9.85639 12.3332 10.6741 12.1332C11.1603 12.0443 11.558 11.8888 12.0663 11.9777C12.3757 12.0221 12.3978 12.3999 12.3094 12.6443C12.0663 13.3554 11.4476 13.8443 10.8951 14.3554C11.4917 14.8666 12.663 15.111 13.326 14.6221C13.6796 14.2221 13.7238 13.6221 13.7238 13.111C13.768 12.5554 13.326 12.311 13.0166 11.9777Z" fill="white"/>
<path d="M6.47486 7.53335C6.36436 7.95557 6.60745 8.37779 7.02734 8.4889C7.44723 8.60002 7.86712 8.35557 7.97762 7.93335C8.08811 7.51112 7.71242 7.53335 7.29254 7.44446C6.87265 7.31113 6.58535 7.11112 6.47486 7.53335Z" fill="white"/>
<path d="M8.13262 8.55544C8.15472 8.46655 7.82322 8.75544 7.11604 8.66655C6.40886 8.57766 5.92267 7.93322 5.92267 8.04433C5.79007 9.08877 8.02212 9.33322 8.13262 8.55544Z" fill="white"/>
<path d="M13.127 8.4666C13.5469 8.35549 13.79 7.93327 13.6795 7.51105C13.569 7.08883 13.2817 7.28883 12.8619 7.39994C12.442 7.51105 12.0663 7.48882 12.1768 7.88882C12.2873 8.33327 12.7293 8.57771 13.127 8.4666Z" fill="white"/>
<path d="M13.039 8.68877C12.3319 8.77766 12.0225 8.46655 12.0225 8.57766C12.1109 9.33321 14.365 9.11099 14.2324 8.06654C14.2324 7.95543 13.7462 8.59988 13.039 8.68877Z" fill="white"/>
<path d="M12.8175 5.5333C12.8175 5.5333 12.3092 4.59997 11.2705 5.57775C11.2705 5.57775 12.5081 5.28885 12.8175 5.5333Z" fill="white"/>
<path d="M8.79501 5.64453C8.79501 5.64453 8.41932 4.64454 7.24805 5.46676C7.24805 5.46676 8.50772 5.35564 8.79501 5.64453Z" fill="white"/>
<path d="M7.80081 7.28882C8.1323 7.42215 8.77319 7.62215 8.90578 7.33326C8.97208 7.19993 8.94998 6.97771 8.97208 6.82215C8.99418 6.59993 8.86158 6.37771 8.68479 6.31104C8.39749 6.19993 5.08258 5.4666 4.61849 6.48882C4.35329 7.08882 4.57429 7.44437 4.81738 7.66659C4.97208 7.82215 5.28147 7.84437 5.32567 7.75548C5.32567 7.75548 5.12677 7.48882 5.34777 6.97771C5.63506 6.33326 6.16545 6.59993 6.91683 6.91104C7.22622 6.99993 7.51352 7.15548 7.80081 7.28882Z" fill="white"/>
<path d="M11.4481 6.26659C11.2713 6.33326 11.1387 6.55548 11.1387 6.7777C11.1387 6.93326 11.1387 7.15548 11.1829 7.28881C11.3155 7.59992 11.9564 7.42215 12.2878 7.28881C12.5972 7.1777 12.8845 7.04437 13.1718 6.93326C13.9232 6.66659 14.4536 6.42215 14.7188 7.06659C14.9398 7.59992 14.7188 7.84437 14.7188 7.84437C14.763 7.95548 15.0724 7.93326 15.2271 7.7777C15.4702 7.55548 15.7133 7.22215 15.4702 6.59992C15.0724 5.5777 11.7354 6.1777 11.4481 6.26659Z" fill="white"/>
<path d="M18.9392 8.59999C18.9834 8.62222 19.0055 8.64444 19.0497 8.68888C19.2928 8.88888 19.4696 9.24444 19.4696 9.24444C19.4696 9.02222 19.3149 8.46666 19.1602 8.22222C18.9613 7.93333 18.7183 7.7111 18.5415 7.48888C18.1658 7.02222 17.9448 6.5111 17.9006 6.26666C17.8122 5.73333 17.8122 5.04444 17.9448 4.68888C18.3426 3.68888 18.5857 4.04444 18.9392 3.1111C19.116 2.26666 18.8951 1.17777 18.2321 0.622217C17.7901 0.222217 17.4586 0.0888821 16.9061 0.0444377C15.8453 0.155549 15.4254 0.266659 14.5636 1.08888C14.2763 1.37777 14.1658 1.68888 13.6796 1.62222C12.9945 1.51111 12.5746 1.19999 11.9116 1.06666C11.3812 0.999994 10.9614 1.04444 10.3647 1.26666C9.39229 1.42222 8.9503 0.866659 8.19892 0.97777C7.44754 1.1111 7.49174 1.42222 6.74036 1.51111C6.29837 1.53333 6.12157 1.55555 5.83428 1.28888C5.59119 1.06666 5.1271 0.488883 4.39782 0.222216C3.80113 -6.09085e-06 2.74036 -0.133338 1.87848 0.355551C1.105 0.933329 0.751411 1.44444 0.884008 2.39999C1.0387 3.33333 1.41439 3.48888 1.87848 4.33333C2.12158 4.77777 2.36467 5.33333 2.16578 6.13333C2.14368 6.22222 2.01108 7.02222 1.54699 7.48888C1.326 7.68888 1.1271 7.9111 0.928206 8.22222C0.77351 8.44444 0.618815 9.02222 0.618815 9.24444C0.618815 9.24444 0.77351 8.88888 1.0387 8.68888C1.0829 8.64444 1.1492 8.59999 1.2155 8.55555C0.552516 9.86666 3.02792e-05 11.2222 0.088428 12.6889C0.132627 13.2 0.132626 13.7778 0.464118 14.2222C0.464118 14.0444 0.464118 13.8444 0.442019 13.6667H0.574615C0.795609 14.8667 1.326 16.0889 2.32047 16.8667C2.18787 16.5555 2.07738 16.2222 2.05528 15.8667C2.82876 16.9333 3.80113 17.8444 4.90611 18.5333C6.45307 19.5555 8.24312 20.1555 10.0111 20.6889C10.2984 20.6667 10.5415 20.5333 10.8067 20.4444C12.7072 19.7555 14.5636 18.9111 16.221 17.7333C16.9061 17.2444 17.5691 16.6889 18.1216 16.0444C18.0774 16.3333 17.989 16.6 17.8785 16.8667C18.873 16.0667 19.4033 14.8667 19.6243 13.6667H19.7569C19.7569 13.8444 19.7348 14.0444 19.7348 14.2222C20.0663 13.7778 20.0442 13.2 20.1105 12.6889C20.1326 11.2444 19.6022 9.9111 18.9392 8.59999ZM19.3591 12.1333C19.3149 12.6222 19.337 13.1555 19.0276 13.5555C19.0276 13.3778 19.0276 13.2222 19.0497 13.0444H18.9392C18.7625 14.0222 18.3647 15 17.6354 15.7111C17.768 15.4444 17.8343 15.1555 17.8343 14.8667C17.6575 14.3333 17.326 13.8444 17.1713 13.2889C17.4365 13.5111 17.5691 13.8 17.8343 14C17.6133 13.2222 17.105 12.3778 16.4641 11.7778C16.4641 12.0889 16.5525 12.5111 16.5967 12.8222C16.6851 13.3778 16.7956 13.9555 16.7072 14.5111C16.7072 14.5111 15.9337 13.5555 15.8674 13.7333C16.4199 14.4444 16.2652 15.8667 16.0442 16.2444C15.9779 15.8667 15.9779 15.7333 15.8011 15.5778C15.6906 15.9555 15.7348 16.4667 15.2044 17.1778C13.8343 18.0667 12.3094 18.7333 10.7625 19.2889C10.5194 19.3778 10.2763 19.4889 10.0111 19.5111C8.37572 19.0222 6.71826 18.4667 5.2818 17.5333C5.1934 17.4667 5.105 17.4222 5.0166 17.3555C4.35362 16.5555 4.39782 16 4.28732 15.5778C4.13263 15.7333 4.13263 15.8667 4.04423 16.2444C3.82323 15.8667 3.66854 14.4222 4.22102 13.7333C4.15472 13.5555 3.38124 14.5111 3.38124 14.5111C3.29285 13.9555 3.40334 13.3778 3.49174 12.8222C3.53594 12.5111 3.62434 12.0889 3.62434 11.7778C2.98345 12.4 2.45307 13.2444 2.25417 14C2.51937 13.7778 2.65196 13.4889 2.91716 13.2889C2.76246 13.8222 2.45307 14.3333 2.25417 14.8667C2.25417 15.0667 2.29837 15.2667 2.36467 15.4667C1.79008 14.7778 1.45859 13.9111 1.3039 13.0667H1.1934C1.1934 13.2444 1.2155 13.4 1.2155 13.5778C0.906107 13.1778 0.928206 12.6444 0.884008 12.1555C0.817709 10.8 1.326 9.55555 1.94478 8.33333C1.90058 8.37777 1.83428 8.42222 1.79008 8.46666C1.56909 8.64444 1.41439 8.97777 1.41439 8.97777C1.41439 8.77777 1.54699 8.24444 1.70169 8.04444C1.87848 7.77777 2.14368 7.59999 2.27627 7.37777C2.60776 6.75555 2.80666 5.97777 2.82876 5.88888C2.87296 5.06666 2.78456 4.82222 2.43097 4.17777C1.98898 3.37777 1.90058 3.59999 1.63539 2.73333C1.43649 1.86666 1.96688 1.04444 2.80666 0.711104C3.38124 0.599993 3.88953 0.511104 4.41992 0.866659C4.9503 1.22221 5.2376 1.42222 5.50279 1.68888C5.76798 1.95555 6.32047 2.06666 6.74036 2.04444C7.64644 1.95555 7.75693 1.53333 8.44202 1.42221C9.1271 1.3111 9.59119 1.86666 10.431 1.68888C11.0276 1.46666 11.3812 1.44444 11.8674 1.48888C12.4862 1.62222 13.0387 1.95555 13.6796 2.06666C14.1216 2.13333 14.3868 2.02222 14.6078 1.73333C15.0056 1.22222 15.2928 1.02222 16.1547 0.799995C16.663 0.755551 17.2597 0.666662 17.6796 1.02222C18.2984 1.53333 18.5857 2.44444 18.3426 3.3111C17.989 3.97777 17.5912 3.93333 17.4144 4.7111C17.3039 5.15555 17.3923 5.62222 17.5028 6.24444C17.5912 6.73333 17.7238 6.93333 17.989 7.39999C18.1216 7.64444 18.2984 7.82221 18.4973 8.08888C18.652 8.3111 18.8509 8.79999 18.8509 8.99999C18.8509 8.99999 18.6962 8.66666 18.4752 8.48888C18.4531 8.46666 18.4089 8.44444 18.3868 8.42221C18.9172 9.57777 19.4254 10.8222 19.3591 12.1333Z" fill="white"/>
</g>
<defs>
<clipPath id="clip0">
<rect width="80" height="26" fill="white"/>
</clipPath>
</defs>
</svg>
