<svg width="12" height="14" viewBox="0 0 12 14" fill="none" xmlns="http://www.w3.org/2000/svg">
<path fill-rule="evenodd" clip-rule="evenodd" d="M6 13.7084C6 13.7084 0.75 10.9618 0.75 5.54175C0.75 2.64229 3.10054 0.291748 6 0.291748C8.89946 0.291748 11.25 2.64229 11.25 5.54175C11.25 10.9618 6 13.7084 6 13.7084ZM6 0.875081C3.42692 0.875081 1.33333 2.96867 1.33333 5.54175C1.33333 9.84617 4.96808 12.3962 6.00087 13.0338C7.03454 12.3988 10.6667 9.85987 10.6667 5.54175C10.6667 2.96867 8.57308 0.875081 6 0.875081ZM6 8.16675C4.55012 8.16675 3.375 6.99162 3.375 5.54175C3.375 4.09187 4.55012 2.91675 6 2.91675C7.44987 2.91675 8.625 4.09187 8.625 5.54175C8.625 6.99162 7.44987 8.16675 6 8.16675ZM6 3.50008C4.87242 3.50008 3.95833 4.41417 3.95833 5.54175C3.95833 6.66933 4.87242 7.58342 6 7.58342C7.12758 7.58342 8.04167 6.66933 8.04167 5.54175C8.04167 4.41417 7.12758 3.50008 6 3.50008Z" fill="#212832"/>
</svg>
