<svg width="8" height="14" viewBox="0 0 8 14" fill="none" xmlns="http://www.w3.org/2000/svg">
<path d="M0.255436 7.4564H1.99143V13.7742C1.99143 13.8989 2.10576 14 2.24687 14H5.19031C5.33141 14 5.44574 13.8989 5.44574 13.7742V7.48616H7.44141C7.57117 7.48616 7.68035 7.40008 7.69516 7.28614L7.99826 4.96025C8.00659 4.89625 7.98365 4.83217 7.93522 4.78416C7.88674 4.73611 7.81736 4.70861 7.74456 4.70861H5.44584V3.25062C5.44584 2.81111 5.71354 2.58824 6.24158 2.58824C6.31683 2.58824 7.74456 2.58824 7.74456 2.58824C7.88567 2.58824 8 2.48712 8 2.36243V0.227477C8 0.102742 7.88567 0.00167097 7.74456 0.00167097H5.67323C5.65862 0.00103871 5.62618 0 5.57836 0C5.21897 0 3.96973 0.0623677 2.98293 0.864884C1.88956 1.7542 2.04155 2.81901 2.07787 3.00363V4.70856H0.255436C0.114333 4.70856 0 4.80963 0 4.93437V7.23055C0 7.35528 0.114333 7.4564 0.255436 7.4564Z" fill="white"/>
</svg>
