<svg width="44" height="34" viewBox="0 0 44 34" fill="none" xmlns="http://www.w3.org/2000/svg">
<path d="M26.3514 16.4529C25.8108 15.8237 25.0676 15.4043 24.2568 15.4043H13.8514C13.5135 15.4043 13.1757 15.6839 13.1757 16.1033C13.1757 16.5228 13.5135 16.8024 13.8514 16.8024H24.2568C24.6622 16.8024 25.0676 17.0122 25.3378 17.2918C25.6081 17.6413 25.7432 18.0608 25.6081 18.4802L25 21.9757H17.5676C17.2297 21.9757 16.8919 22.2553 16.8919 22.6748C16.8919 23.0942 17.2297 23.3739 17.5676 23.3739H24.7973L24.1892 26.7295C24.1216 27.2188 23.6486 27.5684 23.1757 27.5684H10.2027C9.72973 27.5684 9.32432 27.2188 9.18919 26.7295L6.55405 11.5593C6.48649 11.2097 6.21622 11 5.87838 11H0.675676C0.337838 11 0 11.2796 0 11.6991C0 12.1185 0.337838 12.3982 0.675676 12.3982H5.33784L7.90541 27.079C8.04054 28.0577 8.71622 28.7568 9.59459 29.0365C9.25676 29.5258 8.98649 30.155 8.98649 30.8541C8.98649 32.6018 10.3378 34 12.027 34C13.7162 34 15.0676 32.6018 15.0676 30.8541C15.0676 30.2249 14.8649 29.5957 14.527 29.1064H18.6487C18.3108 29.5957 18.1081 30.2249 18.1081 30.8541C18.1081 32.6018 19.4595 34 21.1487 34C22.8378 34 24.1892 32.6018 24.1892 30.8541C24.1892 30.155 23.9865 29.5258 23.6486 29.0365C24.527 28.8267 25.2703 28.0577 25.473 27.079L26.9595 18.8298C27.0946 17.9909 26.8919 17.152 26.3514 16.4529ZM13.7162 30.7842C13.7162 31.7629 12.973 32.5319 12.027 32.5319C11.0811 32.5319 10.3378 31.7629 10.3378 30.7842C10.3378 29.8055 11.0811 29.0365 12.027 29.0365C12.973 29.0365 13.7162 29.8055 13.7162 30.7842ZM21.2162 32.5319C20.2703 32.5319 19.527 31.7629 19.527 30.7842C19.527 29.8055 20.2703 29.0365 21.2162 29.0365C22.1622 29.0365 22.9054 29.8055 22.9054 30.7842C22.9054 31.7629 22.1622 32.5319 21.2162 32.5319Z" fill="#212832"/>
<path d="M32 23C38.0751 23 43 18.0751 43 12C43 5.92487 38.0751 1 32 1C25.9249 1 21 5.92487 21 12C21 18.0751 25.9249 23 32 23Z" fill="#212832" stroke="white" stroke-width="2"/>
<path d="M29.0048 15V8.77L27.6848 9.18L27.4948 8.54L29.2048 7.95H29.7848V15H29.0048ZM31.2788 15V14.39L33.8188 12.15C34.3655 11.67 34.7455 11.27 34.9588 10.95C35.1722 10.63 35.2788 10.2967 35.2788 9.95C35.2788 9.55 35.1422 9.22667 34.8688 8.98C34.5955 8.73333 34.2622 8.61 33.8688 8.61C33.4888 8.61 33.1522 8.70667 32.8588 8.9C32.5722 9.09333 32.2822 9.39667 31.9888 9.81L31.4088 9.39C31.7488 8.88333 32.1088 8.51 32.4888 8.27C32.8688 8.02333 33.3488 7.9 33.9288 7.9C34.5555 7.9 35.0722 8.09 35.4788 8.47C35.8922 8.84333 36.0988 9.32 36.0988 9.9C36.0988 10.38 35.9688 10.8067 35.7088 11.18C35.4488 11.5533 34.9888 12.0333 34.3288 12.62L32.4588 14.28H36.1688V15H31.2788Z" fill="white"/>
</svg>
