<svg width="16" height="10" viewBox="0 0 16 10" fill="none" xmlns="http://www.w3.org/2000/svg">
<path d="M15.5919 9.66978C15.0345 10.0409 12.767 10.1513 12.2182 9.72745C11.9171 9.49515 11.6418 9.20424 11.3802 8.92762C11.1976 8.734 10.9898 8.64 10.8327 8.42996C10.7048 8.2579 10.6168 8.05513 10.4816 7.88588C10.2537 7.60107 9.90257 7.35892 9.62465 7.70679C9.20665 8.22977 9.6906 9.25792 9.13298 9.64892C8.94593 9.7802 8.75734 9.81817 8.52375 9.79942L8.00628 9.8245C7.7021 9.83083 7.22058 9.83364 6.87494 9.7673C6.48893 9.69346 6.17063 9.46936 5.82212 9.3048C5.15995 8.99279 4.52888 8.56756 4.0489 7.97848C2.74265 6.37437 0.987959 4.16805 0.306376 2.15113C0.165869 1.73669 -0.204038 0.916467 0.146899 0.560858C0.624228 0.192356 2.96786 0.0880414 3.33313 0.658375C3.4818 0.889743 3.57533 1.22941 3.68032 1.49172C3.8109 1.81897 3.88193 2.12769 4.08618 2.41743C4.26706 2.67459 4.40073 2.93291 4.54079 3.21491C4.69806 3.53114 4.84629 3.83447 5.03753 4.12585C5.16723 4.32393 5.51023 4.71752 5.72683 4.74706C6.25578 4.81902 6.22269 3.45285 6.18343 3.11904C6.14593 2.79765 6.136 2.45681 6.14593 2.13074C6.15453 1.85272 6.17813 1.46101 6.02307 1.23387C5.77051 0.863488 5.20804 1.1408 5.16392 0.643138C5.257 0.501785 5.23715 0.376373 5.85786 0.159304C6.34643 -0.0115852 6.66208 -0.00619381 6.98434 0.0212328C7.64166 0.0772582 8.33846 -0.111915 8.97262 0.11453C9.57833 0.331365 9.4848 1.24629 9.46451 1.79482C9.43738 2.54378 9.46627 3.27446 9.46451 4.0342C9.46363 4.38043 9.45083 4.71681 9.84743 4.68892C10.2198 4.66243 10.2575 4.32979 10.435 4.05506C10.6823 3.67226 10.9088 3.2843 11.1605 2.90267C11.4996 2.38719 11.6017 1.80795 11.9209 1.27981C12.0351 1.09064 12.1333 0.677831 12.3091 0.528508C12.4423 0.415754 12.6951 0.464044 12.8561 0.464044H13.239C13.5324 0.467795 13.8315 0.472249 14.1326 0.483501C14.5665 0.499441 15.0524 0.399346 15.4827 0.46381C17.3391 0.742296 13.1495 4.96248 13.3674 5.71543C13.5183 6.23536 14.4738 6.81788 14.8188 7.24405C15.2787 7.81087 16.6884 8.94052 15.5919 9.66978Z" fill="white"/>
</svg>
