<svg width="14" height="14" viewBox="0 0 14 14" fill="none" xmlns="http://www.w3.org/2000/svg">
<path d="M10.1364 0H3.86341C1.73313 0 0 1.73321 0 3.86349V10.1365C0 12.2669 1.73313 14 3.86341 14H10.1364C12.2669 14 14 12.2668 14 10.1365V3.86349C14.0001 1.73321 12.2669 0 10.1364 0ZM12.7579 10.1365C12.7579 11.582 11.582 12.7579 10.1365 12.7579H3.86341C2.41805 12.7579 1.24215 11.582 1.24215 10.1365V3.86349C1.24215 2.41813 2.41805 1.24215 3.86341 1.24215H10.1364C11.5819 1.24215 12.7579 2.41813 12.7579 3.86349V10.1365H12.7579Z" fill="white"/>
<path d="M7 3.39282C5.01084 3.39282 3.39258 5.01109 3.39258 7.00027C3.39258 8.98936 5.01084 10.6075 7 10.6075C8.98916 10.6075 10.6074 8.98936 10.6074 7.00027C10.6074 5.01109 8.98916 3.39282 7 3.39282ZM7 9.36532C5.69584 9.36532 4.63472 8.30436 4.63472 7.00018C4.63472 5.69593 5.69575 4.63489 7 4.63489C8.30425 4.63489 9.36528 5.69593 9.36528 7.00018C9.36528 8.30436 8.30416 9.36532 7 9.36532Z" fill="white"/>
<path d="M10.7585 2.33936C10.5192 2.33936 10.2841 2.43624 10.1151 2.606C9.94529 2.77493 9.84766 3.01011 9.84766 3.25026C9.84766 3.48966 9.94537 3.72476 10.1151 3.89452C10.2841 4.06345 10.5192 4.16117 10.7585 4.16117C10.9987 4.16117 11.233 4.06345 11.4028 3.89452C11.5725 3.72476 11.6694 3.48958 11.6694 3.25026C11.6694 3.01011 11.5725 2.77493 11.4028 2.606C11.2339 2.43624 10.9987 2.33936 10.7585 2.33936Z" fill="white"/>
</svg>
