<svg width="11" height="12" viewBox="0 0 11 12" fill="none" xmlns="http://www.w3.org/2000/svg">
<path d="M5.5 0C3.38022 0 1.65 1.71592 1.65 3.81818C1.65 5.1321 2.32714 6.30116 3.35156 6.98864C1.38964 7.82309 0 9.75342 0 12H1.1C1.1 9.58327 3.06313 7.63636 5.5 7.63636C7.93687 7.63636 9.9 9.58327 9.9 12H11C11 9.75342 9.61036 7.82309 7.64844 6.98864C8.67286 6.30116 9.35 5.1321 9.35 3.81818C9.35 1.71592 7.61978 0 5.5 0ZM5.5 1.09091C7.0253 1.09091 8.25 2.30549 8.25 3.81818C8.25 5.33087 7.0253 6.54545 5.5 6.54545C3.9747 6.54545 2.75 5.33087 2.75 3.81818C2.75 2.30549 3.9747 1.09091 5.5 1.09091Z" fill="white"/>
</svg>
