<svg width="41" height="26" viewBox="0 0 41 26" fill="none" xmlns="http://www.w3.org/2000/svg">
<path d="M40.778 2.35889C40.7763 1.17039 39.8435 0.204712 38.6979 0.204712C38.6969 0.204712 38.6959 0.204712 38.6951 0.204712L2.27636 0.256615C1.72079 0.257355 1.19869 0.482488 0.806341 0.890475C0.414072 1.29854 0.198507 1.8406 0.199221 2.41673L0.227376 23.6409C0.228089 24.2171 0.445162 24.7586 0.838542 25.1656C1.23121 25.5718 1.75267 25.7953 2.30729 25.7953C2.30824 25.7953 2.30927 25.7953 2.31007 25.7953L38.7289 25.7434C39.8756 25.7417 40.8074 24.7729 40.806 23.5832L40.778 2.35889ZM27.2318 15.9999L36.6673 23.5892L4.31091 23.6352L13.804 15.9999C14.2578 15.6348 14.3405 14.9573 13.9885 14.4865C13.6365 14.0158 12.9832 13.93 12.5293 14.2952L2.3057 22.5181L2.28032 3.39581L19.9144 16.0349C20.0925 16.1625 20.299 16.2261 20.5058 16.2261C20.7133 16.2261 20.9211 16.1617 21.0994 16.0332L38.6993 3.34415L38.7259 22.5151L28.5064 14.2952C28.0527 13.9303 27.3993 14.0159 27.0472 14.4866C26.6952 14.9573 26.7778 15.6348 27.2318 15.9999ZM4.56438 2.41056L36.4131 2.36515L20.5041 13.8351L4.56438 2.41056Z" fill="#333333"/>
<path d="M40.7754 2.35891L40.972 2.35863V2.35861L40.7754 2.35891ZM38.6925 0.204725V0L38.6923 1.02196e-06L38.6925 0.204725ZM2.27376 0.256628L2.27402 0.461353H2.27403L2.27376 0.256628ZM0.803744 0.890488L0.664801 0.745632L0.664773 0.745661L0.803744 0.890488ZM0.196624 2.41674L1.93195e-06 2.417V2.41702L0.196624 2.41674ZM0.224779 23.641L0.421401 23.6408L0.224779 23.641ZM0.835945 25.1656L0.697368 25.3108L0.835945 25.1656ZM2.30747 25.7953V26H2.30774L2.30747 25.7953ZM38.7263 25.7434L38.7266 25.9481L38.7263 25.7434ZM40.8034 23.5832L41 23.583L40.8034 23.5832ZM27.2292 15.9999L27.3494 15.8379L27.2292 15.9999ZM36.6647 23.5892L36.665 23.7939L37.2398 23.7931L36.7849 23.4271L36.6647 23.5892ZM4.30831 23.6352L4.18811 23.4732L3.73112 23.8408L4.30858 23.84L4.30831 23.6352ZM13.8014 15.9999L13.9217 16.1619L13.8014 15.9999ZM13.9859 14.4865L14.1411 14.3607L13.9859 14.4865ZM12.5267 14.2952L12.4065 14.1331L12.5267 14.2952ZM2.30311 22.5182L2.10648 22.5185L2.10704 22.9346L2.4233 22.6802L2.30311 22.5182ZM2.27772 3.39583L2.38922 3.22718L2.08059 3.00598L2.0811 3.3961L2.27772 3.39583ZM19.9119 16.0349L20.0234 15.8663H20.0233L19.9119 16.0349ZM21.0968 16.0332L21.2087 16.2016L21.2088 16.2015L21.0968 16.0332ZM38.6967 3.34416L38.8933 3.34387L38.8928 2.95378L38.5848 3.17585L38.6967 3.34416ZM38.7233 22.5151L38.6032 22.6771L38.9205 22.9324L38.9199 22.5148L38.7233 22.5151ZM28.5038 14.2952L28.3835 14.4572L28.5038 14.2952ZM27.0446 14.4866L27.1998 14.6123L27.0446 14.4866ZM4.56179 2.41057L4.56151 2.20584L3.93063 2.20674L4.45029 2.5792L4.56179 2.41057ZM36.4105 2.36516L36.5224 2.53347L37.0411 2.15954L36.4102 2.16044L36.4105 2.36516ZM20.5015 13.8351L20.39 14.0038L20.5019 14.0839L20.6135 14.0035L20.5015 13.8351ZM40.972 2.35861C40.9701 1.05638 39.9487 1.02196e-06 38.6953 1.02196e-06V0.40945C39.7332 0.40945 40.5773 1.28442 40.5787 2.35921L40.972 2.35861ZM38.6953 1.02196e-06C38.6943 1.02196e-06 38.6933 1.02196e-06 38.6925 1.02196e-06V0.40945C38.6933 0.40945 38.6943 0.40945 38.6953 0.40945V1.02196e-06ZM38.6923 1.02196e-06L2.2735 0.0519038L2.27403 0.461353L38.6928 0.409449L38.6923 1.02196e-06ZM2.27351 0.0519038C1.66603 0.0527135 1.09403 0.299292 0.664801 0.745632L0.942687 1.03534C1.29815 0.665709 1.77035 0.462023 2.27402 0.461353L2.27351 0.0519038ZM0.664773 0.745661C0.235604 1.19212 -0.000779642 1.78635 1.93195e-06 2.417L0.393247 2.41647C0.3926 1.89488 0.587348 1.40499 0.942716 1.03531L0.664773 0.745661ZM1.93195e-06 2.41702L0.0281573 23.6413L0.421401 23.6408L0.393247 2.41645L1.93195e-06 2.41702ZM0.0281573 23.6413C0.0289379 24.272 0.266984 24.8656 0.697368 25.3108L0.974522 25.0204C0.618146 24.6517 0.422048 24.1624 0.421401 23.6408L0.0281573 23.6413ZM0.697368 25.3108C1.12697 25.7553 1.6983 26 2.30469 26V25.5906C1.80186 25.5906 1.33025 25.3884 0.974522 25.0204L0.697368 25.3108ZM2.30469 26C2.30564 26 2.30668 26 2.30747 26V25.5906C2.30668 25.5906 2.30564 25.5906 2.30469 25.5906V26ZM2.30774 26L38.7266 25.9481L38.7261 25.5387L2.3072 25.5906L2.30774 26ZM38.7266 25.9481C39.9811 25.9463 41.0015 24.8864 41 23.583L40.6068 23.5835C40.608 24.6593 39.7648 25.5371 38.7261 25.5387L38.7266 25.9481ZM41 23.583L40.972 2.35863L40.5787 2.35919L40.6068 23.5835L41 23.583ZM27.1089 16.1619L36.5445 23.7512L36.7849 23.4271L27.3494 15.8379L27.1089 16.1619ZM36.6644 23.3844L4.30804 23.4305L4.30858 23.84L36.665 23.7939L36.6644 23.3844ZM4.42851 23.7973L13.9217 16.1619L13.6813 15.8379L4.18811 23.4732L4.42851 23.7973ZM13.9217 16.1619C14.4615 15.7275 14.56 14.9211 14.1411 14.3607L13.8307 14.6122C14.1157 14.9934 14.0491 15.542 13.6812 15.8379L13.9217 16.1619ZM14.1411 14.3607C13.7224 13.801 12.946 13.6992 12.4065 14.1331L12.6469 14.4572C13.0152 14.1609 13.5453 14.2307 13.8308 14.6123L14.1411 14.3607ZM12.4065 14.1331L2.1829 22.3561L2.4233 22.6802L12.6469 14.4571L12.4065 14.1331ZM2.49973 22.5178L2.47435 3.39554L2.0811 3.3961L2.10648 22.5185L2.49973 22.5178ZM2.16624 3.56446L19.8004 16.2035L20.0233 15.8663L2.38922 3.22718L2.16624 3.56446ZM19.8004 16.2035C20.0052 16.3472 20.2683 16.4288 20.5032 16.4309V16.0214C20.3247 16.0236 20.1745 15.9777 20.0234 15.8663L19.8004 16.2035ZM20.5032 16.4309C20.739 16.4287 21.0035 16.3463 21.2087 16.2016L20.9849 15.8649C20.8333 15.9772 20.6823 16.0236 20.5032 16.0214V16.4309ZM21.2088 16.2015L38.8086 3.51248L38.5848 3.17585L20.9848 15.8649L21.2088 16.2015ZM38.5 3.34446L38.5267 22.5154L38.9199 22.5148L38.8933 3.34387L38.5 3.34446ZM38.8435 22.353L28.6239 14.1333L28.3835 14.4572L38.6032 22.6771L38.8435 22.353ZM28.624 14.1333C28.0849 13.6994 27.3081 13.801 26.8895 14.3608L27.1998 14.6123C27.4852 14.2308 28.0155 14.1611 28.3835 14.4572L28.624 14.1333ZM26.8896 14.3608C26.4705 14.921 26.569 15.7276 27.1089 16.1619L27.3494 15.8379C26.9814 15.542 26.9148 14.9934 27.1998 14.6123L26.8896 14.3608ZM4.56205 2.61529L36.4107 2.56989L36.4102 2.16044L4.56151 2.20584L4.56205 2.61529ZM36.2986 2.19685L20.3896 13.6668L20.6135 14.0035L36.5224 2.53347L36.2986 2.19685ZM20.613 13.6665L4.67327 2.24194L4.45029 2.5792L20.39 14.0038L20.613 13.6665Z" fill="#333333"/>
</svg>
