<svg width="9" height="13" viewBox="0 0 9 13" fill="none" xmlns="http://www.w3.org/2000/svg">
<path d="M4.5 0C2.01214 0 0 2.08988 0 4.67386C0 7.45814 2.84143 11.2974 4.01143 12.7596C4.26857 13.0801 4.73786 13.0801 4.995 12.7596C6.15857 11.2974 9 7.45814 9 4.67386C9 2.08988 6.98786 0 4.5 0ZM4.5 6.34309C4.07376 6.34309 3.66498 6.16723 3.36358 5.85418C3.06218 5.54114 2.89286 5.11657 2.89286 4.67386C2.89286 4.23115 3.06218 3.80657 3.36358 3.49353C3.66498 3.18049 4.07376 3.00462 4.5 3.00462C4.92624 3.00462 5.33502 3.18049 5.63642 3.49353C5.93782 3.80657 6.10714 4.23115 6.10714 4.67386C6.10714 5.11657 5.93782 5.54114 5.63642 5.85418C5.33502 6.16723 4.92624 6.34309 4.5 6.34309Z" fill="#464646"/>
</svg>
