<svg width="98" height="23" viewBox="0 0 98 23" fill="none" xmlns="http://www.w3.org/2000/svg">
<path d="M17.6475 14.8955C17.4814 17.1904 16.6318 18.9971 15.0986 20.3154C13.5752 21.6338 11.5635 22.293 9.06348 22.293C6.3291 22.293 4.17578 21.375 2.60352 19.5391C1.04102 17.6934 0.259766 15.1641 0.259766 11.9512V10.6475C0.259766 8.59668 0.621094 6.79004 1.34375 5.22754C2.06641 3.66504 3.09668 2.46875 4.43457 1.63867C5.78223 0.798828 7.34473 0.378906 9.12207 0.378906C11.583 0.378906 13.5654 1.03809 15.0693 2.35645C16.5732 3.6748 17.4424 5.52539 17.6768 7.9082H13.2822C13.1748 6.53125 12.7891 5.53516 12.125 4.91992C11.4707 4.29492 10.4697 3.98242 9.12207 3.98242C7.65723 3.98242 6.55859 4.50977 5.82617 5.56445C5.10352 6.60937 4.73242 8.23535 4.71289 10.4424V12.0537C4.71289 14.3584 5.05957 16.043 5.75293 17.1074C6.45605 18.1719 7.55957 18.7041 9.06348 18.7041C10.4209 18.7041 11.4316 18.3965 12.0957 17.7812C12.7695 17.1562 13.1553 16.1943 13.2529 14.8955H17.6475ZM32.5742 17.6055H24.8691L23.4043 22H18.7314L26.6709 0.671875H30.7432L38.7266 22H34.0537L32.5742 17.6055ZM26.0557 14.0459H31.3877L28.707 6.0625L26.0557 14.0459ZM48.6143 14.1924H45.1133V22H40.7188V0.671875H48.6436C51.1631 0.671875 53.1064 1.2334 54.4736 2.35645C55.8408 3.47949 56.5244 5.06641 56.5244 7.11719C56.5244 8.57227 56.207 9.78809 55.5723 10.7646C54.9473 11.7314 53.9951 12.5029 52.7158 13.0791L57.3301 21.7949V22H52.6133L48.6143 14.1924ZM45.1133 10.6328H48.6582C49.7617 10.6328 50.6162 10.3545 51.2217 9.79785C51.8271 9.23145 52.1299 8.45508 52.1299 7.46875C52.1299 6.46289 51.8418 5.67187 51.2656 5.0957C50.6992 4.51953 49.8252 4.23145 48.6436 4.23145H45.1133V10.6328ZM76.7539 19.3047C75.9629 20.252 74.8447 20.9893 73.3994 21.5166C71.9541 22.0342 70.3525 22.293 68.5947 22.293C66.749 22.293 65.1279 21.8926 63.7314 21.0918C62.3447 20.2812 61.2705 19.1094 60.5088 17.5762C59.7568 16.043 59.3711 14.2412 59.3516 12.1709V10.7207C59.3516 8.5918 59.708 6.75098 60.4209 5.19824C61.1436 3.63574 62.1787 2.44434 63.5264 1.62402C64.8838 0.793945 66.4707 0.378906 68.2871 0.378906C70.8164 0.378906 72.7939 0.984375 74.2197 2.19531C75.6455 3.39648 76.4902 5.14941 76.7539 7.4541H72.4766C72.2812 6.2334 71.8467 5.33984 71.1729 4.77344C70.5088 4.20703 69.5908 3.92383 68.4189 3.92383C66.9248 3.92383 65.7871 4.48535 65.0059 5.6084C64.2246 6.73145 63.8291 8.40137 63.8193 10.6182V11.9805C63.8193 14.2168 64.2441 15.9062 65.0938 17.0488C65.9434 18.1914 67.1885 18.7627 68.8291 18.7627C70.4795 18.7627 71.6562 18.4111 72.3594 17.708V14.0312H68.3604V10.7939H76.7539V19.3047ZM97.8477 11.8193C97.8477 13.9189 97.4766 15.7598 96.7344 17.3418C95.9922 18.9238 94.9277 20.1445 93.541 21.0039C92.1641 21.8633 90.582 22.293 88.7949 22.293C87.0273 22.293 85.4502 21.8682 84.0635 21.0186C82.6768 20.1689 81.6025 18.958 80.8408 17.3857C80.0791 15.8037 79.6934 13.9873 79.6836 11.9365V10.8818C79.6836 8.78223 80.0596 6.93652 80.8115 5.34473C81.5732 3.74316 82.6426 2.51758 84.0195 1.66797C85.4062 0.808594 86.9883 0.378906 88.7656 0.378906C90.543 0.378906 92.1201 0.808594 93.4971 1.66797C94.8838 2.51758 95.9531 3.74316 96.7051 5.34473C97.4668 6.93652 97.8477 8.77734 97.8477 10.8672V11.8193ZM93.3945 10.8525C93.3945 8.61621 92.9941 6.91699 92.1934 5.75488C91.3926 4.59277 90.25 4.01172 88.7656 4.01172C87.291 4.01172 86.1533 4.58789 85.3525 5.74023C84.5518 6.88281 84.1465 8.5625 84.1367 10.7793V11.8193C84.1367 13.9971 84.5371 15.6865 85.3379 16.8877C86.1387 18.0889 87.291 18.6895 88.7949 18.6895C90.2695 18.6895 91.4023 18.1133 92.1934 16.9609C92.9844 15.7988 93.3848 14.1094 93.3945 11.8926V10.8525Z" fill="white"/>
</svg>
