<svg width="41" height="41" viewBox="0 0 41 41" fill="none" xmlns="http://www.w3.org/2000/svg">
<path d="M31.4157 24.043C30.4565 23.084 28.8961 23.084 27.9368 24.043L25.8474 26.1321C25.1927 26.7866 24.9858 27.7212 25.2248 28.5537L24.4364 29.3419C24.4362 29.3421 24.436 29.3423 24.4358 29.3425C23.8759 29.9029 20.3892 29.043 16.1744 24.8291C11.9604 20.6159 11.1 17.1304 11.6598 16.5697C11.6598 16.5695 11.66 16.5695 11.66 16.5695L12.4491 15.7807C12.6719 15.8446 12.9017 15.8773 13.1317 15.8773C13.7616 15.8773 14.3915 15.6376 14.8712 15.1582L16.9608 13.0691C17.9199 12.1102 17.9199 10.55 16.9608 9.59101L8.92528 1.55726C8.4607 1.0928 7.84293 0.837036 7.18592 0.837036C6.52874 0.837036 5.91122 1.09296 5.44658 1.55726L3.35692 3.6465C2.70223 4.30105 2.49526 5.23573 2.73435 6.06814C2.73435 6.06814 2.06603 6.74272 2.0328 6.78532C-0.190065 9.25568 -0.607117 13.145 0.866542 17.795C2.30961 22.348 5.42047 27.1712 9.62621 31.3759C13.8318 35.5806 18.656 38.6908 23.2099 40.1338C25.0394 40.7133 26.7507 41.0005 28.3048 41.0005C30.8528 41.0005 32.9773 40.2279 34.5001 38.7054L34.9386 38.267C35.158 38.3302 35.3873 38.3642 35.6219 38.3642C36.2791 38.3642 36.8968 38.1082 37.3612 37.644L39.4509 35.5547C40.41 34.5958 40.41 33.0357 39.4509 32.0767L31.4157 24.043ZM7.18592 3.29623L15.2213 11.33L13.133 13.4203C13.133 13.4203 13.1326 13.4199 13.1318 13.4191L13.1018 13.3891L9.11408 9.40225L5.09641 5.38539L7.18592 3.29623ZM32.7609 36.9664C32.7608 36.9666 32.7607 36.9666 32.7605 36.9668C30.9909 38.7358 27.863 39.028 23.9532 37.7892C19.7681 36.4632 15.2978 33.568 11.3659 29.6367C7.43372 25.7055 4.53791 21.2363 3.21179 17.052C1.97272 13.1428 2.26499 10.0155 4.03476 8.24602L4.03492 8.24586L4.25678 8.02404L10.4926 14.2586L9.92068 14.8304C9.92028 14.8308 9.91997 14.8314 9.91949 14.8318C7.54986 17.2039 10.3971 22.5311 14.4351 26.5682C17.4573 29.5899 21.2024 31.9447 23.8903 31.9447C24.794 31.9447 25.5783 31.6784 26.1752 31.0816C26.1755 31.0813 26.1756 31.0812 26.1759 31.0809L26.7471 30.5098L32.9831 36.7443L32.7609 36.9664ZM35.622 35.9049L27.5867 27.8712L29.6762 25.7821L37.7116 33.8157C37.7116 33.8157 35.6228 35.9057 35.622 35.9049Z" fill="#333333"/>
<path d="M32.2999 18.6201C32.2999 19.2993 32.8505 19.8499 33.5298 19.8499C34.209 19.8499 34.7598 19.2994 34.7598 18.6204C34.7599 15.3128 33.4715 12.2033 31.1323 9.86435C28.7928 7.52534 25.6825 6.23729 22.3745 6.23737C21.6952 6.23737 21.1445 6.7879 21.1445 7.46704C21.1445 8.14619 21.6953 8.69673 22.3745 8.69673C25.0256 8.69656 27.5181 9.72894 29.393 11.6033C31.2675 13.4776 32.3 15.9695 32.2999 18.6201Z" fill="#333333"/>
<path d="M35.5443 5.45388C32.0262 1.93677 27.3491 -0.000160146 22.3745 9.93113e-09C21.6952 9.93113e-09 21.1445 0.550617 21.1445 1.22968C21.1445 1.90883 21.6953 2.45936 22.3745 2.45936C26.6921 2.4592 30.7514 4.14036 33.8047 7.19286C36.8578 10.2453 38.5392 14.3037 38.5391 18.6205C38.5391 19.2996 39.0898 19.8501 39.769 19.8501C40.4483 19.8501 40.999 19.2996 40.999 18.6206C40.9991 13.6468 39.0618 8.97088 35.5443 5.45388Z" fill="#333333"/>
<path d="M22.3743 12.4753C21.695 12.4754 21.1444 13.0259 21.1445 13.7051C21.1447 14.3843 21.6954 14.9348 22.3746 14.9346C22.3748 14.9346 22.3749 14.9346 22.375 14.9346C23.3877 14.9346 24.2647 15.2979 24.9812 16.0142C25.6876 16.7205 26.0609 17.6217 26.0609 18.6202C26.0607 19.2994 26.6115 19.8499 27.2906 19.8501H27.2908C27.9701 19.8501 28.5206 19.2995 28.5207 18.6206C28.5209 16.9556 27.8984 15.453 26.7204 14.2752C25.5426 13.0976 24.0401 12.4753 22.3749 12.4753C22.3748 12.4753 22.3744 12.4753 22.3743 12.4753Z" fill="#333333"/>
</svg>
