<svg width="181" height="215" viewBox="0 0 181 215" fill="none" xmlns="http://www.w3.org/2000/svg">
<rect width="181" height="215" rx="2" fill="#E9E9E9"/>
<path d="M90.9984 93.0002C99.5358 93.0002 106.457 86.0792 106.457 77.5418C106.457 69.0044 99.5358 62.0835 90.9984 62.0835C82.461 62.0835 75.54 69.0044 75.54 77.5418C75.54 86.0792 82.461 93.0002 90.9984 93.0002Z" fill="#C4C3C4"/>
<path d="M114.736 103.738C109.176 100.854 100.544 97.4169 90.9987 97.4169C81.4537 97.4169 72.8209 100.854 67.2613 103.738C62.8317 106.035 60.082 110.559 60.082 115.547V117.568C60.082 121.068 62.9136 123.917 66.3922 123.917H115.605C119.084 123.917 121.915 121.068 121.915 117.568V115.547C121.915 110.559 119.166 106.035 114.736 103.738Z" fill="#C7C6C7"/>
<path d="M50.26 146V135.5H52.57V139.655H56.83V135.5H59.14V146H56.83V141.785H52.57V146H50.26ZM61.6565 146V135.5H69.5765V137.555H63.9515V139.685H68.9015V141.74H63.9515V143.945H69.6515V146H61.6565ZM74.1503 146V137.63H70.9553V135.5H79.6553V137.63H76.4603V146H74.1503ZM92.8139 138.11V143.225C93.6639 143.225 94.3439 142.995 94.8539 142.535C95.3739 142.065 95.6339 141.44 95.6339 140.66C95.6339 139.89 95.3739 139.275 94.8539 138.815C94.3439 138.345 93.6639 138.11 92.8139 138.11ZM92.8139 146.42H90.5039V145.28C88.9139 145.28 87.6489 144.845 86.7089 143.975C85.7689 143.095 85.2989 141.975 85.2989 140.615C85.2989 139.275 85.7689 138.18 86.7089 137.33C87.6489 136.48 88.9139 136.055 90.5039 136.055V135.095H92.8139V136.055C94.3939 136.055 95.6539 136.485 96.5939 137.345C97.5439 138.195 98.0189 139.29 98.0189 140.63C98.0189 141.98 97.5489 143.095 96.6089 143.975C95.6689 144.845 94.4039 145.28 92.8139 145.28V146.42ZM90.5039 143.225V138.11C89.6539 138.11 88.9689 138.345 88.4489 138.815C87.9289 139.275 87.6689 139.89 87.6689 140.66C87.6689 141.44 87.9289 142.065 88.4489 142.535C88.9689 142.995 89.6539 143.225 90.5039 143.225ZM108.994 144.605C107.934 145.655 106.604 146.18 105.004 146.18C103.404 146.18 102.074 145.655 101.014 144.605C99.9636 143.555 99.4386 142.27 99.4386 140.75C99.4386 139.24 99.9686 137.96 101.029 136.91C102.099 135.85 103.434 135.32 105.034 135.32C106.634 135.32 107.959 135.845 109.009 136.895C110.069 137.945 110.599 139.23 110.599 140.75C110.599 142.26 110.064 143.545 108.994 144.605ZM102.754 143.09C103.354 143.73 104.114 144.05 105.034 144.05C105.954 144.05 106.709 143.735 107.299 143.105C107.889 142.465 108.184 141.68 108.184 140.75C108.184 139.83 107.884 139.05 107.284 138.41C106.684 137.77 105.924 137.45 105.004 137.45C104.084 137.45 103.329 137.77 102.739 138.41C102.149 139.04 101.854 139.82 101.854 140.75C101.854 141.67 102.154 142.45 102.754 143.09ZM115.093 146V137.63H111.898V135.5H120.598V137.63H117.403V146H115.093ZM131.464 144.605C130.404 145.655 129.074 146.18 127.474 146.18C125.874 146.18 124.544 145.655 123.484 144.605C122.434 143.555 121.909 142.27 121.909 140.75C121.909 139.24 122.439 137.96 123.499 136.91C124.569 135.85 125.904 135.32 127.504 135.32C129.104 135.32 130.429 135.845 131.479 136.895C132.539 137.945 133.069 139.23 133.069 140.75C133.069 142.26 132.534 143.545 131.464 144.605ZM125.224 143.09C125.824 143.73 126.584 144.05 127.504 144.05C128.424 144.05 129.179 143.735 129.769 143.105C130.359 142.465 130.654 141.68 130.654 140.75C130.654 139.83 130.354 139.05 129.754 138.41C129.154 137.77 128.394 137.45 127.474 137.45C126.554 137.45 125.799 137.77 125.209 138.41C124.619 139.04 124.324 139.82 124.324 140.75C124.324 141.67 124.624 142.45 125.224 143.09Z" fill="#C7C6C7"/>
</svg>
