<svg width="18" height="22" viewBox="0 0 18 22" fill="none" xmlns="http://www.w3.org/2000/svg">
<path d="M8.99991 12.2222C7.85917 12.2222 6.96289 13.1184 6.96289 14.2592C6.96289 14.911 7.28882 15.4814 7.77771 15.8888V17.5184C7.77771 18.1703 8.3481 18.7407 8.99995 18.7407C9.6518 18.7407 10.2222 18.1703 10.2222 17.5184V15.8888C10.7111 15.4814 11.037 14.911 11.037 14.2592C11.0369 13.1184 10.1406 12.2222 8.99991 12.2222ZM9.40729 15.4V17.5185C9.40729 17.7629 9.24433 17.9259 8.99991 17.9259C8.75548 17.9259 8.59252 17.7629 8.59252 17.5185V15.4C8.10363 15.237 7.77771 14.7481 7.77771 14.2592C7.77771 13.6074 8.3481 13.037 8.99995 13.037C9.6518 13.037 10.2222 13.6074 10.2222 14.2592C10.2221 14.8296 9.89618 15.237 9.40729 15.4Z" fill="#C81F9E"/>
<path d="M15.11 8.96296V6.11109C15.11 2.77037 12.3397 0 8.99894 0C5.65817 0 2.8878 2.77037 2.8878 6.11113V8.96301C1.5026 8.96301 0.443359 10.0222 0.443359 11.4075V19.5556C0.443359 20.9408 1.5026 22 2.8878 22H15.11C16.4952 22 17.5545 20.9408 17.5545 19.5556V11.4074C17.5545 10.1037 16.4952 8.96296 15.11 8.96296ZM3.70262 6.11113C3.70262 3.1778 6.06556 0.814857 8.99889 0.814857C11.9322 0.814857 14.2952 3.1778 14.2952 6.11113V8.96301H13.4804V6.11113C13.4804 3.66669 11.4433 1.62963 8.99885 1.62963C6.55436 1.62963 4.51743 3.66665 4.51743 6.11113V8.96301H3.70262V6.11113ZM12.6656 6.11113V8.96301H5.33225V6.11113C5.33225 4.07412 6.96188 2.44449 8.99889 2.44449C11.0359 2.44449 12.6656 4.07407 12.6656 6.11113ZM16.7397 19.5556C16.7397 20.4518 16.0063 21.1852 15.11 21.1852H2.8878C1.99149 21.1852 1.25817 20.4518 1.25817 19.5556V11.4074C1.25817 10.5111 1.99149 9.77778 2.8878 9.77778H15.11C16.0063 9.77778 16.7397 10.5111 16.7397 11.4074V19.5556Z" fill="#C81F9E"/>
</svg>
