<svg width="27" height="23" viewBox="0 0 27 23" fill="none" xmlns="http://www.w3.org/2000/svg">
<path d="M26.3514 5.45289C25.8108 4.82371 25.0676 4.40425 24.2568 4.40425H13.8514C13.5135 4.40425 13.1757 4.68389 13.1757 5.10334C13.1757 5.5228 13.5135 5.80243 13.8514 5.80243H24.2568C24.6622 5.80243 25.0676 6.01216 25.3378 6.29179C25.6081 6.64134 25.7432 7.06079 25.6081 7.48024L25 10.9757H17.5676C17.2297 10.9757 16.8919 11.2553 16.8919 11.6748C16.8919 12.0942 17.2297 12.3739 17.5676 12.3739H24.7973L24.1892 15.7295C24.1216 16.2188 23.6486 16.5684 23.1757 16.5684H10.2027C9.72973 16.5684 9.32432 16.2188 9.18919 15.7295L6.55405 0.559271C6.48649 0.209727 6.21622 0 5.87838 0H0.675676C0.337838 0 0 0.279635 0 0.699088C0 1.11854 0.337838 1.39818 0.675676 1.39818H5.33784L7.90541 16.079C8.04054 17.0577 8.71622 17.7568 9.59459 18.0365C9.25676 18.5258 8.98649 19.155 8.98649 19.8541C8.98649 21.6018 10.3378 23 12.027 23C13.7162 23 15.0676 21.6018 15.0676 19.8541C15.0676 19.2249 14.8649 18.5957 14.527 18.1064H18.6487C18.3108 18.5957 18.1081 19.2249 18.1081 19.8541C18.1081 21.6018 19.4595 23 21.1487 23C22.8378 23 24.1892 21.6018 24.1892 19.8541C24.1892 19.155 23.9865 18.5258 23.6486 18.0365C24.527 17.8267 25.2703 17.0577 25.473 16.079L26.9595 7.82979C27.0946 6.99088 26.8919 6.15198 26.3514 5.45289ZM13.7162 19.7842C13.7162 20.7629 12.973 21.5319 12.027 21.5319C11.0811 21.5319 10.3378 20.7629 10.3378 19.7842C10.3378 18.8055 11.0811 18.0365 12.027 18.0365C12.973 18.0365 13.7162 18.8055 13.7162 19.7842ZM21.2162 21.5319C20.2703 21.5319 19.527 20.7629 19.527 19.7842C19.527 18.8055 20.2703 18.0365 21.2162 18.0365C22.1622 18.0365 22.9054 18.8055 22.9054 19.7842C22.9054 20.7629 22.1622 21.5319 21.2162 21.5319Z" fill="#C81F9E"/>
</svg>
