<svg width="32" height="32" viewBox="0 0 32 32" fill="none" xmlns="http://www.w3.org/2000/svg">
<circle cx="16" cy="16" r="16" fill="#E954D1"/>
<g clip-path="url(#clip0)">
<path d="M8.08 21H9.556V17.46H13.564V21H15.04V12.6H13.564V16.092H9.556V12.6H8.08V21ZM17.0532 13.692H18.6132V12.312H17.0532V13.692ZM17.1132 21H18.5652V14.664H17.1132V21ZM22.5868 21.108C23.1268 21.108 23.5348 20.988 23.8948 20.784V19.596C23.6068 19.74 23.3188 19.812 22.9948 19.812C22.5028 19.812 22.2148 19.584 22.2148 19.02V15.912H23.9188V14.664H22.2148V12.924H20.7628V14.664H19.9588V15.912H20.7628V19.248C20.7628 20.64 21.5188 21.108 22.5868 21.108Z" fill="white"/>
</g>
<defs>
<clipPath id="clip0">
<rect width="19" height="19" fill="white" transform="translate(7 7)"/>
</clipPath>
</defs>
</svg>
