<svg width="20" height="20" viewBox="0 0 20 20" fill="none" xmlns="http://www.w3.org/2000/svg">
<path d="M17.5361 19.323H13.8438C13.7207 19.323 13.5977 19.4153 13.5977 19.5692C13.5977 19.723 13.69 19.8153 13.8438 19.8153H17.5361C17.6592 19.8153 17.7823 19.723 17.7823 19.5692C17.7823 19.4153 17.6592 19.323 17.5361 19.323Z" fill="#909293"/>
<path d="M19.0764 19.323H18.461C18.3379 19.323 18.2148 19.4153 18.2148 19.5692C18.2148 19.723 18.3072 19.8153 18.461 19.8153H19.0764C19.1995 19.8153 19.3225 19.723 19.3225 19.5692C19.3225 19.4153 19.1995 19.323 19.0764 19.323Z" fill="#909293"/>
<path d="M1.22906 4.39992C1.35213 4.39992 1.47521 4.30761 1.47521 4.15377V1.69223C1.47521 1.56915 1.3829 1.44608 1.22906 1.44608C1.07521 1.44608 1.01367 1.56915 1.01367 1.69223V4.15377C1.01367 4.27684 1.10598 4.39992 1.22906 4.39992Z" fill="#909293"/>
<path d="M1.22906 1.01536C1.35213 1.01536 1.47521 0.923055 1.47521 0.769209V0.461516C1.47521 0.338439 1.3829 0.215363 1.22906 0.215363C1.07521 0.215363 1.01367 0.338439 1.01367 0.461516V0.769209C1.01367 0.892286 1.10598 1.01536 1.22906 1.01536Z" fill="#909293"/>
<path d="M2.1527 11.7845C2.27578 11.7845 2.39886 11.6922 2.39886 11.5384C2.39886 11.3845 2.27578 11.323 2.1527 11.323H1.78347V10.923C1.78347 10.7999 1.69117 10.6768 1.53732 10.6768C1.38347 10.6768 1.29117 10.7692 1.29117 10.923V11.323H0.921935C0.798858 11.323 0.675781 11.4153 0.675781 11.5692C0.675781 11.723 0.768089 11.8153 0.921935 11.8153H1.32194V12.2153C1.32194 12.3384 1.41424 12.4615 1.56809 12.4615C1.72194 12.4615 1.81424 12.3692 1.81424 12.2153V11.8153H2.1527V11.7845Z" fill="#909293"/>
<path d="M17.8764 1.47693H17.4764V1.07693C17.4764 0.953857 17.384 0.83078 17.2302 0.83078C17.0764 0.83078 16.984 0.923088 16.984 1.07693V1.47693H16.584C16.461 1.47693 16.3379 1.56924 16.3379 1.72309C16.3379 1.87693 16.4302 1.96924 16.584 1.96924H16.984V2.36924C16.984 2.49232 17.0764 2.6154 17.2302 2.6154C17.384 2.6154 17.4764 2.52309 17.4764 2.36924V1.93847H17.8764C17.9994 1.93847 18.1225 1.84616 18.1225 1.69232C18.1225 1.53847 17.9994 1.47693 17.8764 1.47693Z" fill="#909293"/>
<path d="M13.0135 14.0308C14.4904 14.0308 15.6904 12.8308 15.6904 11.3231C15.6904 10.7385 15.9365 10.1539 16.3365 9.75388C17.3827 8.70773 17.3827 6.98465 16.3365 5.9385C15.9058 5.50773 15.6904 4.95388 15.6904 4.36927C15.6904 2.89234 14.4904 1.66157 12.9827 1.66157C12.3981 1.66157 11.8135 1.41542 11.4135 1.01542C10.3673 -0.030734 8.64423 -0.030734 7.59808 1.01542C7.16731 1.44619 6.61346 1.66157 6.02885 1.66157C4.55192 1.66157 3.32115 2.86157 3.32115 4.36927C3.32115 4.95388 3.075 5.5385 2.675 5.9385C2.15192 6.46157 1.875 7.10773 1.875 7.84619C1.875 8.55388 2.15192 9.2308 2.675 9.75388C3.10577 10.1847 3.32115 10.7385 3.32115 11.3231C3.32115 12.8 4.52115 14.0308 6.02885 14.0308C6.61346 14.0308 7.19808 14.277 7.59808 14.677C8.12115 15.2 8.79808 15.477 9.50577 15.477C10.1827 15.477 10.8904 15.2 11.4135 14.677C11.875 14.2462 12.4288 14.0308 13.0135 14.0308ZM7.96731 14.3385C7.44423 13.8154 6.76731 13.5385 6.05962 13.5385C4.82885 13.5385 3.81346 12.5231 3.81346 11.2923C3.81346 10.5847 3.53654 9.90773 3.01346 9.38465C2.58269 8.95388 2.36731 8.40003 2.36731 7.81542C2.36731 7.2308 2.61346 6.64619 3.01346 6.24619C3.53654 5.72311 3.81346 5.04619 3.81346 4.3385C3.81346 3.10773 4.82885 2.09234 6.05962 2.09234C6.76731 2.09234 7.44423 1.81542 7.96731 1.29234C8.39808 0.923112 8.95192 0.707728 9.53654 0.707728C10.1212 0.707728 10.675 0.923112 11.1058 1.35388C11.6288 1.84619 12.3058 2.12311 13.0135 2.12311C14.2442 2.12311 15.2288 3.1385 15.2288 4.36927C15.2288 5.07696 15.5058 5.75388 16.0288 6.27696C16.8904 7.1385 16.8904 8.55388 16.0288 9.44619C15.5058 9.96927 15.2288 10.6462 15.2288 11.3539C15.2288 12.5847 14.2135 13.6 12.9827 13.6C12.275 13.6 11.5981 13.877 11.075 14.4C10.2442 15.2308 8.82885 15.2308 7.96731 14.3385Z" fill="#909293"/>
<path d="M14.9822 7.84618C14.9822 7.7231 14.8898 7.60002 14.736 7.60002C14.6129 7.60002 14.4898 7.69233 14.4898 7.84618C14.4898 10.5846 12.2437 12.8308 9.47446 12.8616C6.736 12.8616 4.48984 10.6154 4.45907 7.84618C4.45907 7.07695 4.61292 6.36925 4.95138 5.69233C5.84369 3.96926 7.6283 2.86156 9.536 2.86156C11.6283 2.86156 13.536 4.18464 14.2437 6.18464C14.2745 6.30772 14.4283 6.36926 14.5514 6.33849C14.6129 6.30772 14.6437 6.27695 14.6745 6.21541C14.7052 6.15387 14.7052 6.09233 14.6745 6.03079C13.9052 3.87695 11.8437 2.40002 9.536 2.40002C8.48984 2.40002 7.47446 2.70772 6.58215 3.26156C5.72061 3.81541 5.04369 4.58464 4.61292 5.50772C4.27446 6.24618 4.08984 7.04618 4.08984 7.87695C4.08984 10.8923 6.55138 13.3539 9.56677 13.3539C12.5821 13.3539 14.9822 10.8616 14.9822 7.84618Z" fill="#909293"/>
<path d="M14.4917 6.83078C14.4609 6.89232 14.4609 6.95386 14.4609 7.0154C14.4917 7.13848 14.584 7.20001 14.6763 7.20001H14.7071C14.7686 7.20001 14.8302 7.16925 14.8609 7.10771C14.8917 7.04617 14.9225 6.98463 14.8917 6.92309C14.8609 6.80002 14.7379 6.70771 14.6148 6.73848C14.584 6.76925 14.5532 6.80002 14.4917 6.83078Z" fill="#909293"/>
<path d="M13.2614 6.64608C13.2307 6.55377 13.1691 6.49223 13.0768 6.49223L10.7691 6.15377L9.75375 4.06146C9.66144 3.90761 9.41529 3.90761 9.35375 4.06146L8.30759 6.15377L6.03067 6.49223C5.93836 6.49223 5.87682 6.55377 5.84606 6.64608C5.81529 6.73838 5.84606 6.83069 5.90759 6.89223L7.56913 8.523L7.13836 10.7692C7.13836 10.8615 7.16913 10.9538 7.23067 10.9845C7.29221 11.0461 7.38452 11.0461 7.47682 11.0153L9.53836 9.93838L11.5999 11.0153C11.6307 11.0461 11.6614 11.0461 11.6922 11.0461C11.7537 11.0461 11.7845 11.0461 11.8153 11.0153C11.8768 10.9538 11.9076 10.8615 11.9076 10.7999L11.5076 8.523L13.1691 6.89223C13.2614 6.83069 13.2614 6.73838 13.2614 6.64608ZM11.1076 8.24608C11.0461 8.30761 11.0153 8.36915 11.0461 8.46146L11.3845 10.3999L9.63067 9.47684C9.5999 9.44607 9.56913 9.44608 9.53836 9.44608C9.50759 9.44608 9.47683 9.44607 9.44606 9.47684L7.69221 10.3999L8.03067 8.46146C8.03067 8.39992 8.03067 8.30761 7.96913 8.24608L6.55375 6.86146L8.49221 6.58454C8.55375 6.58454 8.64606 6.523 8.67683 6.46146L9.53836 4.70761L10.3999 6.46146C10.4307 6.523 10.4922 6.58454 10.5845 6.58454L12.523 6.86146L11.1076 8.24608Z" fill="#909293"/>
<path d="M7.99969 15.8769C7.87661 15.8154 7.75353 15.8769 7.692 16L6.30738 18.9538L5.44584 16.5538C5.41507 16.4923 5.3843 16.4615 5.32276 16.4307C5.26123 16.4 5.19969 16.4 5.13815 16.4307L2.73815 17.2923L4.06123 14.4307C4.12276 14.3077 4.06123 14.1846 3.93815 14.123C3.81507 14.0615 3.692 14.123 3.63046 14.2461L2.06123 17.6307C2.03046 17.723 2.03046 17.8154 2.092 17.8769C2.15353 17.9384 2.24584 17.9692 2.33815 17.9384L5.04584 16.9538L6.03046 19.6615C6.06123 19.7538 6.15353 19.8154 6.24584 19.8154C6.33815 19.8154 6.43046 19.7538 6.46123 19.6923L8.06123 16.2461C8.1843 16.0615 8.12277 15.9384 7.99969 15.8769Z" fill="#909293"/>
<path d="M16.4911 17.8461C16.5526 17.7845 16.5834 17.6922 16.5218 17.5999L15.0449 14.4614C14.9834 14.3384 14.8603 14.3076 14.7372 14.3384C14.6141 14.3999 14.5834 14.523 14.6141 14.6461L15.8449 17.2922L13.4449 16.4307C13.3834 16.3999 13.3218 16.3999 13.2603 16.4307C13.1987 16.4614 13.168 16.4922 13.1372 16.5538L12.3064 18.923L11.0141 16.123C10.9526 15.9999 10.8295 15.9691 10.7064 15.9999C10.5834 16.0614 10.5526 16.1845 10.5834 16.3076L12.1218 19.5999C12.1526 19.6922 12.2449 19.723 12.3372 19.723C12.4295 19.723 12.5218 19.6614 12.5526 19.5691L13.5372 16.8614L16.2449 17.8461C16.3372 17.9384 16.4295 17.9076 16.4911 17.8461Z" fill="#909293"/>
</svg>
