<svg width="20" height="20" viewBox="0 0 20 20" fill="none" xmlns="http://www.w3.org/2000/svg">
<path d="M17.5381 19.323H13.8458C13.7227 19.323 13.5996 19.4153 13.5996 19.5692C13.5996 19.723 13.6919 19.8153 13.8458 19.8153H17.5381C17.6611 19.8153 17.7842 19.723 17.7842 19.5692C17.7842 19.4153 17.6611 19.323 17.5381 19.323Z" fill="#C81F9E"/>
<path d="M19.0774 19.323H18.462C18.3389 19.323 18.2158 19.4153 18.2158 19.5692C18.2158 19.723 18.3081 19.8153 18.462 19.8153H19.0774C19.2004 19.8153 19.3235 19.723 19.3235 19.5692C19.3235 19.4153 19.2004 19.323 19.0774 19.323Z" fill="#C81F9E"/>
<path d="M1.23101 4.39989C1.35409 4.39989 1.47716 4.30758 1.47716 4.15374V1.6922C1.47716 1.56912 1.38486 1.44604 1.23101 1.44604C1.07716 1.44604 1.01562 1.56912 1.01562 1.6922V4.15374C1.01562 4.27681 1.10793 4.39989 1.23101 4.39989Z" fill="#C81F9E"/>
<path d="M1.23101 1.01533C1.35409 1.01533 1.47716 0.923024 1.47716 0.769178V0.461486C1.47716 0.338409 1.38486 0.215332 1.23101 0.215332C1.07716 0.215332 1.01562 0.338409 1.01562 0.461486V0.769178C1.01562 0.892255 1.10793 1.01533 1.23101 1.01533Z" fill="#C81F9E"/>
<path d="M2.15368 11.7844C2.27676 11.7844 2.39984 11.6921 2.39984 11.5383C2.39984 11.3844 2.27676 11.3229 2.15368 11.3229H1.78445V10.9229C1.78445 10.7998 1.69214 10.6768 1.5383 10.6768C1.38445 10.6768 1.29214 10.7691 1.29214 10.9229V11.3229H0.922912C0.799835 11.3229 0.676758 11.4152 0.676758 11.5691C0.676758 11.7229 0.769065 11.8152 0.922912 11.8152H1.32291V12.2152C1.32291 12.3383 1.41522 12.4614 1.56907 12.4614C1.72291 12.4614 1.81522 12.3691 1.81522 12.2152V11.8152H2.15368V11.7844Z" fill="#C81F9E"/>
<path d="M17.8773 1.47696H17.4773V1.07696C17.4773 0.953887 17.385 0.830811 17.2312 0.830811C17.0773 0.830811 16.985 0.923118 16.985 1.07696V1.47696H16.585C16.4619 1.47696 16.3389 1.56927 16.3389 1.72312C16.3389 1.87696 16.4312 1.96927 16.585 1.96927H16.985V2.36927C16.985 2.49235 17.0773 2.61543 17.2312 2.61543C17.385 2.61543 17.4773 2.52312 17.4773 2.36927V1.9385H17.8773C18.0004 1.9385 18.1235 1.8462 18.1235 1.69235C18.1235 1.5385 18.0004 1.47696 17.8773 1.47696Z" fill="#C81F9E"/>
<path d="M13.0144 14.0307C14.4914 14.0307 15.6914 12.8307 15.6914 11.323C15.6914 10.7384 15.9375 10.1538 16.3375 9.75379C17.3837 8.70764 17.3837 6.98456 16.3375 5.9384C15.9067 5.50764 15.6914 4.95379 15.6914 4.36917C15.6914 2.89225 14.4914 1.66148 12.9837 1.66148C12.3991 1.66148 11.8144 1.41533 11.4144 1.01533C10.3683 -0.0308255 8.64521 -0.0308255 7.59905 1.01533C7.16828 1.4461 6.61444 1.66148 6.02982 1.66148C4.5529 1.66148 3.32213 2.86148 3.32213 4.36917C3.32213 4.95379 3.07598 5.5384 2.67598 5.9384C2.1529 6.46148 1.87598 7.10764 1.87598 7.8461C1.87598 8.55379 2.1529 9.23071 2.67598 9.75379C3.10675 10.1846 3.32213 10.7384 3.32213 11.323C3.32213 12.7999 4.52213 14.0307 6.02982 14.0307C6.61444 14.0307 7.19905 14.2769 7.59905 14.6769C8.12213 15.1999 8.79905 15.4769 9.50675 15.4769C10.1837 15.4769 10.8914 15.1999 11.4144 14.6769C11.876 14.2461 12.4298 14.0307 13.0144 14.0307ZM7.96828 14.3384C7.44521 13.8153 6.76828 13.5384 6.06059 13.5384C4.82982 13.5384 3.81444 12.523 3.81444 11.2923C3.81444 10.5846 3.53752 9.90764 3.01444 9.38456C2.58367 8.95379 2.36828 8.39994 2.36828 7.81533C2.36828 7.23071 2.61444 6.6461 3.01444 6.2461C3.53752 5.72302 3.81444 5.0461 3.81444 4.33841C3.81444 3.10764 4.82982 2.09225 6.06059 2.09225C6.76828 2.09225 7.44521 1.81533 7.96828 1.29225C8.39905 0.92302 8.9529 0.707636 9.53752 0.707636C10.1221 0.707636 10.676 0.923021 11.1067 1.35379C11.6298 1.8461 12.3067 2.12302 13.0144 2.12302C14.2452 2.12302 15.2298 3.13841 15.2298 4.36917C15.2298 5.07687 15.5067 5.75379 16.0298 6.27687C16.8914 7.1384 16.8914 8.55379 16.0298 9.4461C15.5067 9.96917 15.2298 10.6461 15.2298 11.3538C15.2298 12.5846 14.2144 13.5999 12.9837 13.5999C12.276 13.5999 11.5991 13.8769 11.076 14.3999C10.2452 15.2307 8.82982 15.2307 7.96828 14.3384Z" fill="#C81F9E"/>
<path d="M14.9831 7.84606C14.9831 7.72298 14.8908 7.5999 14.737 7.5999C14.6139 7.5999 14.4908 7.69221 14.4908 7.84606C14.4908 10.5845 12.2447 12.8307 9.47543 12.8614C6.73697 12.8614 4.49082 10.6153 4.46005 7.84606C4.46005 7.07683 4.6139 6.36913 4.95236 5.69221C5.84467 3.96913 7.62928 2.86144 9.53697 2.86144C11.6293 2.86144 13.537 4.18452 14.2447 6.18452C14.2754 6.30759 14.4293 6.36913 14.5524 6.33836C14.6139 6.30759 14.6447 6.27683 14.6754 6.21529C14.7062 6.15375 14.7062 6.09221 14.6754 6.03067C13.9062 3.87683 11.8447 2.3999 9.53697 2.3999C8.49082 2.3999 7.47544 2.70759 6.58313 3.26144C5.72159 3.81529 5.04467 4.58452 4.6139 5.50759C4.27544 6.24606 4.09082 7.04606 4.09082 7.87682C4.09082 10.8922 6.55236 13.3537 9.56774 13.3537C12.5831 13.3537 14.9831 10.8614 14.9831 7.84606Z" fill="#C81F9E"/>
<path d="M14.4917 6.83069C14.4609 6.89223 14.4609 6.95377 14.4609 7.01531C14.4917 7.13838 14.584 7.19992 14.6763 7.19992H14.7071C14.7686 7.19992 14.8302 7.16915 14.8609 7.10762C14.8917 7.04608 14.9225 6.98454 14.8917 6.923C14.8609 6.79992 14.7379 6.70762 14.6148 6.73839C14.584 6.76915 14.5532 6.79992 14.4917 6.83069Z" fill="#C81F9E"/>
<path d="M13.2624 6.64605C13.2316 6.55374 13.1701 6.4922 13.0778 6.4922L10.7701 6.15374L9.75473 4.06143C9.66242 3.90758 9.41626 3.90758 9.35472 4.06143L8.30857 6.15374L6.03165 6.4922C5.93934 6.4922 5.8778 6.55374 5.84703 6.64605C5.81626 6.73835 5.84703 6.83066 5.90857 6.8922L7.57011 8.52297L7.13934 10.7691C7.13934 10.8614 7.17011 10.9537 7.23165 10.9845C7.29319 11.046 7.38549 11.046 7.4778 11.0153L9.53934 9.93835L11.6009 11.0153C11.6316 11.046 11.6624 11.046 11.6932 11.046C11.7547 11.046 11.7855 11.046 11.8163 11.0153C11.8778 10.9537 11.9086 10.8614 11.9086 10.7999L11.5086 8.52297L13.1701 6.8922C13.2624 6.83066 13.2624 6.73835 13.2624 6.64605ZM11.1086 8.24605C11.047 8.30758 11.0163 8.36912 11.047 8.46143L11.3855 10.3999L9.63165 9.47681C9.60088 9.44604 9.57011 9.44604 9.53934 9.44604C9.50857 9.44604 9.4778 9.44604 9.44703 9.47681L7.69319 10.3999L8.03165 8.46143C8.03165 8.39989 8.03165 8.30758 7.97011 8.24605L6.55472 6.86143L8.49319 6.58451C8.55472 6.58451 8.64703 6.52297 8.6778 6.46143L9.53934 4.70758L10.4009 6.46143C10.4316 6.52297 10.4932 6.58451 10.5855 6.58451L12.524 6.86143L11.1086 8.24605Z" fill="#C81F9E"/>
<path d="M7.99969 15.8769C7.87661 15.8153 7.75353 15.8769 7.692 15.9999L6.30738 18.9538L5.44584 16.5538C5.41507 16.4922 5.3843 16.4615 5.32276 16.4307C5.26123 16.3999 5.19969 16.3999 5.13815 16.4307L2.73815 17.2922L4.06123 14.4307C4.12276 14.3076 4.06123 14.1846 3.93815 14.123C3.81507 14.0615 3.692 14.123 3.63046 14.2461L2.06123 17.6307C2.03046 17.723 2.03046 17.8153 2.092 17.8769C2.15353 17.9384 2.24584 17.9692 2.33815 17.9384L5.04584 16.9538L6.03046 19.6615C6.06123 19.7538 6.15353 19.8153 6.24584 19.8153C6.33815 19.8153 6.43046 19.7538 6.46123 19.6922L8.06123 16.2461C8.1843 16.0615 8.12277 15.9384 7.99969 15.8769Z" fill="#C81F9E"/>
<path d="M16.492 17.8459C16.5536 17.7844 16.5843 17.6921 16.5228 17.5998L15.0459 14.4613C14.9843 14.3382 14.8613 14.3075 14.7382 14.3382C14.6151 14.3998 14.5843 14.5229 14.6151 14.6459L15.8459 17.2921L13.4459 16.4306C13.3843 16.3998 13.3228 16.3998 13.2613 16.4306C13.1997 16.4613 13.169 16.4921 13.1382 16.5536L12.3074 18.9229L11.0151 16.1229C10.9536 15.9998 10.8305 15.969 10.7074 15.9998C10.5843 16.0613 10.5536 16.1844 10.5843 16.3075L12.1228 19.5998C12.1536 19.6921 12.2459 19.7229 12.3382 19.7229C12.4305 19.7229 12.5228 19.6613 12.5536 19.569L13.5382 16.8613L16.2459 17.8459C16.3382 17.9382 16.4305 17.9075 16.492 17.8459Z" fill="#C81F9E"/>
</svg>
