<svg width="12" height="22" viewBox="0 0 12 22" fill="none" xmlns="http://www.w3.org/2000/svg">
<path d="M10.6794 22C10.2967 22 9.99043 21.8811 9.76077 21.6432L0.401914 12.0108C0.133971 11.6937 0 11.3568 0 11C0 10.6432 0.133971 10.3261 0.401914 10.0486L9.76077 0.416216C10.0287 0.138739 10.3349 0 10.6794 0C11.0239 0 11.3301 0.138739 11.5981 0.416216C11.866 0.693693 12 1.01081 12 1.36757C12 1.72433 11.866 2.04144 11.5981 2.31892L3.21531 11L11.5981 19.6811C11.866 19.9586 12 20.2955 12 20.6919C12 21.0883 11.8756 21.4054 11.6268 21.6432C11.378 21.8811 11.0622 22 10.6794 22Z" fill="#333333"/>
</svg>
