<svg width="28" height="29" viewBox="0 0 28 29" fill="none" xmlns="http://www.w3.org/2000/svg">
<path d="M21.8916 16.0669C21.5118 16.0669 21.2038 16.3773 21.2038 16.7601V27.3441C21.2038 27.4155 21.1464 27.4737 21.076 27.4737H1.64488C1.57398 27.4737 1.51627 27.4155 1.51627 27.3441V7.26935H5.71032C6.53944 7.26935 7.21384 6.58949 7.21384 5.75381V1.52667H21.076C21.1464 1.52667 21.2038 1.58484 21.2038 1.6563V3.84355C21.2038 4.22639 21.5117 4.53676 21.8915 4.53676C22.2713 4.53676 22.5793 4.22639 22.5793 3.84355V1.6563C22.5793 0.820336 21.905 0.140259 21.0759 0.140259H6.52593C6.34354 0.140259 6.16863 0.213349 6.03962 0.343317L0.34209 6.08589C0.213141 6.21586 0.140625 6.39222 0.140625 6.57603V27.344C0.140625 28.18 0.815424 28.8601 1.64477 28.8601H21.0759C21.905 28.8601 22.5793 28.18 22.5793 27.344V16.7601C22.5793 16.3774 22.2714 16.0669 21.8916 16.0669ZM5.83833 5.75381C5.83833 5.82499 5.78089 5.88288 5.71032 5.88288H2.48921L5.83833 2.50723V5.75381Z" fill="#333333"/>
<path d="M1.51423 7.26919V7.12909H1.37564V7.26919H1.51423ZM7.2118 1.52651V1.38641H7.07321V1.52651H7.2118ZM6.03758 0.343155L5.93975 0.243924L5.93973 0.243945L6.03758 0.343155ZM0.340053 6.08573L0.242202 5.98652L0.340053 6.08573ZM22.5772 16.76H22.4386H22.5772ZM2.48717 5.88272L2.38931 5.78352L2.15189 6.02282H2.48717V5.88272ZM5.83629 2.50707H5.97487V2.16955L5.73844 2.40786L5.83629 2.50707ZM21.8896 15.9267C21.4336 15.9267 21.0632 16.2994 21.0632 16.76H21.3403C21.3403 16.4549 21.5859 16.2069 21.8896 16.2069V15.9267ZM21.0632 16.76V27.3439H21.3403V16.76H21.0632ZM21.0632 27.3439C21.0632 27.3384 21.0675 27.3335 21.074 27.3335V27.6137C21.2214 27.6137 21.3403 27.4923 21.3403 27.3439H21.0632ZM21.074 27.3335H1.64285V27.6137H21.074V27.3335ZM1.64285 27.3335C1.64809 27.3335 1.65282 27.3376 1.65282 27.3439H1.37564C1.37564 27.4931 1.49579 27.6137 1.64285 27.6137V27.3335ZM1.65282 27.3439V7.26919H1.37564V27.3439H1.65282ZM1.51423 7.40929H5.70828V7.12909H1.51423V7.40929ZM5.70828 7.40929C6.61357 7.40929 7.35039 6.66709 7.35039 5.75365H7.07321C7.07321 6.51158 6.46124 7.12909 5.70828 7.12909V7.40929ZM7.35039 5.75365V1.52651H7.07321V5.75365H7.35039ZM7.2118 1.6666H21.0739V1.38641H7.2118V1.6666ZM21.0739 1.6666C21.0674 1.6666 21.0632 1.6616 21.0632 1.65614H21.3403C21.3403 1.50774 21.2214 1.38641 21.0739 1.38641V1.6666ZM21.0632 1.65614V3.84339H21.3403V1.65614H21.0632ZM21.0632 3.84339C21.0632 4.304 21.4335 4.67669 21.8895 4.67669V4.3965C21.5858 4.3965 21.3403 4.14846 21.3403 3.84339H21.0632ZM21.8895 4.67669C22.3454 4.67669 22.7158 4.304 22.7158 3.84339H22.4386C22.4386 4.14846 22.1931 4.3965 21.8895 4.3965V4.67669ZM22.7158 3.84339V1.65614H22.4386V3.84339H22.7158ZM22.7158 1.65614C22.7158 0.742477 21.9791 0 21.0738 0V0.280193C21.8267 0.280193 22.4386 0.897872 22.4386 1.65614H22.7158ZM21.0738 0H6.52389V0.280193H21.0738V0ZM6.52389 0C6.30485 0 6.09474 0.087774 5.93975 0.243924L6.13541 0.442386C6.23843 0.338598 6.37817 0.280193 6.52389 0.280193V0ZM5.93973 0.243945L0.242202 5.98652L0.437904 6.18494L6.13543 0.442364L5.93973 0.243945ZM0.242202 5.98652C0.087231 6.14271 0 6.35474 0 6.57587H0.277174C0.277174 6.42936 0.334976 6.28868 0.437904 6.18494L0.242202 5.98652ZM0 6.57587V27.3438H0.277174V6.57587H0ZM0 27.3438C0 28.2576 0.737237 29 1.64274 29V28.7198C0.889536 28.7198 0.277174 28.1021 0.277174 27.3438H0ZM1.64274 29H21.0738V28.7198H1.64274V29ZM21.0738 29C21.9792 29 22.7158 28.2575 22.7158 27.3438H22.4386C22.4386 28.1021 21.8267 28.7198 21.0738 28.7198V29ZM22.7158 27.3438V16.76H22.4386V27.3438H22.7158ZM22.7158 16.76C22.7159 16.2995 22.3455 15.9267 21.8896 15.9267V16.2069C22.1932 16.2069 22.4387 16.455 22.4386 16.76H22.7158ZM5.6977 5.75365C5.6977 5.74711 5.70266 5.74262 5.70828 5.74262V6.02282C5.85504 6.02282 5.97487 5.90256 5.97487 5.75365H5.6977ZM5.70828 5.74262H2.48717V6.02282H5.70828V5.74262ZM2.58502 5.98193L5.93414 2.60628L5.73844 2.40786L2.38931 5.78352L2.58502 5.98193ZM5.6977 2.50707V5.75365H5.97487V2.50707H5.6977Z" fill="#333333"/>
<path d="M27.1822 5.77082L26.373 4.95528C25.4656 4.04073 23.9892 4.04084 23.0817 4.95528L16.6579 11.4298H5.51589C5.13606 11.4298 4.82812 11.7402 4.82812 12.123C4.82812 12.5058 5.13606 12.8162 5.51589 12.8162H15.2824L11.143 16.9884H5.51589C5.13606 16.9884 4.82812 17.2987 4.82812 17.6816C4.82812 18.0644 5.13606 18.3748 5.51589 18.3748H9.76738L9.75631 18.386C9.67238 18.4706 9.61172 18.5755 9.57993 18.6907L8.51762 22.547H5.51589C5.13606 22.547 4.82812 22.8574 4.82812 23.2402C4.82812 23.623 5.13606 23.9334 5.51589 23.9334H9.04054C9.0406 23.9334 9.19131 23.9162 9.21346 23.9104C9.21708 23.9094 13.5543 22.6964 13.5543 22.6964C13.6686 22.6644 13.7728 22.6032 13.8567 22.5187L27.1822 9.08791C28.0895 8.17347 28.0895 6.68542 27.1822 5.77082ZM13.3704 21.0483L11.2154 18.8763L22.2153 7.78951L24.3702 9.96151L13.3704 21.0483ZM10.59 20.2066L12.0503 21.6785L10.0286 22.2442L10.59 20.2066ZM26.2094 8.10762L25.3428 8.98105L23.1878 6.809L24.0544 5.93557C24.4255 5.56153 25.0293 5.56159 25.4002 5.93557L26.2094 6.75122C26.5806 7.12519 26.5806 7.7337 26.2094 8.10762Z" fill="#333333"/>
<path d="M27.1802 5.77201L27.278 5.6728V5.67279L27.1802 5.77201ZM26.3709 4.95646L26.2731 5.05567V5.05568L26.3709 4.95646ZM23.0797 4.95646L22.9818 4.85724V4.85725L23.0797 4.95646ZM16.6559 11.431V11.5711H16.7132L16.7538 11.5302L16.6559 11.431ZM15.2804 12.8174L15.3783 12.9166L15.6157 12.6773H15.2804V12.8174ZM11.1409 16.9895V17.1296H11.1982L11.2388 17.0888L11.1409 16.9895ZM9.76534 18.376L9.86319 18.4752L10.1006 18.2359H9.76534V18.376ZM9.75427 18.3871L9.85212 18.4863L9.75427 18.3871ZM9.57789 18.6919L9.4444 18.6542L9.44439 18.6543L9.57789 18.6919ZM8.51558 22.5482V22.6883H8.62085L8.64909 22.5858L8.51558 22.5482ZM9.21142 23.9116L9.24636 24.0471H9.24639L9.21142 23.9116ZM13.5523 22.6976L13.5892 22.8326L13.5523 22.6976ZM13.8546 22.5199L13.7568 22.4206L13.8546 22.5199ZM27.1802 9.08909L27.278 9.1883V9.1883L27.1802 9.08909ZM13.3683 21.0495L13.2705 21.1487L13.3683 21.2473L13.4662 21.1487L13.3683 21.0495ZM11.2134 18.8775L11.1155 18.7782L11.0171 18.8775L11.1155 18.9767L11.2134 18.8775ZM22.2132 7.79069L22.3111 7.69148L22.2132 7.59286L22.1153 7.69148L22.2132 7.79069ZM24.3682 9.96269L24.466 10.0619L24.5645 9.96269L24.466 9.86348L24.3682 9.96269ZM10.588 20.2078L10.6858 20.1086L10.518 19.9394L10.4545 20.1702L10.588 20.2078ZM12.0483 21.6797L12.0853 21.8147L12.3148 21.7504L12.1461 21.5804L12.0483 21.6797ZM10.0266 22.2454L9.89307 22.2079L9.8273 22.4466L10.0636 22.3805L10.0266 22.2454ZM26.2074 8.1088L26.1095 8.00957V8.00959L26.2074 8.1088ZM25.3408 8.98223L25.243 9.08144L25.3408 9.18007L25.4386 9.08144L25.3408 8.98223ZM23.1858 6.81018L23.0879 6.71097L22.9895 6.81018L23.0879 6.90939L23.1858 6.81018ZM25.3982 5.93675L25.3003 6.03593V6.03596L25.3982 5.93675ZM26.2074 6.7524L26.1095 6.85161V6.85162L26.2074 6.7524ZM27.278 5.67279L26.4688 4.85724L26.2731 5.05568L27.0824 5.87122L27.278 5.67279ZM26.4688 4.85725C25.5073 3.88817 23.9434 3.88831 22.9818 4.85724L23.1775 5.05568C24.0309 4.19573 25.4198 4.19565 26.2731 5.05567L26.4688 4.85725ZM22.9818 4.85725L16.558 11.3318L16.7538 11.5302L23.1775 5.05567L22.9818 4.85725ZM16.6559 11.2909H5.51385V11.5711H16.6559V11.2909ZM5.51385 11.2909C5.05787 11.2909 4.6875 11.6636 4.6875 12.1242H4.96467C4.96467 11.8191 5.21017 11.5711 5.51385 11.5711V11.2909ZM4.6875 12.1242C4.6875 12.5848 5.05787 12.9575 5.51385 12.9575V12.6773C5.21017 12.6773 4.96467 12.4293 4.96467 12.1242H4.6875ZM5.51385 12.9575H15.2804V12.6773H5.51385V12.9575ZM15.1825 12.7182L11.0431 16.8904L11.2388 17.0888L15.3783 12.9166L15.1825 12.7182ZM11.1409 16.8494H5.51385V17.1296H11.1409V16.8494ZM5.51385 16.8494C5.05787 16.8494 4.6875 17.2222 4.6875 17.6828H4.96467C4.96467 17.3777 5.21017 17.1296 5.51385 17.1296V16.8494ZM4.6875 17.6828C4.6875 18.1434 5.05787 18.5161 5.51385 18.5161V18.2359C5.21017 18.2359 4.96467 17.9879 4.96467 17.6828H4.6875ZM5.51385 18.5161H9.76534V18.2359H5.51385V18.5161ZM9.66748 18.2767L9.65641 18.288L9.85212 18.4863L9.86319 18.4752L9.66748 18.2767ZM9.65641 18.288C9.56068 18.3861 9.48205 18.5221 9.4444 18.6542L9.7114 18.7295C9.7373 18.6313 9.78 18.5574 9.85212 18.4863L9.65641 18.288ZM9.44439 18.6543L8.38207 22.5105L8.64909 22.5858L9.7114 18.7295L9.44439 18.6543ZM8.51558 22.4081H5.51385V22.6883H8.51558V22.4081ZM5.51385 22.4081C5.05787 22.4081 4.6875 22.7808 4.6875 23.2414H4.96467C4.96467 22.9363 5.21017 22.6883 5.51385 22.6883V22.4081ZM4.6875 23.2414C4.6875 23.702 5.05787 24.0746 5.51385 24.0746V23.7945C5.21017 23.7945 4.96467 23.5464 4.96467 23.2414H4.6875ZM5.51385 24.0746H9.03851V23.7945H5.51385V24.0746ZM9.03851 24.0746C9.04505 24.0745 9.05214 24.0739 9.0527 24.0739C9.05291 24.0739 9.05323 24.0739 9.05334 24.0739C9.05346 24.0739 9.05364 24.0738 9.05371 24.0738C9.05379 24.0738 9.05391 24.0738 9.05398 24.0738C9.05408 24.0738 9.05425 24.0737 9.05442 24.0737C9.05473 24.0737 9.0552 24.0737 9.05578 24.0736C9.05692 24.0735 9.05862 24.0732 9.06074 24.073C9.06496 24.0725 9.07108 24.0718 9.07842 24.0709C9.09302 24.0693 9.113 24.0669 9.13356 24.0643C9.16745 24.0601 9.22376 24.0531 9.24636 24.0471L9.17648 23.776C9.18054 23.7749 9.17626 23.776 9.15594 23.7788C9.1395 23.7812 9.1197 23.7837 9.09979 23.7862C9.0799 23.7886 9.06081 23.791 9.04645 23.7926C9.0393 23.7935 9.03346 23.7942 9.02934 23.7946C9.02729 23.7949 9.02573 23.795 9.02464 23.7952C9.02411 23.7952 9.02373 23.7953 9.02347 23.7953C9.02335 23.7953 9.0233 23.7953 9.02325 23.7953C9.02325 23.7953 9.0234 23.7953 9.02336 23.7953C9.02331 23.7953 9.02379 23.7952 9.02368 23.7953C9.02379 23.7952 9.02411 23.7952 9.02431 23.7952C9.02487 23.7952 9.03196 23.7946 9.03851 23.7945V24.0746ZM9.24639 24.0471C9.24919 24.0464 10.3354 23.7426 11.4202 23.4392C11.9626 23.2876 12.5048 23.1359 12.9115 23.0222C13.1148 22.9653 13.2843 22.9179 13.4028 22.8847C13.4621 22.8681 13.5088 22.8551 13.5405 22.8462C13.5564 22.8418 13.5686 22.8384 13.5768 22.8361C13.5809 22.8349 13.584 22.8341 13.5861 22.8335C13.5872 22.8332 13.5879 22.833 13.5885 22.8328C13.5887 22.8328 13.5889 22.8327 13.589 22.8327C13.5891 22.8326 13.5892 22.8326 13.5892 22.8326C13.5892 22.8326 13.5892 22.8326 13.5523 22.6976C13.5154 22.5626 13.5153 22.5626 13.5153 22.5626C13.5152 22.5626 13.5152 22.5626 13.5152 22.5627C13.515 22.5627 13.5148 22.5627 13.5145 22.5628C13.514 22.5629 13.5132 22.5631 13.5122 22.5634C13.5101 22.5641 13.507 22.5649 13.5029 22.566C13.4947 22.5683 13.4825 22.5718 13.4667 22.5762C13.4348 22.5851 13.3883 22.5981 13.329 22.6147C13.2103 22.6478 13.0409 22.6953 12.8376 22.7521C12.4309 22.8658 11.8886 23.0175 11.3463 23.1692C10.2615 23.4726 9.17563 23.7762 9.17645 23.776L9.24639 24.0471ZM13.5892 22.8326C13.7203 22.7947 13.8552 22.7154 13.9525 22.619L13.7568 22.4206C13.6863 22.4933 13.6129 22.5365 13.5153 22.5626L13.5892 22.8326ZM13.9525 22.619L27.278 9.1883L27.0824 8.98988L13.7568 22.4206L13.9525 22.619ZM27.278 9.1883C28.2396 8.21911 28.2396 6.64214 27.278 5.6728L27.0823 5.87121C27.9354 6.73107 27.9353 8.1302 27.0824 8.98988L27.278 9.1883ZM13.4662 20.9502L11.3112 18.7782L11.1155 18.9767L13.2705 21.1487L13.4662 20.9502ZM11.3112 18.9767L22.3111 7.8899L22.1153 7.69148L11.1155 18.7782L11.3112 18.9767ZM22.1153 7.8899L24.2704 10.0619L24.466 9.86348L22.3111 7.69148L22.1153 7.8899ZM24.2704 9.86348L13.2705 20.9502L13.4662 21.1487L24.466 10.0619L24.2704 9.86348ZM10.4901 20.307L11.9504 21.7789L12.1461 21.5804L10.6858 20.1086L10.4901 20.307ZM12.0113 21.5446L9.9896 22.1104L10.0636 22.3805L12.0853 21.8147L12.0113 21.5446ZM10.1601 22.283L10.7215 20.2454L10.4545 20.1702L9.89307 22.2079L10.1601 22.283ZM26.1095 8.00959L25.243 8.88302L25.4386 9.08144L26.3052 8.20801L26.1095 8.00959ZM25.4386 8.88302L23.2837 6.71097L23.0879 6.90939L25.243 9.08144L25.4386 8.88302ZM23.2837 6.90939L24.1503 6.03596L23.9545 5.83754L23.0879 6.71097L23.2837 6.90939ZM24.1503 6.03596C24.4672 5.71644 24.9835 5.71651 25.3003 6.03593L25.496 5.83756C25.071 5.40904 24.3797 5.409 23.9545 5.83754L24.1503 6.03596ZM25.3003 6.03596L26.1095 6.85161L26.3052 6.65319L25.496 5.83754L25.3003 6.03596ZM26.1095 6.85162C26.4264 7.17086 26.4264 7.6904 26.1095 8.00957L26.3052 8.20803C26.7307 7.77935 26.7307 7.0819 26.3052 6.65318L26.1095 6.85162Z" fill="#333333"/>
</svg>
