<svg width="21" height="21" viewBox="0 0 21 21" fill="none" xmlns="http://www.w3.org/2000/svg">
<path d="M18.2852 5.50235V19.3564C18.2852 20.0016 17.5709 20.533 16.7035 20.533H4.43312C3.56577 20.533 2.85148 20.0016 2.85148 19.3564V5.50235H18.2852ZM14.2801 7.03957V18.9578H15.1984V7.03957H14.2801ZM10.1219 7.03957V18.9578H11.0403V7.03957H10.1219ZM5.96373 7.03957V18.9578H6.8821V7.03957H5.96373ZM6.98414 2.29505V1.30818C6.98414 0.681907 7.6474 0.188477 8.48924 0.188477H12.6729C13.5147 0.188477 14.178 0.681907 14.178 1.30818V2.29505H18.7954C19.6627 2.29505 20.377 2.82643 20.377 3.47169V4.28775H0.785156V3.45271C0.785156 2.80745 1.49944 2.27607 2.36679 2.27607H6.98414V2.29505ZM8.48924 0.947601C8.23414 0.947601 8.03006 1.09943 8.03006 1.28921V2.27607H13.1576V1.28921C13.1576 1.09943 12.9535 0.947601 12.6984 0.947601H8.48924Z" fill="#D3D3D3"/>
</svg>
